<svg width="270" height="270" viewBox="0 0 270 270" fill="none" xmlns="http://www.w3.org/2000/svg">
<path d="M153.497 0.125981C174.377 -0.00401862 194.757 2.86598 214.147 11.036C223.817 15.106 232.877 20.266 241.287 26.536C245.687 29.816 246.607 33.066 244.027 37.826C234.767 54.896 223.367 70.266 206.877 81.046C177.277 100.386 137.977 101.566 107.227 76.436C94.2969 65.866 84.5169 52.966 76.6169 38.476C73.9269 33.536 74.8469 29.496 79.6669 25.896C85.7869 21.336 92.4069 17.536 99.2069 14.066C112.967 7.03598 127.327 1.80598 142.787 0.185983C146.327 -0.194017 149.927 0.125981 153.497 0.125981Z" fill="#141414"/>
<path d="M167.087 269.706C146.207 269.836 125.827 266.966 106.437 258.796C96.7669 254.726 87.7069 249.566 79.2969 243.296C74.8969 240.016 73.9769 236.766 76.5569 232.006C85.8169 214.936 97.2169 199.566 113.707 188.786C143.307 169.446 182.607 168.266 213.357 193.396C226.287 203.966 236.067 216.866 243.967 231.356C246.657 236.296 245.737 240.336 240.917 243.936C234.797 248.496 228.177 252.296 221.377 255.766C207.617 262.796 193.257 268.026 177.797 269.646C174.267 270.026 170.657 269.706 167.087 269.706Z" fill="#F58220"/>
<path d="M119.637 136.126C119.777 157.636 111.717 174.906 99.1769 190.406C89.3269 202.586 77.0769 211.866 63.2969 219.176C56.9669 222.536 54.3369 221.866 50.1769 216.036C36.6369 197.056 28.0369 176.046 25.1169 152.926C21.3469 123.116 27.1769 95.0759 41.7569 68.8359C44.6869 63.5659 47.7869 58.3959 51.5869 53.6959C54.4569 50.1559 57.3669 49.3259 61.2869 51.4159C81.6669 62.3059 99.2469 76.2559 110.057 97.2859C116.487 109.786 119.727 123.136 119.637 136.126Z" fill="#141414"/>
<path d="M159.987 161.536C146.147 161.526 134.157 149.656 134.047 135.876C133.937 122.036 146.457 109.606 160.537 109.586C173.887 109.566 186.047 122.096 186.027 135.846C185.997 149.946 174.227 161.556 159.987 161.536Z" fill="#F58220"/>
</svg>
