<svg preserveAspectRatio="xMidYMid meet" data-bbox="161 11.576 85.198 62.048" xmlns="http://www.w3.org/2000/svg" viewBox="161 11.576 85.198 62.048" height="86" width="408" data-type="color" role="presentation" aria-hidden="true" aria-label="">
    <g>
        <g clip-path="url(#a03ebb2d-33cb-48c7-84b1-fdf7ff020f5e_comp-mi3wcuyd4)">
            <path fill="#ffffff" d="M161.125 70.956c.209-.126.417-.209.626-.334.875-.5 1.876-.584 2.877-.709 1.042-.167 2.127-.167 3.169-.209 1.376-.041 2.71-.333 4.003-.792.25-.083.501-.208.751-.333.917-.46 1.376-1.293 1.584-2.252.25-1.21.417-2.419.417-3.628v-3.795c0-1.5-.125-2.96-.333-4.462a14.152 14.152 0 0 1 0-3.252c.125-1.501.542-2.877 1.084-4.253.208-.5.333-1.001.5-1.543a513.685 513.685 0 0 1 2.044-6.047c.291-.792.458-1.584.333-2.46-.208-1.418-.125-2.835.209-4.253.208-.918.166-1.877.083-2.836-.083-1.084-.375-2.168-.542-3.21a7.386 7.386 0 0 1-.042-1.669c0-.208 0-.375-.125-.542-.625-.959-.584-1.96-.25-3.002 0-.125.083-.25.167-.334.167-.166.375-.208.542 0 .292.334.625.668.875 1.043.251.292.292.667.376 1.084 0 .167 0 .417.208.5.209 0 .334-.166.459-.333.25-.292.417-.626.542-1 .167-.418.292-.877.5-1.294.209-.458.459-.458.751 0 .292.46.334 1.001.209 1.502-.084.375-.167.709-.251 1.042-.041.167-.041.375-.041.584 0 .208.083.375.292.417.417.042.542.417.792.709.042.083.083.125 0 .208-.167.167-.084.25.042.375.375.376.667.876 1.167 1.168.209.125.167.375.167.584.125.709-.292 1.168-1.001 1.25-.292 0-.584.168-.917.168-.125 0-.125.125-.084.208 0 .25.084.542.209.793l.5 1.125c.084.167.167.292.292.417.501.459 1.001.96 1.293 1.543.167-.083.125-.208.167-.292a2.915 2.915 0 0 1 1.125-1.418 17.258 17.258 0 0 1 4.212-2.084c.751-.25 1.501-.543 2.252-.71.208-.041.417-.041.625 0 .292.126.417.334.251.668a2.056 2.056 0 0 1-.709.75c-.251.167-.542.292-.793.417-1.251.584-2.376 1.293-3.502 2.127-.042 0-.084.084-.167.125-1.043.75-1.209 1.501-.709 2.794.083.209.208.25.417.167.459-.209.876-.375 1.084-.876.042-.125.125-.167.25-.208.292-.125.542-.334.626-.668.083-.375.292-.458.625-.416.167 0 .292 0 .376-.084a.704.704 0 0 1 .417-.125c.166 0 1 .584 1.125.709.251.334.543.625 1.043.625h20.808c.542 0 .876-.25 1.126-.667.041-.083.083-.208.167-.208.417 0 .583-.459 1-.459.084 0 .167 0 .209.083.208.126.375.167.625.167.251 0 .459.167.501.417.041.25.208.417.417.584.25.209.458.417.667.667.25.334.625.417.959.584.125.042.208 0 .25-.125.584-1.084.375-2.043-.625-2.794a22.26 22.26 0 0 0-3.67-2.252c-.292-.167-.625-.333-.917-.5a1.572 1.572 0 0 1-.584-.584c-.209-.417-.042-.709.375-.792.209 0 .376 0 .584.041 1.293.334 2.585.793 3.795 1.335.834.375 1.626.834 2.377 1.292.667.46 1.209.96 1.376 1.794h.083c.334-.543.751-1.001 1.209-1.46.11-.114.208-.24.292-.375.209-.5.459-1.001.667-1.46.042-.125.084-.291.084-.417 0-.333 0-.333-.292-.375-.334 0-.667-.125-1.001-.167-.375-.041-.667-.5-.667-1 0-.376 0-.751.459-1.001.417-.25.667-.71 1-1.085.084-.083.084-.166 0-.208-.166-.125-.083-.209 0-.375.167-.292.376-.542.751-.626.167 0 .25-.208.25-.375 0-.334 0-.667-.083-1a5.427 5.427 0 0 1-.25-1.127c0-.417.083-.834.333-1.167.25-.334.501-.334.667.041.209.417.334.876.501 1.293.167.459.375.876.75 1.21.084.083.167.208.334.125.125-.042.125-.167.125-.292 0-1.001.667-1.627 1.293-2.294.167-.167.333-.167.5 0 .167.125.209.292.292.5.25 1.001.292 2.002-.334 2.92a.707.707 0 0 0-.125.416c.209 1.043-.041 2.002-.292 3.003-.125.5-.25 1-.25 1.543v.292c-.292 1.209-.083 2.376.167 3.544.25 1.251.209 2.502.083 3.795-.041.667-.041 1.334.209 1.96.667 1.668 1.126 3.419 1.751 5.129.542 1.542 1.126 3.085 1.585 4.67.584 2.043.709 4.128.375 6.213-.25 1.543-.25 3.044-.25 4.587v3.461c0 1.168.167 2.293.417 3.42.25 1.209 1.001 2 2.127 2.418 1.376.5 2.793.792 4.253.834 1.626.042 3.211.167 4.795.5.501.125.918.376 1.335.584.167.084.333.25.292.459 0 .25-.209.333-.417.375-.417.083-.834.167-1.251.209-1.46.208-2.961.375-4.42.5-1.502.125-3.044.208-4.546.292-1.543.083-3.085.125-4.67.208-1.585.084-3.169.084-4.754.25-.792.084-1.584.084-2.377.126l-5.212.25c-.459 0-.876-.042-1.334.083h-5.421s-.292-.083-.459-.083c-1.543 0-3.086 0-4.67-.084h-4.712c-.834-.041-1.668 0-2.502 0h-3.336c-.209 0-.417 0-.626.084h-5.421c-.667-.167-1.376-.125-2.085-.125-1.334-.042-2.668-.125-4.044-.209a218.26 218.26 0 0 0-5.213-.292c-1.251 0-2.502-.166-3.753-.125h-.375c-1.585-.125-3.169-.125-4.795-.25-1.043-.083-2.127-.125-3.17-.25a46.488 46.488 0 0 1-4.837-.626 1.478 1.478 0 0 1-.792-.333v-.376h.125Zm64.551-42.576s.208.292.417.25c.291-.083.625-.041.959-.083.75-.041 1.292-.542 1.459-1.376-.709 1.001-1.543 1.585-2.794 1.21-.041-.209.209-.25.25-.46-.291.043-.458.251-.667.376-.208.125-.417.25-.667.125.084-.208.25-.208.334-.292.125-.125.083-.208-.084-.25-.083 0-.166 0-.208-.083 0 0 .042-.084.083-.125.125-.125.25-.209.334-.334.125-.209-.084-.334-.167-.459-.042-.125 0-.25-.083-.375-.334.208-.584.5-.918.709.209 0 .334-.084.501-.167.166-.083.333-.083.417.084.083.166 0 .291-.125.417l-.251.125c-.208.083-.292.25-.292.458 0 .209.167.292.292.376a.885.885 0 0 0 .793 0c.166-.084.333-.167.5-.125h-.083Zm-44.202 7.882c.251-.084.334.125.334.291.042.334.292.543.417.835.167.375.542.458.876.583.125 0 .208 0 .25-.166v-.417c0-.126-.042-.292.083-.334.167-.084.209.125.292.208.125.126.25.292.375.417.126.125.209.084.251-.083v-.292c0-1-.209-1.918-.668-2.794-.083-.125-.208-.292-.166-.458.166 0 .208.083.25.166.459.793.875 1.668.959 2.627v1.251c0 .126 0 .25.167.334.208-.667.458-1.293.333-2.002-.125-.792-.417-1.5-.75-2.251-.334-.834-.834-1.585-1.501-2.169a3.667 3.667 0 0 1-1.043-1.668c0-.083-.083-.166-.125-.333 0 .583 0 1.042.208 1.5a.808.808 0 0 1 0 .626.534.534 0 0 0 0 .5c.126.501.126 1.252 0 1.877-.458-.375-.375-1.042-.834-1.417v.125c0 .333.292.583.334.875.125.417.25.834.417 1.21.125.25.083.542.125.834 0 .083 0 .166-.083.208-.209-.083-.125-.542-.501-.5-.083.166 0 .333 0 .458-.166.417-.417.793-.875.918-.167.041-.251.208-.292.417-.084.333 0 .625.292.792.417.334.834.626 1.376.709 1.167.125 2.252.459 3.377.75.584.167 1.168.334 1.793.292.501 0 1.001.126 1.377.5.083.084.208.21.375.084-.084-.333-.459-.375-.667-.625.458-.125.834.125 1.292.208-.25-.375-.709-.333-1-.584.375-.333.834-.292 1.292-.5-.417-.375-.875.167-1.251-.083 0-.209.25-.209.209-.417-.25 0-.417.208-.667.125-.126-.125.083-.25-.084-.334-.167.042-.292.167-.459.292-.158.125-.344.21-.542.25-.542 0-1.042.042-1.584 0a17.87 17.87 0 0 1-2.586-.584c-.375-.125-.792-.291-1.167-.333-.25 0-.334-.167-.375-.417v-.5c.041-.292.125-.584.166-.876v-.125Zm36.029 8.715v-2.794c0-.209 0-.417-.167-.584-.167-.208-.167-.417-.125-.667.083-.25 0-.459-.042-.709-.083-.459-.292-.959.25-1.334.084-.042.084-.167.084-.25v-3.045c0-.083-.084-.166-.167-.166-.417 0-.834-.042-1.168.083-.167.083-.292.125-.417 0-.25-.167-.5-.167-.792-.167h-22.893a1.554 1.554 0 0 0-.459.209c-.208.167-.25-.209-.417-.125h-.041c-.292-.125-.626 0-.918-.084-.333-.041-.417 0-.417.376v2.627c0 .25.084.417.292.542.125.083.25.166.25.333 0 .292.084.626 0 .876-.125.25-.125.5-.083.792.083.25 0 .5-.209.626-.208.167-.25.375-.25.625v1.418c0 2.085 0 4.128.292 6.213.292 2.252.792 4.462 1.585 6.589.041.167.125.292.166.458.042.167.167.167.292.125.084 0 .125-.083.209-.125 1.209-.667 2.544-.709 3.878-.542.625.084 1.251.25 1.835.417.709.25 1.459.25 2.21.042l1.626-.5c.792-.25 1.626-.376 2.46-.25.793.125 1.501.375 2.252.625 1.001.334 2.002.375 3.002 0a7.277 7.277 0 0 1 4.004-.25c.5.125.959.292 1.417.5.334.167.334.167.501-.167v-.083c.583-1.585 1.042-3.17 1.334-4.837.459-2.377.626-4.754.584-6.88l.042.083Zm-12.886 25.979h.126c1.626-.835 3.252-1.669 4.712-2.753.458-.333.959-.458 1.501-.458h3.294c.709 0 1.376-.042 2.002-.46.417-.291.959-.374 1.459-.291h.792c.876-.167 1.793-.167 2.669-.292.792-.125 1.543-.292 2.294-.584.417-.166.583-.458.625-.875v-.918c-.083-.458-.125-.917-.167-1.376-.083-.75-.125-1.46-.25-2.21a44.442 44.442 0 0 1-.334-2.46c-.083-1-.25-1.96-.75-2.836a6.16 6.16 0 0 1-.542-1.46 10.209 10.209 0 0 1-.125-4.21c.125-.793.333-1.627.75-2.336.125-.25.167-.459.167-.709-.083-.75-.083-1.543-.125-2.335-.042-1.126-.083-2.294-.25-3.42-.084-.416-.084-.416-.501-.458h-.792c-.792-.083-1.501 0-2.168.542-.376.334-.542.626-.501 1.084v.71c0 2.46 0 4.92-.333 7.338-.501 3.586-1.501 7.006-3.253 10.175-1.626 3.002-3.794 5.546-6.422 7.756-1.209 1-2.501 1.918-3.836 2.835h-.042Zm-3.169-.751-.292-.292c-1.959-1.376-3.753-2.919-5.337-4.712a26.745 26.745 0 0 1-5.838-10.8c-.876-3.128-1.126-6.297-1.209-9.508v-3.127c0-.167 0-.375-.125-.542-.584-.584-1.251-.834-2.044-.792-.375 0-.75.041-1.126.083-.417 0-.417 0-.458.417-.167.96-.209 1.918-.25 2.877 0 .793 0 1.585-.084 2.377-.083.542-.125 1.043.25 1.543.084.125.125.334.209.5.292.834.459 1.668.542 2.544.125 1.71-.083 3.336-.917 4.879-.334.584-.501 1.25-.542 1.918 0 .334-.042.709-.126 1.042a93.117 93.117 0 0 0-.625 4.754c-.042.584-.167 1.21-.167 1.793 0 .459.209.75.626.918.583.208 1.125.375 1.751.5.876.167 1.751.167 2.585.292.459.083.918.167 1.376.125a2.464 2.464 0 0 1 1.627.334c.417.208.834.291 1.292.291 1.418 0 2.836.042 4.295.084.376 0 .709.083 1.001.334 1.168.834 2.377 1.542 3.67 2.21l-.084-.042Zm-19.515-1.835s.375.209.5.25c.96.125 1.919.292 2.878.292.834 0 1.668.042 2.502.084.875.041 1.584.333 2.335.709.083 0 .208.083.167.208-.042.125 0 .209.083.25.083.042.167.125.125.25-.042.126-.167.084-.25.084h-.125c-.25 0-.292 0-.209.25 0 .083.084.125 0 .209-.041.083-.125.041-.208 0-.25-.084-.459 0-.709 0-.542 0-1.043.208-1.585.125-.667-.126-1.334-.126-2.001-.167-1.043 0-2.085-.167-3.128-.25-.583-.042-1.167-.084-1.751 0-.417.041-.834.083-1.251 0-.375 0-.751 0-1.042-.209a1.178 1.178 0 0 0-.626-.167c-.917 0-1.793.042-2.71.084-.584 0-1.21 0-1.752.292-.125.041-.25.083-.375.083a14.52 14.52 0 0 1-3.294.375c-.251 0-.542 0-.793.125 1.502 0 3.003.084 4.504.209.25 0 .459 0 .667-.167.167-.125.334-.125.542-.083.501.083 1.043.208 1.543.291.334.042.709.167 1.043-.166a.444.444 0 0 1 .25-.084c.542-.166 1.084 0 1.584.126.584.166 1.168.166 1.752.124 1-.041 2.001-.166 3.002-.166 1.251 0 2.502.083 3.753.166 1.418.084 2.794.042 4.17-.083 1.042-.083 2.043-.083 3.086.084.625.125 1.292.208 1.959.333-.083-.208-.166-.375.126-.334a28.46 28.46 0 0 0 1.876.209c1.168.125 2.377.209 3.544.334.834.125 1.627.208 2.461.041.584-.125 1.167-.166 1.751-.208 1.376-.125 2.794-.209 4.17-.417.083 0 .209-.084.25 0 .084.125-.125.167-.041.292.542-.084 1.125-.167 1.668-.292 1-.209 2.043-.25 3.085-.167.667.042 1.376.125 2.044.167 1.334.083 2.668-.084 4.003-.084h.208c.918-.125 1.877 0 2.794-.083h.167c.333.167.667.125 1.042.125h.793c.583.084 1.209.084 1.793-.083.333-.084.667-.125 1.042-.209.292-.041.626-.041.876.125.375.292.75.209 1.167.167a19.072 19.072 0 0 0 1.502-.292c.166 0 .375-.041.5.084.208.208.5.166.751.166a43.112 43.112 0 0 1 4.044-.166h.459c-.417-.167-.876-.125-1.334-.125-1.251-.084-2.502-.167-3.67-.668a1.213 1.213 0 0 0-.375-.083c-1.043 0-2.127-.125-3.169-.125-.417 0-.834-.084-1.168.208-.042.042-.167.042-.208.042a4.74 4.74 0 0 1-1.877 0c-.542-.083-1.084-.042-1.626 0-1.209.084-2.377.209-3.586.292-.584 0-1.126 0-1.71.167-.25.041-.459 0-.709 0-.542 0-1.084-.25-1.626-.084-.125.042-.209-.041-.167-.208 0-.084.167-.125.125-.292-.208-.209-.5.125-.709-.083 0-.126.125-.209.209-.25 0 0 .167-.042.083-.126-.167-.25.084-.25.209-.333.208-.125.417-.209.625-.334.417-.208.834-.333 1.293-.333.375 0 .709 0 1.084-.126a2.203 2.203 0 0 1 1.043 0c.333.084.667.042 1 0a24.967 24.967 0 0 0 1.835-.166c.417-.042.834-.042 1.209-.292-1.292-.167-2.585-.084-3.836 0h-.25c-1.043.083-2.085.292-3.169.166h-.376c-.458.084-.917.167-1.334-.083-.125-.042-.25 0-.375 0-.084 0-.167 0-.125-.125.083-.167 0-.209-.125-.209-.417 0-.876-.083-1.293.209-.042.042-.167.042-.209.042-.375 0-.75.166-1.084.333a28.224 28.224 0 0 1-7.297 2.377c-1.043.209-2.085.334-3.211.167-2.836-.459-5.588-1.251-8.215-2.46-.333-.167-.667-.376-1.042-.417a2.209 2.209 0 0 1-1.293-.626c.125.292 0 .334-.125.334h-.292c-.125 0-.417-.125-.334.25l-.083.083c-.334-.083-.667.167-.959.167-.667-.041-1.334-.083-1.96-.041-.584 0-1.167-.084-1.751-.126-.793-.083-1.585-.041-2.377-.125-.751-.083-1.501.125-2.335 0l-.042.167Zm13.427-9.132c-.542 0-1.251.083-1.918.375-.292.125-.334.209-.167.459.167.334.376.667.584 1 .125.25.292.293.584.25.917-.25 1.876-.208 2.835-.04a9.09 9.09 0 0 1 1.835.458c.459.125.876.167 1.376.042.417-.125.834-.25 1.21-.417a6.171 6.171 0 0 1 2.126-.376c.834 0 1.585.25 2.335.542.834.334 1.668.417 2.586.084 1.167-.376 2.377-.626 3.586-.417.208 0 .375.041.542.083.208 0 .375 0 .5-.208.209-.334.417-.667.584-1.043.167-.292.125-.333-.208-.458a3.91 3.91 0 0 0-1.543-.292 8.091 8.091 0 0 0-3.003.458c-.917.334-1.834.292-2.752 0-.375-.125-.792-.25-1.167-.375a5.412 5.412 0 0 0-3.253 0c-.375.125-.709.209-1.084.334-.959.333-1.96.375-2.919 0-.792-.292-1.668-.417-2.71-.417l.041-.042Zm30.649-14.136c-.25-.083-.459.042-.667.083-.5 0-.667-.125-.625-.625 0-.209 0-.334-.209-.417-.542-.209-.709-.71-.792-1.21a12.52 12.52 0 0 1-.084-1.292c0-.292-.083-.584-.166-.876-.084-.25-.292-.333-.584-.25-.209.083-.167.25-.125.375.208 1.376.292 2.752.333 4.17 0 .584.084 1.21.125 1.793l.376 3.17c0 .083.083.166-.084.291-.375-.75-.333-1.584-.542-2.377-.167.084-.208.25-.208.376-.459 1.543-.501 3.169-.376 4.753.084.96.501 1.835.834 2.71.251.585.376 1.168.459 1.794l.626 5.087c.083.75.166 1.502.208 2.252 0 .792-.208 1.126-.959 1.46-.917.375-1.835.542-2.794.667-.792.083-1.543.208-2.335.292.125.166.292.041.375.208-.041 0-.125.292-.167.375-.166.209 0 .25.126.25.125 0 .25.042.375 0a28.663 28.663 0 0 1 1.876-.208c.709-.042 1.376-.125 2.085-.083.793.041 1.627 0 2.419 0 .292 0 .292-.042.292-.459-.209.334-.501.334-.793.25-.542-.167-1.042-.125-1.584-.083-.459.041-.959.167-1.418.125-.083 0-.208 0-.208-.125.083-.125.208-.125.291-.125a17.61 17.61 0 0 1 2.544-.292c.459 0 .459 0 .417-.459v-.208c.084-1.001 0-2.044 0-3.044-.042-1.71-.208-3.42-.333-5.13 0-.291-.084-.541-.209-.833-.125-.292-.208-.584-.292-.834a15.532 15.532 0 0 1-.542-5.171c0-.5.167-1 .334-1.46.458-1.167 1.167-2.168 1.918-3.169.417-.542.875-.875 1.584-.917.334 0 .668-.125 1.001-.25-.208-.084-.333-.042-.459 0-.375.083-.75.166-1.125.208a1.761 1.761 0 0 0-1.126.667c-.125.167-.251.292-.376.417-.166.167-.25.125-.333-.083-.084-.25 0-.459.083-.667.125-.25.334-.417.501-.626.125-.166.333-.292.333-.583v.083Zm-42.199 5.337c-.167-.25-.084-.375-.042-.5.25-1.918.459-3.878.5-5.796 0-.876.084-1.752.209-2.586 0-.25.083-.5.083-.75 0-.167-.042-.209-.208-.25-.334 0-.459.041-.542.375l-.126.709c-.041.542-.041 1.126-.166 1.668-.084.375-.251.709-.626.834-.292.125-.333.25-.292.542.042.375-.083.542-.458.542-.126 0-.292 0-.417-.042-.126 0-.251-.083-.376 0 0 .25.167.376.334.542.167.209.375.417.5.626.125.25.167.5.084.75-.042.167-.167.209-.292.084-.042 0-.084-.084-.125-.125a2.39 2.39 0 0 0-1.877-1.084c-.125 0-.208-.084-.333-.084-.209 0-.459-.125-.793 0 .417.125.751.25 1.126.292.626 0 1.043.292 1.418.792.417.584.834 1.168 1.251 1.793.625.96 1.042 2.002 1.084 3.128a15.39 15.39 0 0 1-.667 5.337c-.167.584-.334 1.126-.375 1.752-.167 1.793-.251 3.586-.334 5.379-.042.876 0 1.751-.042 2.669 0 .208.084.292.292.292.459 0 .918.083 1.376.125.501 0 1.001.125 1.501.208.084 0 .209 0 .167.209-.167.041-.375 0-.542 0-.375 0-.792-.084-1.167-.125-.459-.042-.876-.084-1.335.041-.375.125-.709.209-1.042-.25.083.459.083.5.458.459.876 0 1.752 0 2.669-.042.918 0 1.793.084 2.711.167.458.042.917.167 1.417.083.334-.083-.125-.333.126-.417.083 0-.042-.041-.084-.083-.042 0-.167 0-.167-.125.084-.125.292 0 .376-.167a66.74 66.74 0 0 1-3.044-.417 8.233 8.233 0 0 1-2.21-.584 1.317 1.317 0 0 1-.876-1.334c0-.876.167-1.751.25-2.627.167-1.46.334-2.96.542-4.42.084-.793.25-1.543.584-2.294.292-.667.584-1.292.709-2.001.167-1.001.167-2.044.125-3.086a9.137 9.137 0 0 0-.375-2.127c-.042-.167-.084-.375-.292-.5-.167.834-.209 1.668-.542 2.502l-.125-.084Zm-3.003 8.048c-.125.292-.167.584-.208.918-.167 1-.125 2.001-.167 3.002-.084 1.46-.292 2.92-.459 4.379-.083.625-.208 1.25-.292 1.876-.083.709.084.96.751 1.21.042 0 .125.041.125.166-.292.084-.626.042-.959 0-.292 0-.417-.125-.501-.417a1.033 1.033 0 0 1 0-.5c.042-.542.209-1.043.334-1.585.167-.5.25-1.042.25-1.585a11.91 11.91 0 0 0-.292 1.293c-.125.417-.125.876-.375 1.251-.167-.167-.083-.292-.083-.417l.375-2.127c0-.166.125-.5-.042-.5-.25 0-.208.292-.25.459-.125.917-.208 1.835-.459 2.752-.125.417 0 .834.209 1.251.083.125.167.25.333.25.543 0 1.043.042 1.543-.083.042 0 .167 0 .167-.084.042-.291.292-.208.459-.208.375 0 .792 0 1.167.042.709.083 1.46.125 2.169.25.75.125 1.501.041 2.21.167.542.083 1.084.083 1.668.125-.25-.167-.501-.125-.751-.167-.25 0-.5 0-.709-.209.292-.208.626-.041.834-.208-.041-.125-.208-.084-.25-.209 0-.166.209-.083.292-.208-1.501-.125-3.002-.084-4.462-.292-.834-.125-1.709-.167-2.335-.876 0 .5.5.5.667.834-.167.125-.333.084-.5.084h-.334c-.333 0-.5-.209-.458-.542 0-.376.041-.751.291-1.043a.7.7 0 0 0 .126-.417c.083-.584.125-1.168.208-1.751.25-1.752.5-3.503.709-5.254.125-1.126.334-2.252.709-3.336.333-1.001.584-2.085.542-3.17 0-.166 0-.333.042-.458.083-1.334 0-2.627-.751-3.795-.334-.5-.584-1.042-.876-1.584-.125-.25-.292-.459-.417-.668a1.85 1.85 0 0 0-1.584-.583c.041.083.167.083.25.125 1.084.333 1.626 1.126 1.876 2.168.084.375.209.75.417 1.043.251.333.376.709.376 1.125 0 .417.041.834 0 1.252 0 .208-.042.458 0 .792.25-.584.167-1.126.333-1.71.292.417.209 1.251-.041 2.544-.167.834-.459 1.626-.793 2.418.251-.166.251-.542.584-.667.125.209 0 .375-.083.5a7.65 7.65 0 0 0-.334.876c-.292 1.293-.542 2.586-.584 3.92 0 .167 0 .375-.083.5-.209.292-.209.626-.25.96l-.125 1.376c-.084.875-.125 1.75-.376 2.627 0 .083 0 .208-.25.25.084-1.376.292-2.71.334-4.045.041-1.376 0-2.752.125-4.128l-.042.041Zm44.118-5.42c.042-.25 0-.46 0-.668-.083-.959-.125-1.918.5-2.794a1.79 1.79 0 0 0 .209-.5c.083-.667.417-1.21.834-1.71.25-.333.542-.542.959-.667.25-.083.459-.125.751-.333-.251 0-.376.041-.543.083-.708.125-1.292.375-1.626 1.084-.417.834-.917 1.626-1.376 2.46-.292.543-.417 1.168-.417 1.794 0 .625.042 1.25.042 1.834 0 1.293.292 2.46.709 3.67.208.542.333 1.126.417 1.71.208 1.459.375 2.877.542 4.336.167 1.251.417 2.46.5 3.711 0 .209.084.376.167.543.208.333.25.708.25 1.084a.406.406 0 0 1-.333.417 2.519 2.519 0 0 1-.96-.042c.209-.292.626-.292.626-.75-.401.381-.911.63-1.459.708-1.043.167-2.085.292-3.128.292-.751 0-1.501.125-2.293.084.125.125.333.041.375.208 0 .167-.25.125-.292.25.125 0 .25 0 .334.042.166 0 .5-.042.5.125 0 .25-.334.167-.542.209-.25 0-.5 0-.709.125h.584c.625-.042 1.209-.125 1.835-.167.959 0 1.876-.167 2.835-.25.626-.084 1.209-.167 1.835-.125.125 0 .333-.042.417.083.125.25.375.25.584.25h1.251c.125 0 .25-.041.292-.167.208-.375.375-.75.25-1.209a18.332 18.332 0 0 1-.376-2.085c0-.375-.125-.75-.166-1.126 0-.083-.042-.125-.125-.083 0 0-.084.041-.084.083v.459c.125.709.25 1.418.375 2.085 0 .125.084.25-.125.334-.292-.751-.375-1.585-.625-2.336v.417l.25 1.126c.125.5.292.96.292 1.501 0 .751-.083.876-.876.876-.208 0-.417.084-.625-.083.041-.125.167-.125.25-.167.5-.167.584-.334.625-.834v-.709a31.45 31.45 0 0 1-.375-2.836 28.801 28.801 0 0 1-.333-4.628c0-.5-.084-1.001-.126-1.501 0-.25-.041-.5-.25-.834 0 .667.084 1.209.084 1.751 0 1.46.041 2.96.208 4.42.042.5.125 1.043.167 1.543 0 .167.083.334-.167.5-.125-.542-.25-1-.333-1.459-.084-.792-.126-1.626-.209-2.419 0-.375 0-.75-.167-1.084a3.077 3.077 0 0 1-.292-1.25c-.125-1.544-.333-3.045-.917-4.504a.32.32 0 0 0-.083-.167c0-.084 0-.167.083-.209.083 0 .125 0 .167.084.125.167.167.333.333.5v-.125c0-.083-.083-.167-.125-.25-.5-.876-.583-1.835-.792-2.794-.083-.417-.083-.834-.125-1.21 0-.166 0-.333.208-.5.167.542.084 1.126.334 1.71v.084Zm3.294 7.422a47.78 47.78 0 0 0 .334 4.212c.125.959.333 1.876.5 2.793.042.25.167.376.417.334.417 0 .793.042 1.168.083.542.042.584 0 .375-.542-.542-1.543-.876-3.169-.917-4.837 0-.709-.084-1.376-.209-2.085-.125-.667-.25-1.376-.584-2.001-.166-.292-.375-.334-.583 0-.292.5-.626 1.042-.501 1.668v.375Zm-49.08-.167v-.584c.042-.542-.375-.917-.625-1.334-.125-.25-.334-.167-.459.083a3.518 3.518 0 0 0-.375.918c-.25.917-.376 1.834-.417 2.752a25.533 25.533 0 0 1-.25 2.502c-.167 1-.417 1.96-.751 2.877-.125.334-.083.375.25.375.501 0 1.001-.125 1.501-.125.209 0 .251-.166.292-.333.542-2.377.709-4.796.834-7.214v.083Zm47.079-27.23c-.251.209-.292.376-.376.584-.083.167-.125.334-.208.542-.042.084-.084.25-.209.167-.125 0-.083-.167-.083-.25.042-.209 0-.417 0-.625a3.059 3.059 0 0 1 0-.876.817.817 0 0 0 0-.626c-.083-.25-.042-.458 0-.709.167-.458.167-.917.167-1.417-.042.083-.084.208-.125.292a3.127 3.127 0 0 1-1.168 1.75c-.208.126-.333.334-.5.501-.793.96-1.21 2.127-1.543 3.295a2.798 2.798 0 0 0-.125 1.167c.041.459.167.96.417 1.376.125-.75 0-1.543.208-2.293.25-.918.709-1.835 1.084-2.044v.084l-.25.5c-.458.918-.625 1.835-.584 2.836 0 .083 0 .208.126.25.083 0 .166 0 .208-.083.167-.167.292-.334.417-.5.125-.126.25-.084.25.083v.5c0 .209.125.292.334.209.25-.084.5-.167.667-.376.375-.417.417-1.042.834-1.46.042-.04.042-.208 0-.25-.083-.083-.167 0-.25.084-.084.125-.084.25-.167.334 0 .041-.125.041-.167 0v-.126c0-.75.501-1.376.584-2.085 0-.041.083-.083.125-.166.167-.209.209-.417.209-.75l.125.083Zm-7.298 6.089c-.417.125-.834-.292-1.251 0 .459.208.918.166 1.293.5-.292.25-.751.167-1.001.542.417 0 .793-.292 1.251-.167-.125.209-.333.25-.458.376-.084.083-.251.166-.167.291.083.126.25 0 .333-.083.417-.459.959-.5 1.543-.542.459 0 .918 0 1.335-.209.75-.291 1.542-.333 2.293-.583.297-.096.606-.152.917-.167a2.919 2.919 0 0 0 1.71-.667c.334-.25.459-.584.375-1.001 0-.167-.083-.292-.25-.334a1.336 1.336 0 0 1-.834-.75c.042.458.125.75.125 1.084 0 .375-.083.5-.5.542-.25 0-.5.125-.792.209-1.335.416-2.669.792-4.087.75-.417 0-.751-.083-1.042-.334-.125-.083-.251-.25-.417-.25 0 .167.166.25 0 .376-.084.083-.209 0-.334 0-.125 0-.25-.126-.417-.084.042.209.292.209.334.459l.041.042Zm-48.371 31.44c.709-.082 1.418-.082 2.127-.25.75-.166 1.376-.541 1.918-1.084.751-.708 1.209-1.584 1.501-2.543.375-1.251.542-2.544.667-3.837.125-1.084.251-2.168.334-3.252v-.375c-.083.083-.083.125-.125.208-.25 1-.292 2.043-.417 3.086 0 .375-.084.75-.125 1.126 0 .125 0 .333-.292.417 0-.5.042-.96.083-1.376.042-.459 0-.96.084-1.418.041-.459.125-.917.125-1.376 0-.459.167-.918.041-1.376-.125.25-.166.542-.166.834-.084 1.167-.167 2.377-.292 3.544-.167 1.293-.376 2.585-.793 3.837-.542 1.668-1.626 2.918-3.377 3.419l-1.418.375.125.042Zm65.76-.124c-.334-.084-.667-.209-1.001-.292-1.167-.334-2.043-1.084-2.71-2.127-.417-.709-.709-1.46-.834-2.252-.25-1.376-.584-2.752-.626-4.17 0-.875-.083-1.75-.208-2.627 0-.125 0-.25-.167-.375 0 .667.125 1.251.167 1.835.041.625.125 1.21.125 1.835 0 .584.208 1.167 0 1.751-.334-.75-.25-1.585-.375-2.377-.126-.792-.167-1.584-.417-2.377v.292c.166 1.46.291 2.96.5 4.42.125 1.126.334 2.252.792 3.336.501 1.21 1.251 2.21 2.502 2.71a4.648 4.648 0 0 0 2.252.334v.084Zm-8.09-33.693c-.333.375-.584.75-.458 1.25.041.25 0 .46 0 .71-.084.583-.251.75-.834.875-.501.125-.96.042-1.46.125a74.141 74.141 0 0 1-3.002.417c.625 0 1.209 0 1.835-.083 1.042-.083 2.043-.25 3.085-.209.334 0 .542-.166.626-.5 0-.125.083-.292.083-.417.042-.709.125-1.418.167-2.168h-.042Zm-40.615 1c-.125-.25-.208-.5-.333-.75-.334-.75-.626-1.543-.751-2.377-.125-1.084.167-1.96 1.042-2.627l.876-.625c.084-.042.167-.084.209-.25-.626.333-1.168.625-1.627 1.042-.75.584-1 1.376-.875 2.293.166 1.21.667 2.335 1.417 3.336l.042-.041Zm-8.381-.959c.083.834.125 1.585.208 2.294.042.5.334.709.834.709.792 0 1.543.125 2.335.167.834.041 1.627.208 2.46.125-.542 0-1.084-.125-1.626-.209-.709-.083-1.418-.25-2.126-.25a5.13 5.13 0 0 1-.834-.083c-.417-.084-.626-.334-.709-.71a2.676 2.676 0 0 1-.042-1c0-.375-.125-.709-.459-1.043h-.041Zm39.405-5.712c.417.375.918.625 1.335.959.75.667 1.042 1.46.959 2.46-.084 1.042-.501 1.96-.918 2.877-.083.167-.125.292-.208.459.751-1.043 1.293-2.127 1.459-3.42.126-.959-.125-1.793-.959-2.376-.5-.376-1.084-.71-1.668-1.001v.042Zm9.216 31.066v-1.126c-.083-.96-.125-1.918.459-2.752 0 0 0-.042.041-.084.042-.125 0-.167-.083-.208a.598.598 0 0 0-.834.333 1.412 1.412 0 0 0 0 .834c.125.75.25 1.501.334 2.252 0 .25 0 .5.125.75h-.042Zm-48.204 0c.166-1.001.25-2.044.458-3.044.042-.25.042-.5 0-.751-.125-.334-.333-.459-.709-.417-.292.042-.333.167-.166.375.5.75.542 1.585.458 2.419a8.189 8.189 0 0 0 0 1.418h-.041Zm-4.421 7.38c.417.042.793-.083 1.168-.083.459 0 .876-.083 1.334-.083a.353.353 0 0 0 .334-.417c0-.25-.25-.167-.375-.167-.501.083-1.043.083-1.543.083-.417 0-.709.209-.876.667h-.042Zm57.087 0c-.167-.458-.459-.667-.834-.667h-.792c-.292 0-.584-.083-.918-.083-.25 0-.292.125-.25.333.042.167.167.25.334.25.375 0 .708 0 1.084.084.417.042.875.083 1.376.083ZM218.67 35.386s-.083 0-.125.042c-.167.208-.042.792.167.917.208.125.459.209.667.334.125.041.209 0 .292-.084.042-.083.083-.208.125-.292.083-.291.083-.333-.208-.458-.292-.125-.584-.209-.834-.417 0 0-.042 0-.084-.042Zm-48.705 34.527c1.835.083 3.712-.792 4.17-1.918-1.167 1.21-2.668 1.584-4.17 1.918Zm12.844-42.116s-.125 0-.167.041c-.083 0-.209 0-.209.125 0 .084.084.126.126.209.083.083.25.083.25.25-.125.167-.334 0-.542.125.292 0 .542.084.792-.041.125-.084.292-.167.292-.334 0-.209-.042-.375-.25-.459-.084 0-.167-.083-.251-.125-.125-.083-.25-.208-.166-.417.041-.167.25-.208.458-.125.167.084.292.167.501.167a8.115 8.115 0 0 1-.959-.709c-.084.167-.042.292-.125.417-.209.334-.167.334.083.584.083.083.208.125.25.292h-.083Zm54.668 42.158c-1.46-.334-2.878-.71-4.087-1.71 1.042 1.334 2.502 1.668 4.087 1.71ZM188.73 35.469c-.334.167-.667.292-.959.417-.083 0-.209.084-.167.209.042.25.084.5.292.625.167.125.292-.083.459-.166.083 0 .125-.084.208-.084.167-.083.292-.208.292-.417 0-.167 0-.333-.083-.584h-.042Zm-10.466-12.384c.083-.292 0-.542-.042-.834-.084-.25-.292-.5-.167-.834 0 0 0-.084-.083-.125-.084 0-.125 0-.125.083-.292.709-.376 1.418-.042 2.168 0-.208 0-.417-.042-.667 0-.083 0-.167.084-.208.083 0 .125.041.166.125.084.083.084.208.251.208v.084Zm40.198 14.26v.46c0 .125 0 .25.166.25.126 0 .251 0 .334-.125.125-.209.25-.46.375-.668.042-.083 0-.166-.083-.25-.083-.041-.167-.125-.292-.167-.459-.208-.459-.208-.5.25v.25Zm11.008-15.928c0 .583-.542 1.126-.292 1.793.084-.167.167-.25.251-.376 0 0 .083-.041.125-.041.083 0 .083.083.083.125 0 .208 0 .417-.042.625.334-.709.251-1.417-.125-2.085v-.041Zm0 35.194c-.208-.125-.375-.209-.542 0-.167.208-.333.334-.584.334-.083 0-.208 0-.208.125-.042.208.042.333.208.458.167.125.334.167.459 0 .25-.292.459-.584.709-.875l-.042-.042Zm-51.582 0c.25.292.459.584.709.876.084.125.209.125.334.041.166-.083.292-.208.292-.458 0-.167-.126-.209-.292-.209-.209 0-.376-.125-.501-.292-.166-.208-.333-.167-.542 0v.042Zm3.545-35.32c-.376.71-.668 1.418-.668 2.21.334-.708.876-1.334.668-2.21Zm44.451 0a.809.809 0 0 0-.042.751c.167.459.376.918.542 1.376 0 .084.084.167.209.084-.042-.668-.375-1.668-.709-2.21Zm-44.201 7.09c-1.209.291-2.002-.25-2.711-1.21.167.834.709 1.293 1.46 1.335.333 0 .625 0 .959.083.083 0 .208 0 .334-.208h-.042Zm7.13 9.09v-.417c0-.167-.083-.25-.25-.167-.083 0-.167.084-.25.125-.208.084-.25.209-.125.417.083.167.167.375.292.542.042.084.125.167.25.125.083 0 .125-.125.125-.208v-.417h-.042Zm-26.479 33.36c.084.291.251.333.417.375.417.083.834.166 1.251.083.793-.125 1.585-.042 2.377-.083h.459c-.417-.042-.834-.042-1.293-.042-.792 0-1.584 0-2.377-.083-.292 0-.542-.209-.875-.25h.041Zm78.228.333c1.001.083 1.96 0 2.961.167.375.041.709 0 1.084-.125.167 0 .375-.084.417-.376-.709.376-1.459.334-2.168.334h-2.294Zm-54.959-32.567v.125h.834c.125 0 .333.042.375-.125 0-.125-.084-.25-.167-.376-.083-.125-.208-.125-.334-.041l-.708.459v-.042Zm35.027.083c.417.042.792.042 1.293 0-.292-.167-.459-.292-.668-.417-.333-.167-.375-.167-.542.167-.041.083-.125.167-.083.292v-.042Zm1.001-1.71c-.584.584-.542.71.083 1.085h.084c-.042-.376-.126-.71-.167-1.084Zm-36.028 1.085c.75-.209.708-.542.166-1.084 0 .375-.125.708-.166 1.084Zm-9.007 17.221c.208.25.458.46.708.668.084.041.167.041.292.041.084 0 .125 0 .125-.083s0-.125-.083-.125c-.292-.084-.5-.292-.751-.459-.083-.041-.125-.083-.25 0l-.041-.041Zm54.125-.041c-.375.125-.667.417-1.042.584-.084 0 0 .125.083.166.125 0 .25 0 .375-.083.251-.167.459-.375.626-.667h-.042ZM228.72 24.96c-.042.292.083.5.292.709.25-.375-.126-.5-.292-.709Zm-.251-2.168c-.25.834-.25.876 0 1.084v-1.084Z" data-color="1"></path>
            <path fill="#ffffff" d="M211.331 11.742c.125.376.125.793.042 1.168-.084.417-.084.834.167 1.21a.796.796 0 0 1 .083.333c0 .292.208.459.459.625.125-.25.125-.5.083-.792-.083-.375-.125-.792-.167-1.167-.041-.584.542-1.126 1.084-1.085.167 0 .209.125.126.25-.084.167-.209.292-.334.418-.209.208-.292.458-.334.75 0 .584 0 1.21.209 1.793 0 .042 0 .125.083.167.084.125.167.334.334.25.167-.042.125-.25.125-.375 0-.5-.125-1-.083-1.501.041-.542.417-.918.917-1.001.083 0 .208 0 .25.042.083.125 0 .208-.083.292-.417.292-.459.75-.459 1.167v1.335c0 .166 0 .333-.042.458-.125.292 0 .542.167.834.334-.542.542-1.042.542-1.668 0-.417.084-.834.292-1.25.292-.501.751-.751 1.334-.584.126 0 .209.083.292.166.042.042.125.125.084.209 0 .083-.084.083-.167.083-.334-.083-.5.125-.709.375-.584.71-.834 1.585-.876 2.46 0 .21 0 .376-.166.543-.209.208-.167.417-.126.667 0 .125 0 .292.167.292.125 0 .292 0 .376-.167.041-.083.125-.208.125-.292.041-.167.083-.333.083-.5.083-.75.417-1.335.959-1.793.375-.376.918-.459 1.335-.209.083 0 .125.084.125.167v.083c-.501 0-.793.334-1.001.751-.125.25-.292.5-.501.709-.375.459-.542 1.042-.708 1.585-.042.166.041.25.208.166.417-.25.876-.125 1.293-.166.208 0 .375.083.542.208.333.25.542.584.667.959.083.167.167.334.375.375.334.084.417.25.292.542-.208.5-.167 1.043-.375 1.585v.125c.083.417 0 .709-.542.709-.167 0-.167.167-.209.292 0 .125.084.125.209.167.25 0 .375.208.459.417 0 .125 0 .25.166.333.251 0 .501-.25.709 0 .209.25 0 .459-.083.668a1.67 1.67 0 0 0-.167 1.084.78.78 0 0 1-.167.667.962.962 0 0 0-.167.584c0 .25-.125.458-.375.458-.167 0-.292.084-.459.125-.208 0-.208.167-.208.334s0 .25.208.334c.251.083.292.25.251.458-.084.209-.292.376-.542.292-.251-.041-.376-.208-.459-.417-.084-.25-.167-.5-.125-.792 0-.125 0-.25-.125-.292-.084 0-.167-.125-.167-.208 0-.334-.25-.46-.459-.668-.459-.417-.584-.959-.625-1.543a5 5 0 0 0-.209-1.376c-.083-.041-.167 0-.208 0-.209.417-.584.668-.876 1.043a.75.75 0 0 1-.292.208c-.292.084-.5.334-.667.584-.667 1-1.251 2.085-1.96 3.086-.125.208-.292.375-.459.625.584.167.959.543 1.21 1.043.208.459.25.959 0 1.418-.209.375-.501.583-.959.583h-2.252c-.542-.166-1.084-.041-1.585-.166h-.167a2.084 2.084 0 0 1-1.334 0h-.417c-.792 0-1.585 0-2.377-.042-.458 0-.959 0-1.418.083a2.75 2.75 0 0 1-1.167 0 1.19 1.19 0 0 0-.542 0 1.169 1.169 0 0 1-.918.042c-.166-.042-.333 0-.458 0a1.418 1.418 0 0 1-.834 0c-.251-.042-.459 0-.668.083-1 .209-1.959-.708-1.709-1.71a1.549 1.549 0 0 1 1.042-1.209c.084 0 .209-.083.292-.125 0-.166-.125-.25-.167-.333-.708-.918-1.251-1.918-1.876-2.92a6.321 6.321 0 0 0-.459-.666.884.884 0 0 0-.167-.209c-.708-.292-1.084-.917-1.542-1.501h-.126c-.166.375-.208.834-.25 1.251 0 .334-.083.709-.167 1.042-.083.209-.166.46-.333.626-.292.25-.584.459-.584.834-.417.208-.25.584-.292.917-.041.334-.167.626-.5.75-.209.084-.417 0-.542-.208-.125-.208-.084-.458.167-.542.208-.083.208-.25.208-.417 0-.208-.167-.208-.292-.25a.592.592 0 0 1-.25-.083c-.375-.084-.459-.209-.459-.584 0-.167 0-.292-.125-.459a.877.877 0 0 1-.167-.834c.084-.292 0-.584-.125-.875a1.511 1.511 0 0 1-.167-.376c-.083-.333.126-.542.459-.5.334.083.334.083.417-.25.084-.376.334-.459.667-.459 0-.334-.125-.459-.417-.5-.375 0-.333-.084-.333-.46v-.374c-.209-.5-.209-1.043-.376-1.585-.125-.334 0-.5.334-.542.209 0 .292-.083.334-.25.083-.292.208-.542.375-.75.292-.376.667-.626 1.167-.543.376.042.751 0 1.126.209-.333-.668-.458-1.418-1-2.002-.167-.167-.292-.417-.417-.625-.167-.334-.417-.584-.834-.584 0 0-.084 0-.167-.084.167-.292.417-.333.709-.333s.583.125.792.292c.5.458.834 1 .959 1.668 0 .125.042.291.083.417.084.444.348.708.793.792 0 0 .041-.334.083-.5a.58.58 0 0 0-.083-.46c-.209-.208-.209-.458-.25-.708a4.858 4.858 0 0 0-.876-2.377c-.167-.208-.334-.417-.667-.375-.084 0-.167 0-.209-.084 0-.083 0-.166.084-.208.291-.25 1-.209 1.376.125.333.334.458.75.5 1.21 0 .708.209 1.375.542 2.043.167-.292.292-.584.167-.918-.167-.417-.167-.834-.167-1.25v-.626c0-.376-.125-.75-.459-1.001-.083-.084-.208-.167-.125-.292.084-.167.209-.083.334-.083.5.083.792.417.834.959 0 .417 0 .834-.042 1.25-.041.376.084.668.292.668.167 0 .334-.292.417-.584.125-.5.209-.96.167-1.46 0-.375-.125-.708-.417-1-.125-.125-.334-.292-.209-.459.126-.208.376-.083.543 0 .5.167.708.542.625 1.084-.042.376-.125.793-.167 1.168 0 .292 0 .584.167.584.125 0 .334-.25.417-.5 0-.084 0-.21.042-.293.458-.458.292-.959.208-1.46-.041-.374 0-.708.167-1h.209c0 .25.083.459.208.667.25.417.208.834 0 1.251-.083.167-.167.334-.125.542 0 .084 0 .125.083.167.084 0 .125 0 .167-.042.292-.417.667-.75.542-1.334-.042-.25 0-.5.125-.75.084-.167.209-.167.292 0 .25.416.25.875 0 1.292-.125.209-.292.375-.25.626.208 0 .334-.084.375-.25.167-.376.459-.668.417-1.085 0-.083.042-.208.084-.292.083-.166.25-.166.333 0 .167.334.25.668 0 1.001-.083.125-.125.209-.208.334 0 .041-.042.125 0 .167h.125c.292-.25.5-.209.709.083.041.042.167.042.25.083.125.042.25.042.292.209-.042.083-.125.042-.209 0a5.167 5.167 0 0 0-2.752.375c-1.709.75-2.877 1.96-3.169 3.837-.167 1.084-.083 2.168.209 3.252 0 .083 0 .25.125.25.166-.125.166-.25.083-.417-.25-.417-.208-.834.125-1.167.125-.125.167-.25.125-.417-.083-.5.125-.876.584-1.085.209-.083.292-.208.375-.375.167-.459.542-.667 1.001-.625.167 0 .25 0 .375-.125.292-.376.668-.417 1.126-.292a.533.533 0 0 0 .501 0c.375-.209.75-.167 1.084.125.125.083.25.167.375.083.417-.167.751 0 1.043.334.083.083.125.208.292.208.375 0 .708.125 1 .5.125-.667.626-1.084.793-1.75-.251.166-.459.25-.626.375-.167.083-.292.083-.292-.126v-2.001c0-.209.125-.25.292-.167.209.084.375.292.667.334-.083-.292-.25-.459-.375-.668-.083-.208-.083-.291.167-.291h2.001c.251 0 .292.083.167.292-.083.208-.292.375-.333.667.25-.167.417-.25.625-.376.292-.166.334-.125.375.167v1.835c0 .25-.083.292-.333.167-.167-.084-.334-.25-.584-.25.125.375.334.667.542.959.209.375.209.375.626.25.125-.042.25-.084.375-.084a.462.462 0 0 0 .417-.208c.25-.334.584-.417.959-.375.208 0 .375 0 .542-.125.292-.209.625-.209.959-.042.167.083.334.125.542 0 .417-.25.834-.125 1.168.208.125.126.208.167.417.167.5 0 .792.167 1.001.626.083.166.166.292.333.375.501.25.667.5.626 1.042 0 .126-.042.292.083.417.375.376.417.793.167 1.251-.084.167 0 .292.167.376.166-.459.25-.96.292-1.418.125-1.126.083-2.21-.376-3.253-.792-1.96-3.336-3.294-5.546-2.96-.083 0-.167.083-.25 0v-.042c.25-.208.626-.167.834-.5.083-.125.25 0 .334.083.083.042.166.125.333 0-.125-.083-.208-.125-.292-.208-.25-.25-.333-.543-.25-.876 0-.167.042-.459.292-.417.208 0 .208.292.25.459 0 .208 0 .458.167.625.125.167.292.292.375.459.084.125.209.208.334.208.042-.333.042-.333 0-.5a1.732 1.732 0 0 1-.209-.375c-.208-.46-.166-.876.209-1.251.292.25.292.542.25.875-.083.584.292.96.542 1.376.084.167.25.084.292-.083.083-.292 0-.5-.125-.709-.167-.375-.209-.709 0-1.084.125-.209.167-.459.167-.667h.292l-.334.166Zm-4.712 17.556c.292 0 .417.25.584.25.333.042.709.042 1.042 0 0-.208-.208-.167-.208-.292.208-.167.542-.125.834-.375-.334.042-.584 0-.792 0-.334-.084-.668-.084-1.001-.125-.876-.042-1.752-.125-2.627-.084-1.001.042-2.002-.166-3.003.25.251 0 .334.126.376.293 0 .166-.209.125-.292.208 1.501 0 3.002-.042 4.587.125-.209-.25-.542-.208-.668-.459 1.001-.333 1.168-.333 1.668-.083-.166.125-.333 0-.5.083.125.042.292 0 .417.126-.125.083-.292 0-.375.125l-.042-.042Zm5.88-4.587h-.459c-.292-.083-.375.042-.459.25-.041.167-.125.292-.083.459.083.458-.084.834-.501 1.084-.291.208-.417.792-.25 1.126.459-.375 1.585-2.252 1.752-2.919Zm-2.085-4.003a1.999 1.999 0 0 0-1.668-.542c-.709.125-1.251.5-1.918.834.166.041.25.083.375.083.333.084.667.084 1.001-.083.458-.209.917-.292 1.417-.334.251 0 .459.125.793 0v.042Zm-9.8.292c-.333-.167-.625-.334-.917-.5a2.538 2.538 0 0 0-1.126-.334c-.625-.084-1.126.125-1.626.625.542-.083 1.001-.167 1.459-.083.417.083.793.167 1.168.333.333.167.667.084 1.042-.083V21Zm-3.878 6.547c.084-.418 0-.751-.292-1.001a1.389 1.389 0 0 1-.5-1.168c0-.459-.208-.584-.667-.542-.084 0-.167 0-.209.084.251.75 1.251 2.335 1.668 2.627Zm19.724-4.921c-.042-.209.083-.417-.042-.542-.292-.292-.333-.667-.458-1.043-.459.376-.876.793-1.21 1.293.584.125 1.168-.125 1.71.292Zm-25.353 0c.24-.142.514-.214.792-.209.292 0 .542.084.876-.041-.417-.459-.751-.876-1.209-1.251-.084.417-.167.75-.417 1.042-.126.125-.084.292 0 .5l-.042-.041Zm4.837-.584s0-.292.042-.417c.208-1.25 1.126-2.043 2.418-2.043.626 0 1.168.167 1.668.459.417.208.834.458 1.293.583.167.042.375.126.584.042 0-.125-.084-.125-.167-.167a5.25 5.25 0 0 1-1.751-.667 3.192 3.192 0 0 0-3.003 0 1.63 1.63 0 0 0-.834.834c-.25.459-.292.918-.208 1.418l-.042-.042Zm15.637-.25c0-1.168-.542-1.877-1.584-2.168a3.226 3.226 0 0 0-2.627.292c-.459.25-.959.5-1.502.583-.083 0-.25 0-.291.167.208.042.375 0 .542-.042a5.784 5.784 0 0 0 1.167-.5 3.762 3.762 0 0 1 1.918-.5c1.043 0 1.877.667 2.169 1.668.041.166.041.375.167.542l.041-.042Zm-3.753 6.38c.501.167.959.125 1.46.209-.25-.209-.417-.334-.584-.46-.167-.124-.125-.25.042-.333.166-.083.333-.167.5-.208a7.41 7.41 0 0 1-1.626-.292c.375.292.417.667.167 1.084h.041Zm-8.173-.083s-.292-.417-.208-.71c0-.124-.084-.166-.167-.124l-.834.125c.083.041.125.083.208.125.251.125.251.167.042.375-.167.125-.333.292-.5.459.417.167.792-.167 1.167-.042.084 0 .209 0 .334-.167l-.042-.041Zm-10.466-2.085c0 .25.083.291.333.291.167 0 .334-.041.501-.083.167 0 .25-.083.292-.25 0-.167.083-.334-.084-.417a.71.71 0 0 1-.25-.25c-.042-.084-.125-.084-.208-.084-.209.042-.584.542-.543.793h-.041Zm28.772.291s.209 0 .25-.125c.084-.292-.291-.875-.583-.917-.084 0-.125 0-.167.084-.084.083-.125.166-.25.208-.167.083-.167.25-.125.417.041.167.166.25.333.25s.334 0 .501.042l.041.041Zm-11.676.668c-.25 0-.5.083-.75 0-.459-.042-.459 0-.459.375v.459c.042.208.25.25.459.25.167 0 .292-.084.25-.292-.083-.417.167-.625.5-.834v.042Zm-5.671 1.918c-.625-.125-1.167.125-1.709.292.083 0 .208 0 .25.042.125.083-.167.083-.042.166.084.042.167 0 .292 0 .209.042.417.084.626.167.208.084.417 0 .583-.125-.166-.167-.417-.042-.5-.25.125-.125.375-.084.5-.292Zm.834-1.793c.209.292.251.542.042.834-.042.083-.042.167.042.208.208.042.417 0 .584-.083.166-.042.083-.209.083-.334 0-.75.042-.709-.792-.584l.041-.041Zm6.088-3.67a1.2 1.2 0 0 0-.291.834c0 .292 0 .626-.209.876.209.042.375.125.584 0-.292-.209-.167-.459-.084-.709.084-.334.084-.625 0-1.042v.041Zm-7.714 1.793c.25 0 .417 0 .584-.083-.25-.167-.25-.417-.25-.667 0-.5-.042-.71-.292-.918-.084.3-.084.618 0 .918.083.25.083.459-.084.75h.042Zm-1.918 6.547c-.501 0-.918-.25-1.293-.542-.125.167-.083.334-.041.5 0 .125.125.25.25.209.375-.084.75-.042 1.084-.167Zm-1.71-.584v-.25c.084-.375.125-.375.417-.208.125.083.209.208.459.125-.125-.25-.084-.584-.375-.626-.251-.041-.459.125-.626.334-.167.208-.083.375.125.584v.041Zm7.089-7.505c.125.25.25.416.459.375.208 0 .292-.167.375-.417-.292 0-.542-.042-.876 0l.042.042Zm5.004 7.464c-.042-.292-.167-.417-.25-.584-.084-.125-.167-.167-.292-.167-.083 0-.125 0-.167.083v.126c.167.208.375.417.667.583l.042-.041Zm-6.338-.918c.292.25.584.417.875.668-.208-.626-.375-.793-.875-.668Zm-3.753-1.167c-.459 0-.542 0-.667.25 0 .083-.084.125-.042.208.042.125.167.042.25 0 .125 0 .125-.041.083-.166 0-.209.292-.125.376-.334v.042Zm-1.71-9.925s-.083-.25-.208-.25c-.125 0-.251.042-.251.209 0 .125.084.25.209.25.125 0 .208-.084.25-.209Zm3.878-.292s-.083-.208-.25-.208c-.125 0-.209.042-.25.167 0 .166.041.25.208.292.167 0 .209-.084.292-.25Zm-5.087 5.38s.25-.084.25-.25c0-.126-.083-.25-.25-.25-.167 0-.209.083-.209.25 0 .125.084.208.209.25Zm13.552-5.713s-.125-.209-.25-.167c-.125 0-.25.083-.209.25 0 .125.126.25.251.209.125 0 .208-.125.208-.292Zm-11.384-.167s-.208.083-.25.25c0 .167.083.25.208.25.126 0 .251-.041.251-.208 0-.125-.084-.209-.251-.25l.042-.042Zm-1.918 1.71s-.083-.25-.25-.209c-.125 0-.209.084-.209.209 0 .125.084.25.209.25.167 0 .208-.084.25-.25Zm-.584 1.042s-.25.084-.25.25c0 .125.042.209.167.25.125 0 .25 0 .25-.208a.313.313 0 0 0-.208-.292h.041Zm14.345 8.465s.375.084.584.084c.125 0 .208-.042.166-.209 0-.083-.041-.167-.166-.167-.126 0-.417 0-.376.084.084.25-.125.125-.208.166v.042Zm3.461-6.964s-.084-.25-.209-.25c-.125 0-.25.084-.25.25 0 .125.125.209.25.209s.209-.084.209-.209ZM212.374 20s-.042-.209-.167-.25c-.167 0-.209.083-.25.208 0 .125.041.209.166.209.167 0 .209-.084.251-.209V20Zm.375 1.25s-.084-.25-.209-.25c-.125 0-.208.084-.208.21 0 .124.042.25.208.25.125 0 .209-.084.209-.21Zm-1.293-2.21s-.083-.25-.208-.25c-.125 0-.209.084-.209.167 0 .126.042.25.209.25.166 0 .208-.083.25-.208l-.042.042ZM207.37 19s.25-.084.208-.251c0-.125-.125-.25-.25-.209-.125 0-.209.126-.209.292 0 .125.084.167.251.167Zm-12.427 3.919s.209-.084.209-.209c0-.125-.042-.25-.209-.25-.167 0-.208.084-.208.25 0 .125.083.209.208.209Zm4.087-4.378s-.084-.209-.209-.209c-.125 0-.25.042-.25.209 0 .125.083.208.209.208.125 0 .25-.042.25-.209Zm13.177 5.087s-.25.083-.25.208c0 .125.083.209.208.209.125 0 .25-.084.25-.209 0-.125-.083-.208-.208-.208Zm-2.002-5.13s-.042-.166-.208-.208c-.125 0-.209.084-.209.209 0 .167.084.25.209.25.125 0 .208-.083.208-.25Zm-8.548 12.135c-.042-.5-.084-.542-.751-.542.334.125.542.334.751.542Zm-.125-11.217s-.042-.208-.167-.208-.209.083-.209.208c0 .125 0 .209.167.25.167 0 .209-.125.25-.25h-.041Zm-4.837 5.588c.083-.209.166-.334.166-.542-.5.083-.5.125-.166.542Zm9.549-5.421s.208-.125.167-.25c0-.125-.084-.209-.209-.209-.125 0-.167.084-.167.167 0 .125.042.25.209.25v.042Z" data-color="1"></path>
            <path fill="#ffffff" d="M206.411 48.98c.417-.083.751.084 1.042.417.209.209.292.209.459-.041.084-.167.084-.292.084-.459 0-.25.041-.292.291-.25.334.083.584.292.751.625.083.125.125.209.167.376.125-.126.167-.292.25-.417.083-.126.209-.126.334-.042.25.208.333.459.375.75v.292c0 .167.083.209.208.209.126 0 .126-.084.167-.167.125-.292.167-.292.376-.083.083.083.208.166.25.292.167.375.458.709.75 1 .126-.083.126-.208.167-.333.084-.209.167-.25.334-.084.25.25.375.584.375.96.084-.084.125-.084.125-.126.084-.083.042-.291.209-.25.167 0 .25.167.292.334.041.208.083.417.125.584.208.083.25-.167.458-.167.209.125 0 .375.167.584.245-.134.458-.32.626-.542.083-.084.125-.25.292-.209.166 0 .166.209.208.334.125.5 0 .959-.208 1.417-.125.292-.292.584-.417.876-.209.459-.542.793-.918 1.168-.167.125-.333.208-.542.167a6.206 6.206 0 0 0-.917-.084c-.167 0-.25-.083-.376-.167a1.132 1.132 0 0 0-1.417.084c.166.083.291 0 .458 0 .167 0 .292-.084.417.083 0 .167-.125.125-.208.167a9.887 9.887 0 0 0-1.918.459c-.709.25-1.46.25-2.211 0-.458-.167-.917-.292-1.417-.459-1.335-.459-2.628-.459-3.962 0-.584.209-1.168.417-1.751.542a3.08 3.08 0 0 1-1.627-.042c-.834-.25-1.626-.5-2.502-.542-.333 0-.417-.125-.459-.5-.166-1.084.126-2.085.543-3.044.458-1.001.959-1.919 1.417-2.92 1.001-2.293 1.752-4.67 2.169-7.13l.125-.96c0-.25 0-.5-.042-.75-.125-.375-.208-.417-.542-.292-.125.042-.25.125-.417.125-.625 0-1.167.292-1.751.584a4.96 4.96 0 0 1-.834.334c-.251.083-.334 0-.334-.25s.167-.417.334-.543c.125-.125.292-.208.417-.291.374-.24.665-.59.834-1.001.208-.5.5-.918 1.042-1.126.834-.376 1.543-.167 2.044.542.375.5.5 1.126.625 1.751.209 1.21-.042 2.419-.25 3.628-.417 2.377-1.126 4.63-1.835 6.923-.208.667-.417 1.292-.5 1.96-.042.333 0 .667.125.959.333.834 1.334 1 1.918.375.167-.209.334-.417.459-.667.25-.417.542-.834.834-1.251.834-1.168 1.96-1.96 3.336-2.419l.75-.25c.542-.209.668-.375.626-.96v-.083Zm5.087 5.547a2.096 2.096 0 0 0-1.584.166.704.704 0 0 1-.417.126c-.501 0-.918.291-1.376.542.417.208.834.292 1.167.083.459-.25.918-.334 1.418-.334 0-.083-.167-.083-.167-.166 0-.126.084-.126.167-.126h.5c-.125-.083-.166-.083-.208-.125 0-.083 0-.125.083-.125.125 0 .251 0 .376-.041h.041Zm-5.212-3.17c-.25-.083-.542-.125-.793 0-.375.209-.792.376-1.167.584-.375.209-.667.5-.959.834-.167.167-.334.376-.584.459a.969.969 0 0 0-.459.459c.292-.167.459-.292.667-.376.251-.125.251-.083.459-.458 0 0 0-.042.042-.084.125-.125.292-.208.5-.292.25-.083.125-.375.376-.458a4.48 4.48 0 0 0 1.209-.543c.208-.125.5-.041.75-.125h-.041Zm-8.132-12.301s-.208.083-.208.208c0 .125.041.209.166.209.126 0 .209-.084.209-.209 0-.125-.042-.208-.167-.25v.042Z" data-color="1"></path>
            <path fill="#ffffff" d="M202.699 29.048c.501-.292.959-.376 1.502-.25l-.084.25v.083c-.042.084 0 .125.084.209-.543.125-1.001 0-1.502-.25v-.042Z" data-color="1"></path>
        </g>
        <defs fill="none">
            <clipPath id="a03ebb2d-33cb-48c7-84b1-fdf7ff020f5e_comp-mi3wcuyd4">
                <path fill="#ffffff" d="M407.2 0v85.2H0V0h407.2z"></path>
            </clipPath>
        </defs>
    </g>
</svg>