<svg preserveAspectRatio="xMidYMid meet" data-bbox="0 0.001 85.27 31.055" xmlns="http://www.w3.org/2000/svg" viewBox="0 0.001 85.27 31.055" height="32" width="86" data-type="color" role="presentation" aria-hidden="true" aria-label="">
    <g>
        <path fill="#ffffff" d="M31.976 19.938c-.627.126-1.17.167-1.713.25l-2.174.252-1.003.125c-.836.084-1.672.21-2.55.293-.752.041-1.463.209-2.174.25-.334 0-.334.042-.292.377l.125 1.505c.042.46.126.877.168 1.337a8.8 8.8 0 0 1 .083 1.045c.084.794.21 1.547.25 2.34.043.753.168 1.464.252 2.174.041.377 0 .753.041 1.17-.334-.292-.71-.585-1.044-.919l-5.602-5.601c-.083-.084-.209-.167-.292-.293-.126-.125-.21-.125-.335 0l-.292.293-6.103 6.103c-.125.125-.25.334-.501.334l7.147-15.466L0 19.938c.25-.293 2.675-1.839 4.138-2.717 1.421-.836 2.8-1.755 4.222-2.675-1.756-2.842-3.511-5.643-5.31-8.526.586.167 1.045.293 1.463.46 1.17.418 2.341.836 3.511 1.212 1.338.46 2.675.961 4.055 1.421.042 0 .125 0 .209.042.209.084.334 0 .376-.167.126-.376.293-.794.418-1.17.502-1.38.961-2.801 1.463-4.18.418-1.17.836-2.383 1.296-3.553 0-.042 0-.084.125-.084.126 0 .167.167.167.25l1.129 3.136c.627 1.755 1.212 3.51 1.84 5.266.208.627.208.627.877.377 1.88-.627 3.762-1.296 5.643-1.965.92-.334 1.797-.627 2.717-.92.125-.041.25-.083.418-.041-1.756 2.8-3.47 5.6-5.225 8.401 2.8 1.798 5.6 3.553 8.443 5.392v.042Z" data-color="1"></path>
        <path fill="#ffffff" d="m68.049 17.514-.377 2.173c-.041.293-.209.46-.501.46-.335 0-.418-.167-.46-.46-.125-.836-.292-1.672-.418-2.508l-.25-1.42c0-.168-.042-.293-.042-.46 0-.251-.084-.544.334-.586.334 0 .502.084.585.46.084.46.126.92.167 1.38 0 .166 0 .375.21.543.083-.46.166-.878.208-1.296 0-.25.126-.502.168-.752 0-.21.125-.335.334-.335.25 0 .46.084.543.335.126.376.084.752.21 1.128.125.376.166.794.25 1.212.084-.752.25-1.504.376-2.257.084-.376.21-.46.585-.376.21.042.335.167.293.418a57.122 57.122 0 0 0-.418 2.633c-.084.544-.167 1.129-.293 1.672 0 .084 0 .21-.083.293-.084.209-.167.334-.46.376-.293 0-.46-.125-.502-.376-.083-.418-.167-.836-.209-1.296 0-.376-.167-.669-.25-1.003v.042Z" data-color="1"></path>
        <path fill="#ffffff" d="M72.145 11.077v-1.63c0-.293.126-.46.418-.418.543.041 1.087-.168 1.588.167.168.125.293 0 .418-.084.878-.292 1.421.042 1.463.961v2.634c0 .25 0 .46-.376.46-.334 0-.418-.084-.418-.46v-2.09c0-.25 0-.46-.167-.669-.084-.125-.293-.125-.376 0-.126.21-.084.418-.084.585v2.09c0 .293-.125.502-.418.543-.334 0-.501-.083-.501-.418v-2.173c0-.209 0-.418-.084-.627a.285.285 0 0 0-.25-.167.282.282 0 0 0-.252.167 2.117 2.117 0 0 0-.083.543v2.258c0 .292-.21.417-.46.417-.293 0-.418-.167-.46-.418v-1.713l.042.042Z" data-color="1"></path>
        <path fill="#ffffff" d="M45.603 9.823c-.418.25-.46.585-.46.961v2.006c0 .293-.084.46-.376.46-.293 0-.418-.125-.418-.418V9.53c0-.376.125-.501.46-.418.501.126 1.086-.25 1.546.167.084.084.167-.041.25-.083.753-.293 1.213-.084 1.464.71.041.168.125.335.125.544v2.257c0 .292-.042.501-.376.585-.376.084-.543-.042-.543-.418V10.7c0-.25.125-.71-.251-.668-.376 0-.376.418-.335.752v1.923c0 .501-.083.585-.376.585-.418 0-.543-.126-.543-.627v-1.923c0-.25.042-.501-.126-.836l-.041-.083Z" data-color="1"></path>
        <path fill="#ffffff" d="M70.766 9.864c-.418.084-.46.418-.46.753v2.173c0 .251-.084.418-.334.418-.251 0-.46-.042-.46-.376v-2.09c0-.25 0-.501-.126-.752-.041-.084-.083-.126-.167-.126a.282.282 0 0 0-.25.168c-.084.209-.042.418-.042.627v2.006c0 .418-.126.543-.502.543-.293 0-.46-.083-.46-.376V9.447c0-.293.167-.46.46-.377.543.126 1.129-.25 1.63.21.042.041.25-.084.418-.126.627-.209 1.087.042 1.296.71 0 .126.083.251.083.377v2.633c0 .25-.041.418-.334.418-.293 0-.543 0-.585-.376V10.45c0-.167.042-.377-.167-.502v-.084Z" data-color="1"></path>
        <path fill="#ffffff" d="M48.487 10.45V8.193c0-.377.083-.418.46-.46.334 0 .501.125.46.46v.376c0 .25.083.418.334.376.71-.042 1.045.418 1.128 1.003.126.794.21 1.63-.083 2.424-.21.627-.544.794-1.17.669-.21-.042-.419 0-.586 0-.46.042-.543 0-.543-.46v-2.257.126Zm1.295-.627c-.626.585-.334 1.295-.376 1.964 0 .293.126.46.418.543.502-.96.46-1.671-.041-2.507Z" data-color="1"></path>
        <path fill="#ffffff" d="M44.181 17.555v2.09c0 .502 0 .544-.501.544h-.544c-.92.209-1.295-.502-1.42-1.338-.084-.501 0-1.045 0-1.546 0-.168.083-.335.125-.502.167-.501.418-.836.961-.794.334 0 .46-.167.46-.46v-.292c0-.293.167-.46.501-.46.293 0 .418.083.418.418v2.382-.042Zm-1.337-.71c-.502.878-.502 1.755 0 2.466.376-.502.46-.961.376-1.88 0-.294-.125-.503-.418-.586h.042Z" data-color="1"></path>
        <path fill="#ffffff" d="M52.667 17.514v2.173c0 .46 0 .502-.46.502h-.544c-.877 0-1.295-.21-1.42-1.045-.126-.794-.168-1.588.125-2.34.167-.46.418-.837 1.003-.795.334 0 .376-.167.376-.418v-.376c0-.335.25-.418.543-.418.293 0 .377.167.377.46v2.298-.041Zm-1.296-.67c-.585.753-.376 1.506-.21 2.3 0 .083.084.125.126.167.126.042.168-.042.251-.125.25-.251.25-.67.25-.962 0-.46.084-1.045-.417-1.38Z" data-color="1"></path>
        <path fill="#ffffff" d="M39.834 11.578v1.254c0 .25-.083.376-.376.376-.25 0-.46 0-.543-.334V8.402c0-.502.167-.627.585-.627.21 0 .334.125.334.334v.25c0 .628 0 .628.627.67.377 0 .586.167.71.501.084.25.21.543.21.794v2.3c0 .417-.167.542-.46.542-.292 0-.46-.167-.46-.585v-2.215c0-.25 0-.543-.334-.502-.293 0-.293.335-.293.544v1.17Z" data-color="1"></path>
        <path fill="#ffffff" d="M70.055 20.105c.167-1.296.502-2.55.752-3.803l.251-1.213c.042-.292.251-.334.502-.376.292 0 .418.126.46.418.041.293.125.544.167.836.25 1.254.501 2.508.794 3.762 0 .209.084.376-.167.418-.335.083-.67 0-.71-.25a13.457 13.457 0 0 0-.126-.586c-.084-.25-.21-.376-.502-.376-.25 0-.418.125-.46.418v.167c-.125.669-.167.71-1.003.627l.042-.042Zm1.588-3.01c-.209.293-.334.544-.125.92.209-.292.125-.543.125-.92Z" data-color="1"></path>
        <path fill="#ffffff" d="M55.593 18.14v1.464c0 .543 0 .543-.586.543h-.71c-.71 0-1.129-.25-1.17-1.003-.084-.961 0-1.881 0-2.842 0-.335.25-.335.501-.335.25 0 .418.042.418.335v2.466c0 .209 0 .543.293.543.25 0 .292-.293.292-.543V16.51c0-.251 0-.544.376-.544.377 0 .544.126.586.544v1.63Z" data-color="1"></path>
        <path fill="#ffffff" d="M47.4 18.057v-1.63c0-.293.084-.502.418-.46h1.003c.46 0 .753.21.878.669.083.293.167.543.167.836v2.215c0 .334-.167.46-.46.46-.334 0-.46-.125-.46-.46v-2.466c0-.209 0-.46-.334-.418-.25 0-.292.251-.292.46v2.466c0 .376-.126.418-.502.418-.293 0-.418-.084-.418-.418v-1.714.042Z" data-color="1"></path>
        <path fill="#ffffff" d="M38.915 18.057v-1.63c0-.376.084-.502.46-.46h.836c.585-.042.877.21 1.044.794.084.335.168.711.168 1.045v1.84c0 .334-.084.46-.46.46-.418 0-.502-.084-.502-.502V17.22c0-.209 0-.46-.292-.46-.251 0-.293.251-.293.46v2.383c0 .418-.083.501-.501.501-.293 0-.418-.125-.418-.418v-1.713l-.042.083Z" data-color="1"></path>
        <path fill="#ffffff" d="M43.011 10.324c-.195-.362-.599-.46-1.212-.292-.167-.753-.125-.878.543-1.003.92-.168 1.505.292 1.505 1.254v2.382c0 .502-.084.585-.585.543h-.46c-.752.084-1.087-.167-1.254-.877-.209-.962.251-1.714 1.254-1.881.084 0 .126-.042.21-.084v-.042Zm.042 1.421v-.167c0-.167-.084-.292-.25-.334a.286.286 0 0 0-.293.292v.544c0 .125.083.25.209.25.083 0 .167-.083.25-.167.126-.125.126-.292.126-.418h-.042Z" data-color="1"></path>
        <path fill="#ffffff" d="M37.745 17.346c-.223-.418-.613-.529-1.17-.334-.293-.71-.126-1.003.626-1.045.836-.042 1.38.418 1.421 1.254v2.383c0 .501-.083.585-.543.501h-.669a.982.982 0 0 1-.878-.334c-.71-.878-.167-2.257.962-2.425.083 0 .167 0 .292-.041l-.041.041Zm.041 1.254c0-.25-.167-.46-.376-.376-.25.084-.418.376-.376.71 0 .168.084.419.293.419.334 0 .334-.335.418-.585V18.6h.041Z" data-color="1"></path>
        <path fill="#ffffff" d="M58.351 9.029c.335 0 .67.167.878.585.46 1.003.502 2.048 0 3.01-.376.71-1.254.793-1.797.124-.627-.794-.585-2.59 0-3.343.25-.335.418-.418.878-.418l.041.042Zm0 3.385c.46-.836.377-1.588.084-2.382-.042-.126-.167-.167-.293-.042-.125.125-.209.209-.209.376v1.547c0 .209.126.376.46.501h-.042Z" data-color="1"></path>
        <path fill="#ffffff" d="M78.582 12.205c.084.293.209.585-.084.836-.334.293-.794.293-1.17.125a1.35 1.35 0 0 1-.878-1.003c-.209-.752-.167-1.463 0-2.173.126-.418.335-.752.753-.92.501-.209 1.086.084 1.295.67.168.459.293.919.251 1.42 0 .251-.125.376-.376.376h-.92c-.209 0-.25.168-.209.335.084.418.418.585.795.46.125-.042.25-.168.46-.126h.083Zm-.961-2.34c-.251.167-.376.334-.335.585 0 .167.084.25.251.25.167 0 .334 0 .334-.208a.814.814 0 0 0-.25-.627Z" data-color="1"></path>
        <path fill="#ffffff" d="M82.804 11.035c0-.585 0-1.17.46-1.672.46-.543 1.295-.585 1.713.209.251.502.21 1.045.293 1.546 0 .21-.126.335-.334.335h-.753c-.334 0-.46.125-.418.376.084.334.335.502.585.418.084 0 .126-.084.21-.084.166-.083.376-.25.543 0 .167.251 0 .669-.21.794-.96.418-1.797 0-2.047-1.254-.042-.25 0-.501 0-.752l-.042.084Zm1.128-1.212s-.125.167-.167.25a2.46 2.46 0 0 0-.083.586c.585 0 .585 0 .626-.126.084-.334-.041-.543-.376-.71Z" data-color="1"></path>
        <path fill="#ffffff" d="M63.116 17.89c.126-.46.21-.878.335-1.296.167-.627.167-.627.92-.543-.042.627-.21 1.254-.377 1.839l-.627 2.675c-.083.334-.209.501-.543.501-.293 0-.46-.125-.376-.418.292-.752 0-1.462-.126-2.173a30.803 30.803 0 0 0-.46-1.88c-.083-.252-.209-.502.21-.628.376-.083.543.042.668.46.126.46.126.961.376 1.463Z" data-color="1"></path>
        <path fill="#ffffff" d="M67.672 11.16c.084.544-.083 1.045-.376 1.547-.376.585-1.087.668-1.546.167a.986.986 0 0 1-.251-.376c-.46-.92-.418-1.84-.084-2.759.168-.418.502-.794 1.045-.752.544 0 .836.376 1.045.794.21.376.21.836.167 1.337v.042Zm-1.254-1.379c-.626 1.087-.585 2.006.084 2.591.418-.877.544-1.671-.084-2.591Z" data-color="1"></path>
        <path fill="#ffffff" d="M52.123 11.495c-.041.334.084.46.168.627.167.25.376.334.668.167.21-.126.418-.251.585.042.126.292.042.543-.25.71a1.34 1.34 0 0 1-1.84-.585 3.917 3.917 0 0 1 0-2.759c.168-.46.544-.668 1.004-.668.46 0 .668.292.877.627.293.501.251 1.044.21 1.588 0 .25-.168.292-.377.292h-1.087l.042-.041Zm.71-.878c-.208-.25-.083-.585-.417-.753-.25.21-.25.502-.334.753.209.125.417.125.752 0Z" data-color="1"></path>
        <path fill="#ffffff" d="M38.539 12.163c.125.836-.21 1.212-1.004 1.003-.585-.125-.877-.627-1.044-1.128-.251-.961-.335-1.923 0-2.884.125-.46.334-.878.752-1.129.292-.209.585-.292.92-.167.417.167.501.21.46.669 0 .25-.084.376-.377.334-.585-.083-.585-.083-.794.418a3.804 3.804 0 0 0 0 2.633c.125.377.376.418 1.087.293v-.042Z" data-color="1"></path>
        <path fill="#ffffff" d="M64.997 8.778h-.418c-.292-.084-.501 0-.627.292-.418.92-.418 1.84-.083 2.759.083.334.376.501.71.418.126 0 .251-.084.377-.084.083.335.209.627-.084.878-.293.25-.669.209-1.003.084a1.38 1.38 0 0 1-.836-.836 5.155 5.155 0 0 1-.126-3.177c.084-.25.21-.46.335-.669.125-.209.334-.376.585-.501.334-.167.71-.21 1.003.042.293.25.167.543.084.835l.083-.041Z" data-color="1"></path>
        <path fill="#ffffff" d="M56.01 19.144c.252 0 .377.125.544.167.167.084.334.084.46-.125.125-.21 0-.335-.126-.46a4.853 4.853 0 0 1-.835-1.003c-.21-.418-.251-.878 0-1.254.209-.376.627-.502 1.044-.502.627 0 .753.21.627 1.003-.209 0-.418-.083-.585-.125-.125-.042-.25 0-.334.125-.084.126 0 .251.042.335.209.25.501.46.668.752l.251.376c.251.502.251 1.129-.083 1.421-.377.377-.878.377-1.38.251-.418-.125-.418-.25-.292-.961Z" data-color="1"></path>
        <path fill="#ffffff" d="M59.94 11.495V10.49c0-.125.042-.292 0-.376-.46-.501-.167-1.003 0-1.504.125-.418.376-.67.752-.795.334-.125.627 0 .627.21 0 .25.293.668-.334.626-.126 0-.167.126-.167.251 0 .167.125.125.209.125.25 0 .292.168.292.377s0 .376-.25.418c-.377 0-.335.292-.335.543v2.382c0 .21 0 .418-.293.46-.334.042-.501-.083-.501-.418v-1.295Z" data-color="1"></path>
        <path fill="#ffffff" d="M58.393 18.224V17.18c.042-.334-.376-.46-.334-.836 0-.334.418-.46.334-.836-.083-.25.042-.46.376-.46.293 0 .418.126.418.419 0 .25 0 .501.377.543.209 0 .209.167.25.334 0 .168 0 .377-.25.418-.251 0-.377.126-.377.377v1.755c0 .167 0 .418.293.376.334-.042.334.126.334.376 0 .251-.083.46-.376.502-.501.125-.961-.21-1.045-.752v-1.17Z" data-color="1"></path>
        <path fill="#ffffff" d="M82.637 10.032c-.67-.168-.92 0-1.045.543a2.76 2.76 0 0 0 0 1.17c.125.544.376.67.961.502 0 0 .084.084.084.125 0 .335.125.71-.293.836-.376.126-.961 0-1.17-.376a2.88 2.88 0 0 1-.46-1.923c.042-.585.125-1.253.71-1.63.21-.125.377-.25.627-.25.502 0 .627.125.67.627v.376h-.084Z" data-color="1"></path>
        <path fill="#ffffff" d="M53.92 11.035V9.488c0-.46.042-.46.502-.501h.753c.167 0 .376 0 .418.25 0 .251.041.544-.21.628-.668.167-.585.627-.585 1.086v1.714c0 .418-.167.543-.501.543-.334 0-.418-.209-.418-.543v-1.63h.042Z" data-color="1"></path>
        <path fill="#ffffff" d="M46.146 17.472v-2.257c0-.251 0-.46.376-.46.335 0 .418.084.418.46v4.472c0 .25 0 .46-.376.46-.334 0-.418-.084-.418-.46V17.43v.042Z" data-color="1"></path>
        <path fill="#ffffff" d="M79.084 11.118V9.405c0-.293.167-.418.418-.418.209 0 .376.125.585.042.209-.084.46-.126.501.167.042.25.168.585-.209.71-.46.167-.501.544-.543.92v1.922c0 .21-.042.335-.292.377-.335.041-.502-.042-.502-.377v-1.713l.042.083Z" data-color="1"></path>
        <path fill="#ffffff" d="M60.065 18.099v-1.714c0-.292.126-.418.418-.418.21 0 .376.126.585.042.21-.084.418-.125.502.167.125.293 0 .585-.293.753-.376.167-.46.46-.46.794v2.006c0 .25-.083.418-.334.418-.25 0-.46-.042-.46-.376v-1.714l.042.042Z" data-color="1"></path>
        <path fill="#ffffff" d="M15.716 15.758 9.07 30.136l.836-8.902v-.126H9.78L.752 19.896l15.005-4.138m.251-.209L0 19.938l9.78 1.254-.92 9.78 7.148-15.465v.042Z" data-color="1"></path>
        <path fill="#ffffff" d="m15.883 15.482.088.096-6.19 5.676-.084-.091 6.195-5.68h-.009Z" data-color="1"></path>
    </g>
</svg>