<svg preserveAspectRatio="xMidYMid meet" data-bbox="0 20.949 85.231 43.329" xmlns="http://www.w3.org/2000/svg" viewBox="0 20.949 85.231 43.329" height="86" width="86" data-type="color" role="presentation" aria-hidden="true" aria-label="">
    <g>
        <path fill="#ffffff" d="M.084 42.364c.375-.375.71-.751 1.085-1.127.585-.627 1.128-1.253 1.712-1.88.126-.124.21-.124.293 0 .125.126.25.21.334.335.083.083.167.083.292.042a29.65 29.65 0 0 0 4.176-2.464 31.753 31.753 0 0 0 3.884-3.216c2.255-2.213 4.134-4.677 5.595-7.475.46-.876.877-1.795 1.295-2.714.083-.167.083-.334 0-.46-.084-.124-.125-.25-.209-.375-.084-.125-.042-.209.084-.25l2.255-1.128c.459-.209.876-.418 1.336-.668.125-.084.209 0 .25.083a42.572 42.572 0 0 1 1.67 4.01c.627 1.878 1.128 3.8 1.42 5.72.168 1.002.251 2.046.334 3.09.084 1.211.084 2.422.042 3.633a32.949 32.949 0 0 1-1.378 8.31c-.292.96-.626 1.963-1.002 2.882-.042.125-.125.167-.25.125-1.253-.501-2.506-.96-3.759-1.462-.125-.041-.167-.125-.083-.25a28.943 28.943 0 0 0 2.004-9.145c.042-.794.084-1.587.042-2.339 0-1.42-.125-2.84-.376-4.26a22.189 22.189 0 0 0-.292-1.628c0-.042 0-.125-.084-.167-.167.293-.334.543-.5.794a37.397 37.397 0 0 1-4.427 5.804 35.644 35.644 0 0 1-8.812 6.765c-.334.167-.334.167-.083.46a34.703 34.703 0 0 1 4.802 7.892c.71 1.628 1.336 3.34 1.754 5.094.042.21.084.25.25.126a35.694 35.694 0 0 1 8.018-3.675 32.317 32.317 0 0 1 5.554-1.253c.126 0 .167 0 .21.167.166 1.295.375 2.631.542 3.925 0 .126 0 .21-.167.21-2.005.292-3.967.751-5.846 1.42-3.717 1.294-7.057 3.256-10.022 5.845-2.965 2.59-.126-.125-.167-.167l-2.673-2.672-.084-.084c-.083-.083-.125-.167 0-.25a3.75 3.75 0 0 0 .418-.376c.125-.084.125-.209.125-.334a30.15 30.15 0 0 0-6.681-13.739C2.046 44.452 1.085 43.45 0 42.531v-.083l.084-.084Z" data-color="1"></path>
        <path fill="#ffffff" d="M34.493 37.604c-1.754 0-3.007-.5-4.05-1.545a4.933 4.933 0 0 1-1.295-2.589 5.694 5.694 0 0 1 .25-3.132c.669-1.67 1.921-2.715 3.675-3.049 1.545-.292 3.007-.041 4.343.836.418.292.502.543.21 1.002v.042c-.335.543-.544.584-1.087.25a4.217 4.217 0 0 0-2.463-.668c-1.754.084-2.966 1.211-3.216 2.798-.209 1.211 0 2.339.793 3.341.585.752 1.379 1.127 2.339 1.211 1.044.084 2.005-.25 2.84-.877.167-.125.376-.292.626-.209.25.084.627.585.627.835 0 .251-.126.418-.293.543a5.641 5.641 0 0 1-1.92 1.003c-.544.167-1.087.25-1.379.25v-.042Z" data-color="1"></path>
        <path fill="#ffffff" d="M47.856 32.384v-4.426c0-.46.209-.627.626-.627h4.427c.417 0 .626.209.626.627 0 .71-.167.877-.835.877h-3.007c-.167 0-.25.041-.25.25v2.506c0 .167.041.209.209.209h2.547c.46 0 .668.208.668.668 0 .668-.167.835-.835.835H49.61c-.167 0-.21.042-.21.209v3.383c0 .417-.208.626-.625.626h-.418c-.418 0-.585-.209-.585-.627v-4.468l.084-.042Z" data-color="1"></path>
        <path fill="#ffffff" d="M41.76 32.927v-3.884c0-.25 0-.25-.251-.25h-2.464c-.502 0-.669-.209-.71-.71 0-.543.125-.794.793-.794h6.974c.46 0 .627.167.669.669 0 .71-.251.835-.836.835H43.68c-.167 0-.25.083-.25.25v7.81c0 .417-.251.584-.669.584h-.376c-.417 0-.626-.208-.626-.626v-3.884Z" data-color="1"></path>
        <path fill="#ffffff" d="M32.78 40.11c.836 0 1.546.166 2.172.584.293.209.335.376.168.668-.293.501-.376.501-.877.25a2.568 2.568 0 0 0-1.212-.375c-1.002 0-1.879.417-2.213 1.462-.292.877-.167 1.712.46 2.422.334.417.835.668 1.378.71a2.74 2.74 0 0 0 1.795-.502c.376-.25.502-.208.752.126 0 .042.084.083.125.167.167.25.126.417-.083.584-.585.46-1.253.752-2.005.794a3.375 3.375 0 0 1-2.63-.794 3.199 3.199 0 0 1-1.086-2.004c-.168-.96 0-1.837.5-2.631.669-1.002 1.671-1.462 2.799-1.462h-.042Z" data-color="1"></path>
        <path fill="#ffffff" d="M60.091 55.018s-.125.167-.167.208c-.5.502-1.085.543-1.754.376a1.938 1.938 0 0 1-1.21-1.002 2.965 2.965 0 0 1 0-2.59c.333-.626.876-.96 1.586-1.002.585 0 1.128.126 1.504.627.041-.418.208-.543.668-.46.125 0 .208.126.208.251v4.093c0 .584-.166 1.127-.626 1.545-.334.334-.752.46-1.21.543-.586.083-1.129 0-1.671-.167-.126-.042-.293-.084-.293-.293 0-.167.042-.375.21-.5.124-.084.25-.042.375 0 .376.125.793.208 1.211.166.752-.125 1.086-.5 1.128-1.253v-.542h.041Zm0-1.67v-.502a1.156 1.156 0 0 0-.918-1.002c-.543-.084-1.086.083-1.295.543-.334.71-.334 1.378.125 2.046.418.626 1.629.668 2.005-.209a2.25 2.25 0 0 0 .167-.919l-.084.042Z" data-color="1"></path>
        <path fill="#ffffff" d="M38.46 41.989c1.044 0 2.172.626 2.548 1.712A2.52 2.52 0 0 1 39.003 47c-.835.125-1.587 0-2.213-.543a2.489 2.489 0 0 1 .584-4.218c.35-.17.74-.241 1.128-.209l-.042-.041Zm-1.378 2.505a1.402 1.402 0 0 0 1.921 1.378c.46-.167.877-.668.835-1.461 0-.877-.877-1.546-1.754-1.337-.626.167-1.044.71-1.044 1.42h.042Z" data-color="1"></path>
        <path fill="#ffffff" d="M77.296 41.989c1.086.041 1.963.459 2.422 1.503.626 1.378 0 3.007-1.629 3.424-1.085.293-2.088.084-2.84-.793a2.496 2.496 0 0 1 1.337-4.051c.25-.042.501-.084.752-.084h-.042Zm0 1.085c-.668 0-1.378.46-1.378 1.462 0 .919.668 1.462 1.378 1.462.835 0 1.42-.627 1.42-1.462s-.585-1.462-1.378-1.462h-.042Z" data-color="1"></path>
        <path fill="#ffffff" d="M61.887 46.123c-.334.501-.794.752-1.336.835-.376.042-.752 0-1.128-.167a1.386 1.386 0 0 1-.793-1.211c-.084-.543 0-1.086 0-1.587v-1.462c0-.375.125-.5.5-.5h.293c.334 0 .46.125.46.459v2.505c0 .794.459 1.044 1.21.752.502-.209.71-.668.794-1.17.084-.667 0-1.336 0-2.004 0-.376.084-.501.46-.501h.375c.209 0 .292.125.334.292v4.051c0 .334-.125.46-.5.46-.669 0-.669 0-.71-.669v-.083h.041Z" data-color="1"></path>
        <path fill="#ffffff" d="M43.137 42.824c.25-.293.501-.543.877-.668a1.95 1.95 0 0 1 1.67 0c.585.25.794.751.836 1.336v3.049c0 .208-.126.334-.334.375h-.543c-.167 0-.293-.125-.334-.292v-2.547c0-.21 0-.376-.084-.585-.083-.209-.25-.334-.501-.376-.668-.042-1.17.292-1.42.96-.083.251-.083.502-.083.71v1.671c0 .292-.126.418-.418.418h-.418c-.208 0-.375-.126-.375-.376v-4.093c0-.25.125-.376.375-.376h.418c.209 0 .334.126.376.376v.376l-.042.042Z" data-color="1"></path>
        <path fill="#ffffff" d="M81.931 42.824a1.923 1.923 0 0 1 1.295-.835c.376-.042.71-.042 1.085.083.585.209.836.627.92 1.211v3.174c0 .334-.126.46-.46.46h-.334c-.334 0-.46-.126-.46-.46v-2.673c-.083-.543-.292-.751-1.002-.626-.543.083-.96.585-1.044 1.211v2.13c0 .292-.125.417-.418.417h-.417c-.25 0-.376-.125-.376-.375v-4.093c0-.25.125-.376.376-.376h.376c.25 0 .376.125.417.376v.376h.042Z" data-color="1"></path>
        <path fill="#ffffff" d="M82.683 51.677v-1.754c0-.543 0-.585.585-.585.25 0 .334.125.334.334v5.722c0 .25-.084.334-.334.334-.502 0-.543 0-.543-.502v-.167c-.126.168-.25.335-.418.418-.793.585-1.963.418-2.59-.334-.71-.877-.71-2.547 0-3.425.67-.793 1.88-.96 2.632-.334.083.084.209.167.292.251l.042.042Zm0 1.795c0-.25 0-.5-.125-.751-.21-.501-.543-.835-1.086-.877-.46 0-.877.167-1.086.584-.376.669-.376 1.379.042 2.047.501.751 1.629.71 2.046-.084.167-.292.209-.626.209-.96v.041Z" data-color="1"></path>
        <path fill="#ffffff" d="M63.891 44.494c0-1.461 1.086-2.505 2.506-2.547.543 0 1.044.125 1.545.376.334.208.376.376.167.71-.209.375-.376.375-.752.167-.918-.543-1.962-.126-2.213.835-.167.585 0 1.127.46 1.545.459.376 1.002.418 1.586.167.126-.042.25-.125.376-.209.293-.167.501-.125.668.167l.126.25c0 .168 0 .293-.126.377-1.085.835-2.798.793-3.716-.25a2.443 2.443 0 0 1-.627-1.671v.083Z" data-color="1"></path>
        <path fill="#ffffff" d="M49.276 41.989c.375 0 .793.125 1.169.292.292.125.334.334.209.584-.167.376-.334.46-.668.335-.293-.126-.585-.251-.92-.21h-.124c-.251.043-.418.168-.46.377 0 .208.042.334.293.459.25.125.542.209.793.292.376.126.71.293.96.585.418.501.376 1.503-.25 1.921-.501.376-1.086.418-1.67.376-.418 0-.836-.209-1.17-.46-.292-.167-.292-.334-.125-.626 0-.042.042-.084.083-.125.126-.209.293-.25.502-.126.167.084.292.168.459.21.292.125.585.166.877.125.209-.042.376-.167.376-.334 0-.21 0-.335-.25-.46-.293-.167-.585-.25-.878-.334a1.845 1.845 0 0 1-.96-.626c-.418-.543-.334-1.379.209-1.796.417-.334.918-.46 1.503-.46h.042Z" data-color="1"></path>
        <path fill="#ffffff" d="M40.005 55.101c-.292.376-.668.668-1.127.752-.752.125-1.462-.167-1.754-.794a1.324 1.324 0 0 1 .46-1.67 2.631 2.631 0 0 1 1.252-.418c.334 0 .626-.042.96-.083.126 0 .168-.042.168-.167 0-.668-.46-.92-1.086-.877-.293 0-.543.125-.836.25-.334.167-.626-.083-.626-.417 0-.126.084-.21.167-.251.71-.376 1.504-.543 2.297-.25.626.208.96.71 1.002 1.336.084.96 0 1.963 0 2.923 0 .25-.083.334-.334.334h-.209c-.209 0-.292-.083-.292-.292V55.1h-.042Zm-.376-1.545h-.584c-.293.042-.585.083-.877.292-.293.209-.376.585-.167.919.167.292.584.46.96.334.71-.167.96-.96.96-1.462 0-.083 0-.125-.125-.125h-.208l.041.042Z" data-color="1"></path>
        <path fill="#ffffff" d="M45.058 51.927c.233-.362.589-.63 1.002-.751.46-.168.919-.168 1.378 0 .585.208.794.71.836 1.294.083 1.002 0 1.963 0 2.965 0 .292-.084.376-.376.376-.501 0-.543 0-.543-.543v-2.38c0-.794-.46-1.128-1.253-.877-.585.167-1.002.71-1.044 1.336-.084.668 0 1.378 0 2.046 0 .376-.042.418-.418.418h-.209c-.166 0-.25-.084-.292-.25v-3.884c0-.167 0-.334.167-.418a.815.815 0 0 1 .627 0c.125.042.125.167.125.292v.418-.042Z" data-color="1"></path>
        <path fill="#ffffff" d="M75.083 51.927c.376-.46.793-.793 1.378-.877.543-.083 1.085 0 1.503.418.293.334.376.751.418 1.17v2.755c0 .25-.084.334-.334.334-.543 0-.585 0-.585-.584v-2.631c-.084-.501-.46-.71-1.002-.627-.752.126-1.253.71-1.295 1.462v2.172c-.125.25-.376.125-.584.167-.167 0-.251-.084-.293-.21v-4.175c.167-.25.418-.126.627-.126.167 0 .25.126.25.293v.46h-.083Z" data-color="1"></path>
        <path fill="#ffffff" d="M52.533 52.01c.543-.75 1.253-1.043 2.13-.876.5.083.835.376 1.002.835.125.292.125.627.125.96v2.38c0 .084 0 .21-.042.293-.125.25-.375.167-.584.167-.167 0-.25-.083-.293-.209v-2.923c-.083-.543-.459-.793-1.002-.668a1.552 1.552 0 0 0-1.253 1.336c-.083.71 0 1.42 0 2.13v.25c-.125.21-.334.126-.543.126-.125 0-.25 0-.292-.125 0-.084-.042-.167-.042-.209v-3.842c0-.292.084-.376.376-.376.46 0 .543.042.543.543v.292l-.125-.083Z" data-color="1"></path>
        <path fill="#ffffff" d="M72.076 55.018c-.292.334-.585.626-1.002.751-.46.167-.96.167-1.42 0-.543-.209-.752-.668-.793-1.17-.084-1.001 0-2.045 0-3.048 0-.25.125-.334.334-.334.543 0 .584 0 .584.543v2.673c.084.376.334.626.752.626.71 0 1.294-.5 1.462-1.252v-2.214c0-.334.083-.418.417-.418h.209c.209 0 .292.084.292.293v4.05c0 .168-.083.251-.25.251-.543.042-.627 0-.627-.584v-.21l.042.043Z" data-color="1"></path>
        <path fill="#ffffff" d="M69.445 44.369v-1.044c0-.125-.042-.167-.167-.167-.167 0-.334 0-.418-.209a.814.814 0 0 1 0-.626c.084-.126.21-.126.376-.126.25 0 .25 0 .25-.25v-.752c0-.292.126-.376.418-.376h.376c.293 0 .418.126.418.418v.71c0 .167.084.25.25.25h.502c.167 0 .292.084.334.293v.334c0 .25-.167.376-.418.376h-.501c-.125 0-.209.041-.209.208v1.713c0 .5.25.751.71.793.376.042.418.125.418.501v.25c0 .21-.126.335-.334.335-.669.084-1.504-.125-1.88-.919a1.374 1.374 0 0 1-.167-.71v-.96l.042-.042Z" data-color="1"></path>
        <path fill="#ffffff" d="M53.243 41.571v.418c0 .125 0 .167.167.167h.585c.208 0 .334.125.334.334 0 .543-.042.626-.627.626-.306 0-.46.153-.46.46v1.294c0 .167 0 .334.084.501.126.293.376.376.669.418.292 0 .375.125.417.417v.168c0 .417-.125.542-.543.542-.668 0-1.253-.208-1.629-.835-.184-.3-.272-.65-.25-1.002v-1.712c0-.167 0-.25-.209-.25-.292 0-.417-.126-.417-.418v-.167c0-.251.125-.376.375-.376.167 0 .25-.084.25-.25v-.669c0-.334.126-.46.46-.46h.418c.209 0 .334.126.334.335v.417l.042.042Z" data-color="1"></path>
        <path fill="#ffffff" d="M64.685 52.554v-2.798c0-.293.083-.376.375-.376h2.798c.126 0 .293 0 .334.167.084.209.084.376-.041.585-.084.083-.167.083-.25.083h-2.047c-.167 0-.209.042-.209.209v1.629c0 .167.042.208.209.208h1.587c.167 0 .334 0 .376.167a.619.619 0 0 1 0 .543c-.084.126-.21.126-.334.126h-1.587c-.167 0-.25.041-.25.25v2.088c0 .334-.084.418-.418.418-.502 0-.502 0-.502-.501v-2.715l-.041-.083Z" data-color="1"></path>
        <path fill="#ffffff" d="M32.196 52.888v2.464c0 .334-.083.376-.376.376-.5 0-.543 0-.543-.502v-4.844c0-.25 0-.25-.25-.25H29.44c-.25 0-.334-.084-.334-.418 0-.334.083-.418.376-.418h4.593c.293 0 .376.084.376.418 0 .292-.083.418-.376.418h-1.628c-.125 0-.167.041-.167.167v2.547l-.084.042Z" data-color="1"></path>
        <path fill="#ffffff" d="M56.333 43.033c.167-.293.376-.543.626-.71.25-.167.46-.293.752-.25.209 0 .334.124.334.333v.543c0 .167-.125.292-.292.334h-.126c-.584 0-.918.376-1.127.877-.084.25-.125.543-.125.794v1.545c0 .292-.126.417-.418.417h-.418c-.25 0-.375-.125-.375-.375v-4.093c0-.209.125-.334.334-.376h.459c.209 0 .334.125.376.376v.585Z" data-color="1"></path>
        <path fill="#ffffff" d="M72.577 44.494v-1.92c0-.335.125-.46.46-.46h.375c.21 0 .293.083.334.292v4.218c0 .084-.083.167-.167.209a1.07 1.07 0 0 1-.877 0c-.167-.042-.167-.209-.167-.376v-1.963h.042Z" data-color="1"></path>
        <path fill="#ffffff" d="M35.078 52.178c.167-.334.334-.627.626-.794.209-.167.46-.25.71-.25h.125c.167.042.25.209.209.584a.285.285 0 0 1-.292.293c-.71 0-1.086.543-1.253 1.086a2.69 2.69 0 0 0-.125.835v1.503c0 .25-.084.334-.376.334-.543 0-.585 0-.585-.543v-3.591c0-.167 0-.334.167-.418a.815.815 0 0 1 .627 0c.083.042.125.126.125.25v.71h.042Z" data-color="1"></path>
        <path fill="#ffffff" d="M50.403 53.472v1.921c0 .293-.083.376-.376.376-.5 0-.543 0-.543-.543v-3.675c0-.334.084-.417.418-.417h.125c.334 0 .418.083.418.417v1.88l-.042.041Z" data-color="1"></path>
        <path fill="#ffffff" d="M42.928 53.472v1.921c0 .293-.083.376-.376.376-.542 0-.542 0-.542-.543v-3.591c0-.376.083-.46.417-.46h.125c.251 0 .334.084.334.335v1.962h.042Z" data-color="1"></path>
        <path fill="#ffffff" d="M73.162 41.32c-.543 0-.627-.041-.627-.626 0-.376.126-.46.46-.46h.459c.25.042.334.251.292.71 0 .251-.125.377-.375.377h-.251.042Z" data-color="1"></path>
        <path fill="#ffffff" d="M49.484 49.84c0-.418.042-.46.502-.46.375 0 .459.083.459.46 0 .375-.084.5-.46.5-.417 0-.5-.083-.5-.5Z" data-color="1"></path>
        <path fill="#ffffff" d="M42.01 49.84c0-.418.041-.46.5-.46.377 0 .46.083.46.46 0 .375-.084.459-.46.459-.417 0-.459-.084-.459-.502l-.041.042Z" data-color="1"></path>
    </g>
</svg>