<svg preserveAspectRatio="xMidYMid meet" data-bbox="161 31.297 85.25 22.654" xmlns="http://www.w3.org/2000/svg" viewBox="161 31.297 85.25 22.654" height="86" width="408" data-type="color" role="presentation" aria-hidden="true" aria-label="">
    <g>
        <g clip-path="url(#90e032a6-5e3c-4e2d-aa67-d05cb4525992_comp-mi3wcuyf1)">
            <path fill="#ffffff" d="M161 42.558V31.74c0-.278.139-.418.418-.418h15.538c.25 0 .417.084.626.25l6.015 6.016c.167.167.25.334.25.584v15.204c0 .279-.139.418-.417.418h-5.806c-.376 0-.376 0-.376-.376v-15.12c0-.279-.125-.418-.376-.418h-8.897c-.25 0-.376.125-.376.376v15.329c0 .125-.083.167-.208.167h-6.015c-.376 0-.376 0-.376-.376v-10.86.042Z" data-color="1"></path>
            <path fill="#ffffff" d="M216.176 41.931c.209-.5.376-.96.585-1.42.418-1.002.836-2.046 1.253-3.049a.45.45 0 0 0 0-.46 271.43 271.43 0 0 0-2.046-5.262c-.126-.334-.126-.334.208-.334h1.254c.292 0 .417.083.543.376.459 1.253.918 2.548 1.378 3.8 0 .042 0 .084.042.168.083-.042.083-.167.125-.21a394.63 394.63 0 0 0 1.378-3.842c.084-.209.167-.292.376-.292h1.462c.251 0 .293 0 .167.292a129.709 129.709 0 0 1-1.42 3.634c-.209.543-.418 1.128-.626 1.67-.042.168-.084.293 0 .46.584 1.42 1.169 2.882 1.754 4.302 0 .042 0 .084.125.126.125-.376.293-.71.418-1.086 1.169-3.008 2.297-6.015 3.467-9.064.125-.292.25-.376.543-.376h1.67c.209 0 .251.042.167.25-1.628 3.927-3.216 7.853-4.845 11.821-.125.25-.209.543-.334.794-.083.167-.167.25-.376.25h-1.295c-.208 0-.334-.083-.417-.292-.71-1.712-1.42-3.383-2.13-5.054a1.238 1.238 0 0 0-.168-.334c-.125 0-.125.125-.167.209-.751 1.754-1.462 3.466-2.213 5.22-.084.21-.209.293-.418.251h-1.253c-.251 0-.334-.083-.418-.292a387.845 387.845 0 0 0-2.548-6.223c-.835-2.089-1.712-4.136-2.548-6.224-.111-.278-.014-.418.293-.418h1.629c.209 0 .292.084.334.25a661.142 661.142 0 0 0 3.174 8.271c.251.627.46 1.253.71 1.88 0 .041 0 .083.084.167l.083.041Z" data-color="1"></path>
            <path fill="#ffffff" d="M187.899 35.458v8.646c0 .25-.125.376-.376.376h-1.462c-.334 0-.334 0-.334-.335v-12.28c0-.306.153-.46.46-.46h1.044c.209 0 .334.043.459.21.919 1.17 1.796 2.339 2.715 3.466 1.42 1.838 2.882 3.676 4.302 5.514l.126.125v-8.938c0-.25.125-.376.376-.376h1.42c.334 0 .334 0 .334.334v12.405c0 .334 0 .334-.334.334h-1.17c-.25 0-.417-.083-.543-.25l-4.135-5.263c-.877-1.128-1.796-2.255-2.673-3.383 0-.042-.084-.084-.125-.125h-.084Z" data-color="1"></path>
            <path fill="#ffffff" d="M209.577 44.48h-.794c-.25 0-.334-.084-.417-.293-.334-1.002-.71-1.963-1.044-2.965-.084-.168-.168-.251-.376-.251h-4.637c-.209 0-.292.042-.334.25-.334 1.003-.71 2.005-1.086 3.008-.083.209-.167.292-.418.292h-1.629c-.292 0-.292 0-.208-.292.626-1.587 1.253-3.216 1.879-4.803 1.003-2.59 2.005-5.138 3.008-7.728.083-.25.208-.334.459-.292h1.42c.167 0 .293.042.334.25 1.379 3.593 2.799 7.143 4.177 10.735l.752 1.88c.084.167.042.25-.167.25h-.919v-.041Zm-4.929-10.693s-.041.125-.083.167c-.627 1.712-1.212 3.425-1.838 5.137-.084.21 0 .25.209.25h3.383c.334 0 .334 0 .209-.291-.501-1.337-.961-2.715-1.462-4.052-.125-.376-.292-.752-.418-1.17v-.041Z" data-color="1"></path>
            <path fill="#ffffff" d="M236.894 37.922c0 1.587.543 2.924 1.838 3.926 1.837 1.462 4.761.752 5.68-1.128.084-.167.167-.209.334-.083.418.25.877.501 1.337.752.167.083.209.208.125.375a4.057 4.057 0 0 1-1.712 1.838c-2.005 1.17-4.094 1.42-6.224.293-1.545-.836-2.548-2.172-3.132-3.801-.961-2.673-.168-5.639 2.046-7.435 1.337-1.128 2.882-1.462 4.595-1.337 1.378.126 2.548.669 3.508 1.671.293.292.502.627.71 1.002.084.126.042.21-.083.293-.46.292-.877.585-1.337.877-.125.084-.209.084-.25-.042-.794-2.088-4.219-2.631-5.973-.877-.752.752-1.17 1.67-1.337 2.715a6.791 6.791 0 0 0-.083.919l-.042.042Z" data-color="1"></path>
            <path fill="#ffffff" d="M230.545 37.922V31.74c0-.334 0-.334.334-.334h1.504c.25 0 .292.083.292.334v12.405c0 .334 0 .334-.334.334h-1.42c-.223 0-.334-.125-.334-.375v-6.182h-.042Z" data-color="1"></path>
            <path fill="#ffffff" d="M216.009 45.357h30.116c.041 0 .125 0 .125.083 0 .084-.042.084-.125.084h-59.98c-.126 0-.334.083-.334-.084 0-.209.208-.083.334-.083h29.864Z" data-color="1"></path>
            <path fill="#ffffff" d="M187.231 52.959c.25-.794.501-1.462.71-2.172.042-.167.083-.293.292-.293.209 0 .251.126.293.25.25.71.459 1.421.71 2.173.125-.501.292-.92.417-1.379l.251-.835c.084-.209.334-.334.543-.209.084.042.042.126 0 .167-.292.961-.627 1.963-.919 2.924-.042.167-.167.167-.292.209-.167 0-.251-.042-.293-.209-.209-.626-.417-1.295-.626-1.921a.585.585 0 0 0-.084-.25c-.083.083-.125.166-.125.25l-.627 1.88c-.041.166-.125.25-.334.25-.209 0-.25-.084-.292-.25-.293-.92-.543-1.797-.836-2.716 0-.083-.167-.25 0-.334.209-.083.46 0 .502.21l.376 1.336c.083.292.167.543.25.919h.084Z" data-color="1"></path>
            <path fill="#ffffff" d="m197.506 51.497-.752 1.378c-.042.084-.125.209-.167.292-.167.251-.376.251-.543 0-.292-.46-.543-.96-.794-1.462 0-.083-.041-.167-.167-.208v2.005c0 .167 0 .292-.25.292-.251 0-.209-.125-.209-.292v-2.716c0-.125-.042-.25.125-.292.167 0 .334-.083.46.126.167.334.376.626.543.96.208.376.376.71.626 1.086.293-.543.585-1.044.836-1.545.083-.167.208-.335.292-.502.042-.083.125-.125.25-.167.293 0 .335 0 .335.334v2.674c0 .167 0 .292-.251.292-.209 0-.251-.125-.251-.292v-1.963h-.083Z" data-color="1"></path>
            <path fill="#ffffff" d="M239.734 52.165c0-1.044.627-1.713 1.629-1.713.961 0 1.629.669 1.629 1.671 0 1.003-.668 1.713-1.629 1.713-1.002 0-1.629-.669-1.629-1.713v.042Zm2.715 0v-.209a1.09 1.09 0 0 0-1.044-1.044c-.543-.042-1.003.292-1.128.919a1.87 1.87 0 0 0 0 .835c.167.543.668.877 1.253.752.585-.125.877-.543.877-1.253h.042Z" data-color="1"></path>
            <path fill="#ffffff" d="M214.506 52.165c0-1.044.626-1.713 1.629-1.713.96 0 1.67.71 1.629 1.713 0 1.002-.669 1.67-1.629 1.67-1.003 0-1.629-.668-1.629-1.712v.042Zm2.715 0v-.209c-.042-.627-.46-1.044-1.003-1.086-.543-.042-1.002.293-1.127.919a1.373 1.373 0 0 0 0 .585c.125.752.668 1.17 1.42 1.002.459-.125.752-.585.752-1.211h-.042Z" data-color="1"></path>
            <path fill="#ffffff" d="M192.368 50.452c.961 0 1.671.71 1.629 1.713 0 1.002-.668 1.712-1.67 1.67-.961 0-1.629-.668-1.629-1.712 0-1.002.668-1.67 1.629-1.67h.041Zm1.086 1.713v-.167c0-.627-.459-1.044-1.044-1.086-.543 0-.961.334-1.128.919a1.405 1.405 0 0 0 0 .584c.084.752.669 1.17 1.42 1.003.46-.125.752-.585.752-1.211v-.042Z" data-color="1"></path>
            <path fill="#ffffff" d="M245.749 52.833v-2.088c0-.167.083-.21.25-.21.167 0 .251.043.251.21v2.882c0 .083 0 .167-.084.209-.125 0-.25 0-.375-.084-.209-.25-.376-.501-.585-.752-.376-.5-.752-.96-1.128-1.462-.084.084-.042.168-.042.21v1.754c0 .167 0 .334-.25.334-.251 0-.209-.167-.209-.334v-2.674c0-.125-.042-.25.083-.292.167-.042.293 0 .418.125.501.669 1.002 1.295 1.504 1.963.041.084.083.126.209.167l-.042.042Z" data-color="1"></path>
            <path fill="#ffffff" d="M218.766 51.538v2.089c0 .167-.125.167-.25.167-.126 0-.209 0-.209-.209v-2.924c0-.083 0-.167.083-.167.126 0 .251 0 .376.084.251.292.46.626.71.919l.877 1.127c0 .042.084.126.167.126v-2.13c0-.168.126-.168.251-.168s.209 0 .209.21v2.923c0 .084 0 .167-.084.167-.125 0-.25 0-.376-.083-.208-.251-.375-.502-.584-.752-.376-.502-.752-.96-1.128-1.462h-.042v.083Z" data-color="1"></path>
            <path fill="#ffffff" d="M207.614 51.538v2.089c0 .167-.125.167-.251.167-.125 0-.209 0-.209-.209v-2.924c0-.083 0-.167.084-.167.125 0 .251 0 .376.084.251.292.459.626.71.919l.877 1.127c0 .042.084.126.167.126v-2.13c0-.168.125-.168.251-.168.125 0 .209 0 .209.21v2.923c0 .084 0 .167-.084.167-.125 0-.251 0-.376-.083-.209-.251-.376-.502-.585-.752-.375-.502-.751-.96-1.127-1.462h-.042v.083Z" data-color="1"></path>
            <path fill="#ffffff" d="M201.808 51.538v2.005c0 .167-.042.293-.251.293-.167 0-.208-.084-.208-.21v-2.84c0-.083 0-.208.125-.208.167 0 .292 0 .376.125.334.46.71.919 1.086 1.378.209.25.418.502.668.752v-2.005c0-.167 0-.292.251-.292.209 0 .209.125.209.292v2.757c0 .084 0 .25-.126.25-.167 0-.292 0-.376-.125a28.43 28.43 0 0 0-1.044-1.336c-.209-.293-.418-.543-.626-.836h-.084Z" data-color="1"></path>
            <path fill="#ffffff" d="M226.869 52.165v-1.337c0-.209.042-.292.251-.292.376 0 .794-.042 1.169.042.46.125.711.376.752.752.042.417-.125.751-.501.96-.209.084-.167.167-.042.293.251.334.502.71.752 1.044.084.125.042.167-.083.167-.251 0-.46 0-.585-.292-.167-.293-.418-.585-.585-.878 0-.041-.083-.125-.125-.167a.41.41 0 0 0-.376-.041c-.125 0-.084.167-.084.25v.794c0 .167 0 .292-.25.292-.209 0-.251-.083-.251-.292v-1.38l-.042.084Zm.543-.668v.417c0 .126 0 .167.167.167.209 0 .418 0 .627-.083.251-.125.418-.418.334-.668-.083-.293-.459-.46-.961-.418-.292.042-.125.292-.167.46v.125Z" data-color="1"></path>
            <path fill="#ffffff" d="M229.626 51.706v-.92c0-.208.042-.25.251-.25.208 0 .292.084.292.292v1.713c0 .626.501 1.002 1.086.794.292-.084.501-.377.501-.752v-1.755c0-.209 0-.334.251-.292.209 0 .292.084.292.292v1.922c-.083.752-.626 1.17-1.42 1.127-.668 0-1.169-.543-1.211-1.21v-.962h-.042Z" data-color="1"></path>
            <path fill="#ffffff" d="M198.759 52.165v-1.337c0-.209.042-.292.251-.292h1.545c.125 0 .251 0 .251.209 0 .167-.084.25-.251.209h-1.044c-.167 0-.251.041-.251.208 0 .794 0 .794.794.794h.292c.125 0 .209.084.209.209 0 .125-.084.167-.209.167h-.835c-.167 0-.209.084-.209.209v.585c0 .167.083.208.209.208h1.044c.167 0 .251 0 .251.21 0 .166-.084.208-.251.208h-1.545c-.209 0-.251-.084-.251-.25v-1.42.083Z" data-color="1"></path>
            <path fill="#ffffff" d="M222.734 50.452c.251 0 .46.084.71.21.167.083.209.166.084.333-.084.168-.209.168-.334.042-.209-.125-.46-.209-.752-.125-.167.083-.293.167-.293.376a.44.44 0 0 0 .209.376c.167.125.376.167.585.25.585.21.794.543.71 1.086-.083.502-.501.836-1.086.836a1.631 1.631 0 0 1-.961-.293c-.167-.083-.125-.209 0-.334.084-.125.168-.167.293-.042.25.167.501.293.835.251.251-.084.418-.25.46-.46 0-.25-.126-.417-.376-.459l-.418-.125c-.585-.21-.835-.543-.752-1.044.084-.502.501-.794 1.086-.794v-.084Z" data-color="1"></path>
            <path fill="#ffffff" d="M232.8 52.165c0-.668.209-1.211.836-1.504.585-.292 1.128-.25 1.712.084.126.083.209.125.084.292-.084.125-.167.209-.334.084-.418-.293-.836-.335-1.253 0-.46.334-.543.793-.46 1.294.126.961.961 1.337 1.755.794.167-.125.25 0 .334.084.125.125 0 .209-.084.292-.543.376-1.128.46-1.712.167-.585-.25-.836-.752-.878-1.337v-.25Z" data-color="1"></path>
            <path fill="#ffffff" d="M211.54 52.165c0-.627.209-1.17.836-1.504.584-.292 1.127-.292 1.712.084.084.083.251.125.125.292-.083.126-.208.209-.376.126-.417-.251-.835-.335-1.253 0-.459.292-.543.793-.459 1.294.125 1.003.961 1.337 1.796.794.167-.125.251 0 .334.083.125.126 0 .21-.083.293-.543.376-1.086.417-1.671.167-.585-.25-.836-.71-.877-1.337v-.25l-.084-.042Z" data-color="1"></path>
            <path fill="#ffffff" d="M206.862 47.57v1.63c0 .083 0 .208-.083.25-.126.083-.335 0-.335-.167v-2.34c0-.083 0-.166.126-.208.125 0 .25 0 .292.125.209.25.418.543.627.794l.751 1.002c.084-.083.084-.209.084-.292v-1.42c0-.167 0-.25.209-.25.167 0 .209.124.209.25v2.255c0 .084 0 .21-.126.21-.125 0-.25 0-.334-.126-.209-.25-.376-.501-.585-.752l-.835-1.086h-.083l.083.125Z" data-color="1"></path>
            <path fill="#ffffff" d="M237.729 47.57v1.63c0 .083 0 .208-.083.25-.126.083-.335 0-.335-.167v-2.34c0-.083 0-.166.126-.208.125 0 .25 0 .334.125l.752 1.003c.209.25.417.543.626.793.084-.083.084-.209.084-.292v-1.42c0-.167 0-.25.209-.25.167 0 .209.124.209.25v2.255c0 .084 0 .167-.084.21-.084 0-.209 0-.292-.043a.897.897 0 0 1-.167-.208l-1.295-1.671h-.084v.083Z" data-color="1"></path>
            <path fill="#ffffff" d="M194.958 47.57v1.63c0 .083 0 .208-.084.25-.167.083-.292 0-.292-.167v-2.34c0-.083 0-.166.125-.208.126 0 .251 0 .293.125.209.25.417.543.626.794l.752 1.002c.084-.083.084-.209.084-.292v-1.42c0-.167 0-.25.208-.25.168 0 .209.124.209.25v2.255c0 .084 0 .21-.125.21s-.251 0-.334-.126c-.334-.418-.627-.836-.961-1.211l-.459-.585h-.042v.083Z" data-color="1"></path>
            <path fill="#ffffff" d="M235.515 46.693c.794 0 1.379.585 1.379 1.42 0 .836-.585 1.42-1.42 1.42-.794 0-1.379-.584-1.379-1.42 0-.835.585-1.42 1.42-1.42Zm-.96 1.42c0 .334.083.627.376.836.376.292 1.002.25 1.295-.126.334-.459.25-1.294-.168-1.587-.334-.209-.668-.25-1.002-.083-.376.209-.501.543-.501.96Z" data-color="1"></path>
            <path fill="#ffffff" d="M242.491 46.693c.835 0 1.378.585 1.42 1.42 0 .836-.543 1.42-1.378 1.42a1.34 1.34 0 0 1-1.286-.844 1.337 1.337 0 0 1-.093-.534c0-.835.543-1.42 1.379-1.462h-.042Zm-.919 1.295c0 .501.125.794.376.96.376.293 1.002.251 1.295-.125.334-.459.25-1.294-.167-1.587-.335-.209-.669-.25-1.003-.083a.928.928 0 0 0-.501.835Z" data-color="1"></path>
            <path fill="#ffffff" d="M222.86 49.533c-.836 0-1.379-.584-1.379-1.42 0-.835.585-1.42 1.42-1.42.794 0 1.379.585 1.379 1.42 0 .836-.585 1.42-1.379 1.42h-.041Zm-.919-1.42c0 .418.125.669.376.877.417.293 1.002.21 1.294-.167.334-.459.251-1.294-.167-1.587a.887.887 0 0 0-.96-.083c-.376.209-.502.543-.502.919l-.041.041Z" data-color="1"></path>
            <path fill="#ffffff" d="M204.648 46.693c.794 0 1.379.585 1.379 1.42 0 .836-.585 1.42-1.42 1.42a1.34 1.34 0 0 1-1.286-.844 1.337 1.337 0 0 1-.093-.534c0-.835.585-1.42 1.42-1.42v-.042Zm-.96 1.379c0 .375.083.71.376.918.376.293 1.002.21 1.294-.167.335-.459.251-1.294-.167-1.587a.887.887 0 0 0-.96-.083c-.376.167-.502.543-.502.877l-.041.042Z" data-color="1"></path>
            <path fill="#ffffff" d="M190.781 48.113V49.2c0 .167 0 .251-.209.251-.167 0-.25-.084-.25-.25v-.753c0-.167-.084-.208-.209-.208h-.961c-.167 0-.209.083-.209.209v.793c0 .167-.083.209-.25.209-.167 0-.209-.042-.209-.209v-2.297c0-.167.083-.209.25-.209.168 0 .209.084.209.25v.752c0 .167.084.21.209.21h.961c.167 0 .209-.084.209-.21v-.71c0-.167 0-.25.208-.25.168 0 .251.083.251.25v1.128-.042Z" data-color="1"></path>
            <path fill="#ffffff" d="M229.334 48.782h-.126c-.543 0-.459 0-.626.417a.316.316 0 0 1-.084.167c-.083.126-.25.126-.376.084-.125-.042 0-.167 0-.25l.878-2.256c.041-.167.125-.209.292-.209.167 0 .251.084.292.209l.877 2.255c0 .084.126.21 0 .251-.125.042-.292.042-.375-.084-.042-.083-.126-.208-.126-.334-.042-.209-.209-.334-.417-.292h-.293l.084.042Zm0-1.462-.251.501c-.251.71-.376.627.46.627h.083c.084 0 .125-.042.084-.126-.126-.334-.251-.626-.376-1.002Z" data-color="1"></path>
            <path fill="#ffffff" d="M216.97 49.492s-.251-.084-.292-.25c-.084-.419-.334-.544-.71-.46h-.126c-.376-.084-.626.041-.71.46 0 .04 0 .124-.083.166-.084.125-.251.125-.376.084-.125-.042 0-.167 0-.25l.877-2.256c.042-.167.125-.21.292-.21.167 0 .251.084.293.21.292.751.584 1.503.919 2.255.041.125.083.25-.126.25h.042Zm-1.044-2.13h-.084c-.083.125-.125.292-.167.417-.25.71-.376.627.46.627h.083c.084 0 .126-.042.084-.126-.126-.334-.251-.626-.376-.96v.041Z" data-color="1"></path>
            <path fill="#ffffff" d="M211.457 49.492s-.293-.084-.293-.21c-.083-.417-.334-.542-.71-.459h-.083c-.376-.083-.669.042-.752.46 0 .083-.084.209-.209.209-.084 0-.209.041-.251 0-.083-.084 0-.167 0-.21.293-.751.585-1.503.919-2.255.042-.125.126-.209.293-.209.167 0 .25.042.292.21.292.793.627 1.545.919 2.338.083.167 0 .21-.125.21v-.084Zm-1.045-2.13h-.083c-.125.292-.251.626-.376.918-.042.126 0 .167.125.167h.543c.126 0 .167-.041.126-.167-.126-.292-.251-.626-.376-.919h.041Z" data-color="1"></path>
            <path fill="#ffffff" d="M198.467 48.782h-.084c-.543 0-.459-.042-.668.417 0 .084-.042.126-.084.21a.22.22 0 0 1-.334.041c-.125-.042 0-.167 0-.25l.877-2.256c.084-.167.167-.25.334-.25s.251.083.293.25c.292.752.584 1.462.877 2.214 0 .083.125.208 0 .25-.125.042-.293.084-.376-.083-.042-.084-.084-.21-.125-.293-.042-.25-.209-.334-.46-.292h-.292l.042.042Zm-.042-1.462c-.084.167-.126.334-.209.501-.251.668-.251.668.459.627.126 0 .209-.042.126-.21-.126-.292-.251-.626-.376-.918Z" data-color="1"></path>
            <path fill="#ffffff" d="M224.906 52.374v-1.212c0-.167-.042-.208-.209-.208h-.626c-.167 0-.209-.084-.209-.21 0-.166.042-.208.209-.208h2.172c.167 0 .209.083.209.209 0 .167-.084.209-.209.209h-.543c-.167 0-.251.083-.251.25v2.34c0 .208-.083.292-.292.292-.167 0-.251-.084-.251-.251v-1.211Z" data-color="1"></path>
            <path fill="#ffffff" d="M236.727 52.374v-1.128c0-.209-.042-.292-.293-.292h-.584c-.167 0-.209-.084-.209-.21 0-.125.042-.208.209-.208h2.213c.167 0 .167.083.167.209 0 .125 0 .209-.208.209h-.502c-.25 0-.334.041-.334.292v2.255c0 .293-.042.335-.334.293-.167 0-.209-.084-.209-.209v-1.211h.084Z" data-color="1"></path>
            <path fill="#ffffff" d="M191.366 48.113v-1.086c0-.167.083-.25.25-.25h1.254c.125 0 .25 0 .25.167s-.125.167-.25.167h-.836c-.167 0-.209.042-.209.209 0 .835-.083.668.627.668h.25c.126 0 .168.042.168.167s-.084.125-.168.125h-.626c-.167 0-.251.084-.251.251 0 .752-.083.627.627.627h.543c.083 0 .167.041.167.167 0 .083-.042.167-.167.167h-1.42c-.167 0-.167-.126-.167-.25v-1.129h-.042Z" data-color="1"></path>
            <path fill="#ffffff" d="M225.909 49.533c-.585 0-1.045-.292-1.253-.793a1.595 1.595 0 0 1 .292-1.713c.376-.376 1.002-.459 1.504-.25h.041c.084.083.335.125.209.334-.083.209-.25.084-.417 0-.335-.167-.711-.167-1.003.084-.334.292-.376.668-.334 1.086.125.751.835 1.044 1.462.626.125-.083.209-.125.334 0 .125.167 0 .209-.125.292-.209.168-.46.251-.794.251l.084.083Z" data-color="1"></path>
            <path fill="#ffffff" d="M220.228 49.533c-.251 0-.459-.083-.71-.208-.125-.084-.125-.167-.084-.293.084-.125.168-.125.293 0 .125.084.292.167.459.21a.512.512 0 0 0 .585-.335c.042-.25 0-.376-.334-.501a2.043 2.043 0 0 1-.46-.167c-.334-.126-.543-.376-.501-.71 0-.335.251-.627.585-.71.307-.079.631-.05.919.083.083.042.167.125.125.25-.083.126-.167.168-.292.084-.167-.125-.376-.209-.585-.125-.167.042-.292.167-.292.334s.083.292.209.334c.125.042.25.084.417.167.543.21.71.46.627.961-.084.418-.418.71-.961.71v-.084Z" data-color="1"></path>
            <path fill="#ffffff" d="M218.181 49.533c-.25 0-.459-.083-.71-.208-.125-.084-.125-.167-.083-.293.083-.125.167-.125.292 0 .125.084.293.167.46.21a.511.511 0 0 0 .584-.335c.042-.25 0-.376-.334-.501a2.036 2.036 0 0 1-.459-.167c-.376-.126-.543-.418-.501-.752 0-.334.292-.627.626-.71.292-.084.585 0 .835.083.084.042.209.084.126.25-.084.126-.167.168-.293.084a.583.583 0 0 0-.584-.083c-.167.042-.293.167-.293.334s.084.292.209.334c.125.042.251.084.418.167.543.21.71.46.626.961-.083.418-.417.71-.96.71l.041-.084Z" data-color="1"></path>
            <path fill="#ffffff" d="M244.287 48.113v-1.086c0-.167.042-.292.25-.25h1.254c.125 0 .25 0 .25.167s-.125.167-.25.167h-.836c-.167 0-.25.084-.25.25 0 .836-.126.669.668.71h.209c.125 0 .209 0 .209.168 0 .125-.126.167-.209.167h-.585c-.251 0-.334.083-.292.334v.585c0 .167-.042.25-.251.25-.167 0-.209-.083-.209-.25v-1.128l.042-.084Z" data-color="1"></path>
            <path fill="#ffffff" d="M186.813 48.239v-.92c0-.208-.083-.292-.292-.292h-.418c-.125 0-.167-.041-.167-.167 0-.125.083-.167.167-.167h1.838c.083 0 .167 0 .167.167 0 .126-.084.167-.167.167h-.418c-.209 0-.292.084-.292.293v1.88c0 .125 0 .25-.209.25-.167 0-.251-.042-.251-.25v-1.003l.042.042Z" data-color="1"></path>
            <path fill="#ffffff" d="M231.547 48.28v-.919c0-.208-.083-.292-.25-.25h-.418c-.083 0-.167 0-.167-.167 0-.126.084-.167.167-.167h1.796c.125 0 .167 0 .167.167 0 .125-.083.167-.167.167h-.418c-.208 0-.25.083-.25.25v1.88c0 .125 0 .25-.209.292-.167 0-.251-.041-.251-.208V48.28Z" data-color="1"></path>
            <path fill="#ffffff" d="M201.14 48.28v.961c0 .167-.084.25-.251.25-.167 0-.209-.083-.209-.25v-1.88c0-.25-.083-.334-.292-.292h-.376c-.125 0-.167 0-.167-.167 0-.125.083-.167.167-.167h1.838c.083 0 .167 0 .167.167 0 .125-.084.167-.167.167h-.418c-.167 0-.25.042-.25.25v.961h-.042Z" data-color="1"></path>
            <path fill="#ffffff" d="M206.403 52.165v1.337c0 .208-.042.292-.293.292-.209 0-.25-.084-.25-.25v-2.758c0-.208.041-.25.25-.25s.293.083.293.292v1.379-.042Z" data-color="1"></path>
            <path fill="#ffffff" d="M239.191 52.165v1.337c0 .167 0 .292-.251.292-.208 0-.292-.084-.25-.292v-2.757c0-.21.042-.293.25-.293.209 0 .251.126.251.293v1.42Z" data-color="1"></path>
            <path fill="#ffffff" d="M212 48.113v-1.086c0-.167 0-.25.208-.25.209 0 .251.083.251.25v1.796c0 .251.084.335.334.335h.627c.125 0 .209.041.209.208 0 .126-.084.167-.209.167h-1.212c-.167 0-.208-.083-.208-.25v-1.17Z" data-color="1"></path>
            <path fill="#ffffff" d="M202.811 48.113V49.2c0 .167 0 .293-.209.293s-.251-.084-.251-.25v-2.215c0-.167 0-.25.209-.25s.251.083.251.25v1.086Z" data-color="1"></path>
            <path fill="#ffffff" d="M227.746 48.155v1.086c0 .167 0 .25-.25.25-.167 0-.209-.083-.209-.25v-2.214c0-.167.042-.25.251-.25.167 0 .208.083.208.25v1.128Z" data-color="1"></path>
            <path fill="#ffffff" d="M233.678 48.113v1.128c0 .167-.042.25-.209.25-.167 0-.251-.083-.251-.25v-2.255c0-.167.084-.251.251-.251.167 0 .209.084.209.25v1.128Z" data-color="1"></path>
        </g>
        <defs fill="none">
            <clipPath id="90e032a6-5e3c-4e2d-aa67-d05cb4525992_comp-mi3wcuyf1">
                <path fill="#ffffff" d="M407.25 0v85.25H0V0h407.25z"></path>
            </clipPath>
        </defs>
    </g>
</svg>