<svg preserveAspectRatio="xMidYMid meet" data-bbox="161 18.532 84.58 47.517" xmlns="http://www.w3.org/2000/svg" viewBox="0 0 407 93" height="93" width="407" data-type="ugc" role="presentation" aria-hidden="true" aria-label="">
    <g>
        <g filter="url(#d06a2e84-1db5-4263-b703-735dd379ba53_comp-mi3wcuxs)" clip-path="url(#d4e24f12-240c-4505-a4c1-4cdae574bac1_comp-mi3wcuxs)">
            <path fill="#303030" d="M162.642 37.85c-.553.222-.879.722-1.36 1.011-.335.2-.327.447-.196.748.26.605.511 1.21.767 1.814a5181.8 5181.8 0 0 1 3.017 7.206c.725 1.732 1.446 3.468 2.175 5.204.902 2.148 1.814 4.297 2.716 6.447.744 1.773 1.48 3.554 2.224 5.327.222.522.241.533.733.282 1.273-.647 2.558-1.278 3.817-1.954 1.957-1.056 3.979-1.991 5.943-3.032 2.405-1.277 4.843-2.49 7.281-3.704.447-.222.613-.492.609-.992-.023-2.994-.011-5.985-.011-8.98 0-.112-.004-.225 0-.341.007-.282-.128-.417-.414-.417h-.747c-1.225 0-2.453.004-3.678 0-.59 0-.598-.019-.609-.62v-7.615c0-.576.281-.866.842-.868 1.341 0 2.678.004 4.02 0 .548 0 .571-.038.59-.579.003-.112 0-.225 0-.342V22.432c0-.135-.008-.27 0-.41.011-.27-.087-.462-.324-.623-.447-.305-.871-.646-1.307-.973-.759-.571-1.518-1.146-2.277-1.717-.184-.14-.357-.274-.601-.068-.5.428-1.014.834-1.521 1.251l-2.874 2.378c-.872.722-1.747 1.436-2.623 2.157-.943.777-1.882 1.555-2.825 2.333-.872.717-1.751 1.435-2.622 2.153-.943.777-1.883 1.559-2.826 2.333-.822.672-1.653 1.337-2.475 2.01-1.24 1.018-2.48 2.04-3.716 3.065-.357.297-.706.609-1.078.932.255.177.484.109.698.109 1.477.008 2.953-.008 4.43.008 1.334.01 1.206-.237 1.202 1.25 0 .455-.049.489-.526.5-.5.012-.999.008-1.499.004-.274 0-.428.113-.424.402v5.85c0 1.217.127 1.093-1.09 1.097-.811 0-.811 0-.811-.83v-5.647c0-.581-.281-.873-.842-.876-.364 0-.729.008-1.09 0-.469-.015-.488-.045-.525-.507-.023-.255.09-.548-.17-.759l-.003-.004Z"></path>
            <path fill="#303030" d="M205.929 52.168c-.004-.27-.131-.406-.236-.552-.485-.684-.958-1.371-1.454-2.048-.188-.255-.263-.435.071-.653a1.74 1.74 0 0 0 .721-1.045 5.755 5.755 0 0 0-.037-3.08 1.65 1.65 0 0 0-.936-1.094 3.75 3.75 0 0 0-1.506-.357c-1.157-.033-2.314-.018-3.472-.007-.51.004-.548.041-.552.545-.011.905 0 1.81 0 2.716 0 1.675-.004 3.351 0 5.026 0 .511.045.545.537.56.316.012.635.012.955 0 .518-.015.552-.045.567-.533.011-.5 0-.996.004-1.495.003-.665.158-.786.811-.684.252.037.395.191.53.383.443.627.898 1.247 1.341 1.878.132.188.248.417.496.425.714.019 1.431.008 2.164.008l-.004.007Z"></path>
            <path fill="#303030" d="M213.552 50.113c-.113.218-.244.432-.338.661-.285.71.06 1.371.804 1.574.263.072.53.11.804.128.451.026.898.09 1.349.147.173.018.312.101.315.293.004.195-.157.263-.311.308-.106.03-.222.045-.335.045-.563-.011-1.123.022-1.69-.098-1.041-.218-1.049-.188-1.191.883-.06.432-.012.5.413.582 1.078.21 2.171.21 3.25.12.762-.06 1.457-.364 1.739-1.198.105-.312.083-.627.079-.943-.015-.842-.425-1.251-1.262-1.398-.538-.093-1.082-.1-1.62-.165-.15-.019-.341-.075-.311-.285.022-.15.18-.203.319-.2.368.012.725-.07 1.071-.172 1.07-.3 1.525-.913 1.532-2.029 0-.383.012-.77-.026-1.153-.019-.215.023-.323.214-.429.338-.191.421-.45.338-.837-.086-.402-.405-.286-.657-.297-.612-.03-1.236.086-1.833-.06-.65-.162-1.274-.064-1.879.101-.691.184-1.221.624-1.382 1.36-.245 1.1-.203 2.157.604 3.058l.004.004Z"></path>
            <path fill="#303030" d="M201.196 39.263c.627.041 1.277-.072 1.904-.278.628-.203 1.015-.631 1.184-1.285.135-.519.116-1.033.112-1.552-.007-1.172-.304-1.581-1.393-1.965-.601-.21-1.21-.39-1.83-.533-.244-.056-.526-.135-.56-.425-.112-.897-.064-1.217.849-1.18h.068c.59.016 1.172-.014 1.762.117.556.124.729-.037.815-.612.034-.222 0-.458.045-.676.068-.338-.079-.425-.387-.477-.627-.113-1.262-.124-1.893-.15-.725-.03-1.447-.016-2.153.168-.571.147-.95.508-1.119 1.079-.143.48-.275.969-.196 1.468.079.489.038 1.007.301 1.45.297.5.777.74 1.326.88.548.135 1.105.259 1.646.424.477.147.657.41.661.83 0 .594-.297.895-.932.932-.827.05-1.623-.128-2.416-.327-.289-.071-.428-.018-.466.29-.033.27-.063.544-.154.796-.142.398.061.534.391.627.789.218 1.574.44 2.442.403l-.007-.004Z"></path>
            <path fill="#303030" d="M226.472 32.947c-.15-.195-.124-.338-.124-.47 0-.702.008-1.404-.007-2.107-.008-.454-.087-.533-.519-.503-.405.03-.807.098-1.209.161a.339.339 0 0 0-.301.324c-.019.18-.019.36-.019.54v7.413c0 .135.004.27 0 .41-.003.281.132.416.414.413.319 0 .635.003.954 0 .672-.008.684-.016.687-.688.004-.995 0-1.995 0-2.99 0-.203-.052-.459.147-.564.376-.2.789-.458 1.213-.327.432.132.218.579.263.894.015.113 0 .226 0 .338 0 .928-.007 1.86.004 2.788.008.507.041.533.549.549.293.01.589.007.886 0 .586-.012.613-.03.616-.624.008-1.383 0-2.765 0-4.148 0-.35-.097-.668-.225-.984-.218-.541-.605-.785-1.206-.808-.74-.026-1.428.196-2.126.383h.003Z"></path>
            <path fill="#303030" d="M235.624 49.433c0-.748.027-1.499-.003-2.243-.053-1.25-.831-1.848-2.044-1.608-.534.105-1.067.207-1.582.387-.128.045-.297.124-.376-.011-.274-.477-.721-.29-1.1-.3-.594-.016-.62.022-.624.608-.007 1.135 0 2.27 0 3.4 0 .68.008 1.36 0 2.04-.007.35.143.496.488.485.342-.012.68.007 1.022-.004.5-.015.538-.045.545-.556.011-1 0-1.995.004-2.994 0-.677.12-.864.744-1.019.706-.172 1.018-.037 1.007.718-.012.838-.015 1.68 0 2.517.022 1.51-.278 1.33 1.401 1.33.481 0 .518-.053.526-.575.011-.725 0-1.45 0-2.175h-.008Z"></path>
            <path fill="#303030" d="M228.67 48.93c0-.41.023-.816-.004-1.221-.056-.835-.462-1.488-1.217-1.826-.958-.432-1.972-.481-2.983-.162-.819.26-1.33.804-1.533 1.66-.203.853-.176 1.718-.097 2.567.097 1.067.593 1.886 1.728 2.175.781.199 1.563.225 2.344.034 1.123-.282 1.751-1.101 1.77-2.273.003-.316 0-.635 0-.95l-.008-.005Z"></path>
            <path fill="#303030" d="M205.34 35.904c0 .316-.004.635 0 .95.018 1.162.668 1.98 1.777 2.277.811.218 1.611.17 2.415-.052.853-.237 1.353-.782 1.556-1.627.218-.894.18-1.807.075-2.701-.128-1.078-.714-1.86-1.841-2.081-.782-.154-1.582-.188-2.356.045-1.029.308-1.574 1.033-1.623 2.103-.015.361 0 .726 0 1.09l-.003-.004Z"></path>
            <path fill="#303030" d="M218.038 35.934c0-.905-.004-1.81 0-2.716 0-.327-.101-.518-.466-.503-.361.015-.725.003-1.089.007-.248 0-.372.132-.376.38 0 .157-.004.315-.004.477 0 .905-.015 1.81.008 2.716.011.402-.139.65-.511.774-.173.056-.342.12-.515.161-.526.12-.695-.007-.729-.548-.011-.158 0-.316 0-.477 0-.973.008-1.946 0-2.92-.004-.514-.041-.544-.537-.559-.293-.011-.59-.008-.883 0-.593.011-.623.034-.631.609-.008.747-.004 1.495 0 2.242 0 .812-.026 1.627.128 2.435.15.781.638 1.24 1.435 1.266a3.28 3.28 0 0 0 .744-.06c.469-.09.928-.21 1.375-.368.15-.053.323-.14.436.022.281.402.695.26 1.063.263.511.004.544-.037.552-.54.011-.884 0-1.767 0-2.65v-.01Z"></path>
            <path fill="#303030" d="M210.344 49.613c.387 0 .774.008 1.157-.003.473-.016.518-.053.526-.504.007-.608.015-1.217-.113-1.826-.173-.815-.627-1.33-1.416-1.574a3.918 3.918 0 0 0-2.01-.083c-.977.207-1.589.756-1.792 1.717a7.874 7.874 0 0 0 0 3.167c.188.981.879 1.432 1.769 1.672.808.218 1.623.098 2.42-.052 1.112-.207 1.108-.23.883-1.323-.098-.47-.113-.507-.575-.383-.605.165-1.217.113-1.826.12a1 1 0 0 1-.398-.064c-.256-.112-.365-.33-.323-.608.041-.29.278-.256.473-.26.409-.007.819 0 1.228 0l-.003.004Z"></path>
            <path fill="#303030" d="M242.293 49.771c.083-.744-.06-1.687-.132-2.633a1.575 1.575 0 0 0-1.224-1.454c-1.199-.297-2.382-.128-3.562.116-.15.03-.248.117-.222.282.057.334.117.665.188.995.042.196.124.335.376.267.417-.109.86-.004 1.281-.143.297-.097.582.057.86.136.305.09.414.368.38.713-.038.376-.319.339-.56.32-.507-.041-.992.082-1.484.154-.578.082-.988.394-1.134 1.014a2.998 2.998 0 0 0-.038 1.341c.233 1.067.965 1.522 2.051 1.342.361-.06.707-.15 1.041-.297.101-.045.244-.14.312-.041.345.514.864.277 1.303.296.459.019.545-.094.56-.567.015-.545 0-1.086 0-1.837l.004-.004Z"></path>
            <path fill="#303030" d="M221.855 30.945c-.518-.03-.935.049-1.36.12-.687.12-.691.102-.699.763 0 .09-.003.18 0 .27.019.346-.011.64-.481.624-.315-.011-.368.24-.334.474.053.379-.195.815.21 1.127.015.01.046.01.064.015.534.18.538.18.538.71 0 .792-.027 1.585.011 2.378.034.717.165 1.416.995 1.68a3.37 3.37 0 0 0 1.544.13c.88-.138.921-.206.759-1.1a2.07 2.07 0 0 1-.015-.135c-.055-.341-.249-.489-.582-.444-.537.075-.635 0-.646-.563-.011-.545 0-1.086 0-1.63 0-.622.302-.959.905-1.011h.068c.244 0 .379-.117.387-.369 0-.135.026-.274 0-.405-.049-.29.206-.609 0-.85-.229-.266-.601-.127-.909-.135-.312-.01-.462-.123-.455-.443.008-.383 0-.766 0-1.206Z"></path>
            <path fill="#303030" d="M245.483 42.862c-.485.053-.955.094-1.424.184-.32.06-.425.21-.41.504.004.112 0 .225 0 .342v7.483c0 .158 0 .316.008.477.007.222.131.331.345.335.41.004.819.004 1.225 0 .218 0 .331-.124.338-.342.004-.158.008-.316.008-.477V43.61c0-.222.041-.455-.09-.748Z"></path>
            <path fill="#303030" d="M221.581 48.937c0-.932-.008-1.86 0-2.791 0-.338-.12-.511-.477-.496-.293.011-.59 0-.887 0-.684.007-.691.011-.695.68-.004 1.566 0 3.13 0 4.696 0 .203-.007.41.004.612.026.432.109.523.522.545.338.019.68.015 1.022 0 .451-.019.496-.056.503-.53.012-.905 0-1.814 0-2.72l.008.004Z"></path>
            <path fill="#303030" d="M188.617 44.707c.432 0 .864-.004 1.296.004.316.007.455-.136.451-.451a31.886 31.886 0 0 1 0-1.157c.008-.316-.135-.455-.451-.447-.499.007-.999-.012-1.499 0-1.72.04-1.45-.365-1.468 1.604v.067c0 .248.127.376.379.376h1.296l-.004.004Z"></path>
            <path fill="#303030" d="M188.647 40.894h.477c1.334 0 1.375-.05 1.233-1.364 0-.023 0-.045-.004-.068-.008-.218-.124-.338-.342-.338h-2.724c-.218 0-.338.116-.342.338-.003.338 0 .68-.007 1.018-.004.282.131.414.413.414h1.296Z"></path>
            <path fill="#303030" d="M220.57 42.922h-.409c-.598.015-.62.034-.635.605-.004.18 0 .364 0 .545-.008.992-.008.913.943.909 1.221-.004 1.104.116 1.112-1.082.004-1.067.056-.977-1.011-.98v.003Z"></path>
            <path fill="#ffffff" d="M162.642 37.85c.259.21.15.504.169.76.037.461.052.492.526.507.364.01.725 0 1.089 0 .561 0 .842.291.842.875v5.647c0 .83 0 .834.811.83 1.218-.004 1.086.12 1.09-1.097.004-1.792 0-3.584 0-5.373 0-.157.004-.315 0-.477 0-.289.15-.402.424-.402.5 0 1 .008 1.499-.003.478-.012.523-.046.526-.5.004-1.488.132-1.24-1.202-1.251-1.476-.011-2.953 0-4.429-.008-.214 0-.447.068-.699-.109.372-.323.718-.635 1.078-.931a920.048 920.048 0 0 1 3.716-3.066c.823-.673 1.653-1.338 2.476-2.01.943-.774 1.882-1.556 2.825-2.333.871-.718 1.751-1.435 2.622-2.153l2.825-2.333 2.623-2.156 2.874-2.379c.507-.417 1.022-.822 1.521-1.25.241-.207.417-.072.602.067.758.571 1.517 1.146 2.276 1.717.436.327.857.669 1.308.973.236.162.334.353.323.624-.008.135 0 .27 0 .41v14.354c-.019.541-.042.575-.59.579-1.341.008-2.679 0-4.02 0-.561 0-.842.29-.842.868v7.615c.015.601.019.62.609.62 1.225.008 2.453 0 3.678 0 .248 0 .5.004.748 0 .282 0 .417.135.413.417v.342c0 2.994-.011 5.985.011 8.98 0 .499-.161.766-.608.991-2.439 1.213-4.877 2.427-7.281 3.704-1.965 1.045-3.986 1.98-5.944 3.032-1.258.68-2.543 1.308-3.817 1.954-.496.251-.515.24-.732-.282-.748-1.773-1.481-3.554-2.225-5.327-.901-2.15-1.814-4.298-2.716-6.447-.729-1.732-1.446-3.468-2.175-5.204-1.007-2.4-2.014-4.801-3.017-7.206-.255-.604-.507-1.21-.766-1.814-.128-.304-.139-.549.195-.748.481-.289.808-.789 1.36-1.01l.004.003Zm6.762 8.619c.553 0 1.048-.008 1.541 0 .33.007.503-.143.574-.455.057-.24.128-.48.2-.717.184-.598.187-.598.841-.601h1.837c.665.003.684.026.891.68.109.342.056.789.345.999.308.225.748.083 1.127.086.819.012.834-.003.609-.785-.301-1.044-.627-2.077-.947-3.114a513.186 513.186 0 0 0-1.461-4.663c-.173-.537-.188-.537-.778-.544a89.44 89.44 0 0 0-1.428 0c-.597.003-.612 0-.796.593-.59 1.879-1.187 3.753-1.736 5.643-.263.91-.623 1.792-.815 2.87l-.004.008Zm8.953-4.55c0 1.112-.007 2.224 0 3.333.011 1.375-.195 1.206 1.244 1.213.638 0 .65-.019.657-.642.008-.793-.007-1.59.008-2.382.007-.459.052-.504.518-.511.658-.011 1.319 0 1.976-.004 1.15-.008 1.041.12 1.041-1.074 0-.673-.008-.677-.688-.68-.751-.004-1.499.003-2.25 0-.56-.008-.586-.034-.601-.564a15.854 15.854 0 0 1 0-.95c.019-.489.049-.523.571-.53.702-.011 1.409 0 2.111-.004 1.251-.015 1.131.188 1.127-1.19 0-.534-.033-.56-.597-.564a449.403 449.403 0 0 0-4.497 0c-.597 0-.616.022-.62.612-.007 1.315 0 2.63 0 3.945v-.008Zm3.141 9.483c-.169-.08-.147-.207-.173-.305l-.811-3.084a8.546 8.546 0 0 0-.147-.522c-.049-.154-.173-.203-.323-.162-.15.041-.128.158-.105.274.026.11.045.222.071.331.312 1.202.631 2.405.939 3.61.076.29.181.493.53.504.38.011.451-.252.511-.515.162-.702.289-1.416.466-2.115.135-.526.188-1.078.488-1.664.083.297.143.488.188.684.263 1.074.519 2.152.789 3.227.087.342.353.47.654.35.222-.091.259-.29.312-.493.308-1.183.616-2.363.928-3.543.033-.131.056-.267.086-.398.026-.12.019-.23-.128-.26-.12-.026-.233.008-.285.125-.045.101-.068.214-.094.327-.12.458-.233.92-.357 1.378-.199.748-.41 1.496-.62 2.273-.195-.12-.192-.263-.222-.39-.259-1.075-.529-2.15-.777-3.231-.068-.297-.154-.511-.511-.508-.365 0-.432.245-.492.53a51.84 51.84 0 0 1-.534 2.243c-.12.443-.146.924-.387 1.334h.004Zm8.37.394c-.015-.045-.03-.112-.052-.176-.444-1.285-.823-2.589-1.323-3.855-.109-.278-.218-.485-.567-.47-.323.015-.402.233-.485.481-.42 1.221-.845 2.439-1.266 3.66-.037.105-.067.218-.101.323-.026.09-.03.191.064.236.105.053.229.053.312-.045a.607.607 0 0 0 .124-.236c.161-.823.721-.992 1.454-.895.176.023.364.02.544 0 .35-.033.556.106.643.451.056.218.142.432.233.635.052.113.172.135.293.11.105-.023.142-.099.124-.223l.003.004Z"></path>
            <path fill="#ffffff" d="M205.929 52.168c-.732 0-1.45.011-2.164-.008-.248-.007-.364-.236-.496-.424-.443-.631-.898-1.251-1.341-1.878-.135-.192-.278-.346-.53-.384-.653-.101-.807.019-.811.684-.004.5.007.996-.004 1.495-.011.489-.049.519-.567.534a16.14 16.14 0 0 1-.954 0c-.496-.015-.538-.05-.538-.56-.007-1.676 0-3.351 0-5.027 0-.905-.007-1.81 0-2.716.008-.503.042-.541.553-.545 1.157-.011 2.314-.022 3.471.008a3.737 3.737 0 0 1 1.507.357c.492.229.789.59.935 1.093a5.765 5.765 0 0 1 .038 3.08c-.109.425-.354.8-.722 1.045-.334.218-.259.398-.071.654.496.676.969 1.363 1.454 2.047.101.147.229.278.236.553l.004-.008Zm-5.338-5.733v.883c0 .206.082.35.315.357.568.022 1.131.037 1.683-.14.267-.086.414-.266.432-.544.012-.158.008-.316.012-.473.007-1.244-.015-1.27-1.24-1.263-1.368.008-1.183-.165-1.195 1.184l-.007-.004Z"></path>
            <path fill="#ffffff" d="M213.552 50.113c-.807-.902-.849-1.957-.605-3.058.166-.736.692-1.176 1.383-1.36.605-.162 1.228-.26 1.878-.102.594.147 1.221.03 1.834.06.251.012.571-.105.657.297.083.384 0 .646-.338.838-.192.11-.233.218-.214.428.034.384.03.77.026 1.154-.007 1.116-.462 1.728-1.533 2.029-.345.097-.702.18-1.07.172-.139-.003-.297.045-.32.2-.03.21.162.266.312.285.537.064 1.078.068 1.619.165.842.147 1.248.56 1.263 1.398.003.315.03.631-.079.943-.286.834-.981 1.138-1.74 1.198-1.082.087-2.175.09-3.249-.12-.425-.083-.474-.15-.414-.582.143-1.071.151-1.097 1.191-.883.568.116 1.127.083 1.691.098.113 0 .229-.012.334-.046.154-.045.316-.112.312-.308-.004-.191-.146-.27-.315-.293-.448-.052-.898-.116-1.349-.146a3.9 3.9 0 0 1-.804-.128c-.744-.203-1.09-.864-.804-1.574.094-.23.225-.443.338-.661l-.004-.004Zm2.701-2.014v-.135c-.015-.59-.184-.789-.668-.8-.568-.011-.808.225-.819.804 0 .112-.008.225.003.338.042.402.196.56.59.601.673.075.894-.128.898-.808h-.004Z"></path>
            <path fill="#ffffff" d="M201.196 39.263c-.868.037-1.653-.18-2.442-.402-.327-.09-.53-.23-.391-.627.09-.252.12-.53.154-.797.038-.304.18-.36.466-.29.792.2 1.589.373 2.415.328.635-.038.932-.339.932-.932 0-.42-.18-.684-.661-.83-.541-.166-1.097-.29-1.646-.425-.548-.135-1.029-.38-1.326-.879-.263-.443-.225-.962-.3-1.45-.079-.5.052-.992.195-1.47.169-.57.549-.93 1.12-1.077.706-.18 1.423-.2 2.152-.17.635.027 1.266.042 1.894.15.308.057.451.144.387.478-.045.222-.012.455-.045.676-.083.571-.26.733-.816.613-.586-.128-1.172-.102-1.762-.117h-.067c-.913-.037-.962.282-.849 1.18.037.29.315.368.56.424.619.143 1.228.32 1.829.534 1.09.383 1.39.789 1.394 1.965 0 .518.022 1.036-.113 1.551-.169.658-.56 1.082-1.183 1.285-.628.207-1.274.32-1.905.278l.008.004Z"></path>
            <path fill="#ffffff" d="M226.472 32.947c.699-.184 1.383-.405 2.127-.383.601.02.988.267 1.206.808.128.316.229.635.225.984-.004 1.383 0 2.765 0 4.148 0 .593-.026.608-.616.624-.297.007-.59.007-.887 0-.507-.016-.544-.045-.548-.549-.011-.928 0-1.86-.004-2.788 0-.112.015-.229 0-.338-.045-.315.169-.762-.263-.894-.428-.131-.838.128-1.213.327-.199.105-.147.364-.147.564v2.99c0 .672-.015.68-.687.688-.32 0-.635-.004-.955 0-.281 0-.417-.136-.413-.414v-7.822c0-.18 0-.364.019-.54.019-.177.128-.297.301-.324.402-.063.803-.131 1.209-.161.429-.03.507.049.519.503.015.703 0 1.405.007 2.108 0 .131-.022.274.124.47h-.004Z"></path>
            <path fill="#ffffff" d="M235.624 49.433c0 .725.008 1.45 0 2.175-.007.522-.045.575-.526.575-1.679 0-1.378.18-1.401-1.33a81.233 81.233 0 0 1 0-2.517c.011-.755-.301-.887-1.007-.718-.627.154-.744.342-.744 1.019 0 .999.008 1.995-.003 2.994-.004.51-.042.54-.545.556-.342.011-.68-.008-1.022.004-.346.01-.496-.136-.488-.485.011-.68 0-1.36 0-2.04 0-1.135-.004-2.27 0-3.4.003-.586.03-.624.623-.609.38.012.827-.176 1.101.3.079.136.248.057.376.012.514-.18 1.048-.285 1.581-.387 1.217-.24 1.995.357 2.044 1.608.03.748.004 1.495.004 2.243h.007Z"></path>
            <path fill="#ffffff" d="M228.67 48.93c0 .315.004.635 0 .95-.015 1.172-.642 1.995-1.769 2.273-.778.195-1.563.17-2.345-.034-1.134-.293-1.63-1.108-1.728-2.175-.079-.85-.105-1.713.098-2.566.203-.853.714-1.398 1.533-1.66a4.073 4.073 0 0 1 2.983.161c.755.342 1.164.992 1.217 1.826.026.406.004.815.004 1.22l.007.005Zm-3.813-.008v.815c0 .045 0 .09.007.136.064.383.339.63.741.668.488.045.882-.101.98-.424.222-.752.256-1.518.049-2.273-.117-.428-.488-.601-1.033-.545-.428.041-.703.304-.733.744-.022.293-.004.59-.004.883l-.007-.004Z"></path>
            <path fill="#ffffff" d="M205.34 35.904c0-.364-.015-.725 0-1.09.048-1.066.593-1.795 1.623-2.103.773-.233 1.574-.2 2.355-.045 1.131.222 1.713 1.003 1.841 2.081.105.894.143 1.807-.075 2.701-.203.846-.703 1.394-1.556 1.627-.803.222-1.604.27-2.415.053-1.108-.297-1.758-1.116-1.777-2.277-.004-.316 0-.635 0-.95l.004.003Zm3.813-.007c0-.27.019-.541-.004-.812-.041-.496-.285-.759-.733-.837-.48-.083-.856.105-1.006.582a3.562 3.562 0 0 0 0 2.19c.139.432.454.545 1.067.458.435-.06.634-.255.672-.706.023-.29.004-.586.004-.879v.004Z"></path>
            <path fill="#ffffff" d="M218.038 35.934c0 .883.007 1.766 0 2.649-.008.503-.041.545-.552.54-.365-.003-.778.14-1.063-.262-.113-.162-.29-.075-.436-.023a9.776 9.776 0 0 1-1.375.368 3.32 3.32 0 0 1-.744.06c-.797-.026-1.289-.484-1.435-1.265-.154-.808-.128-1.62-.128-2.435 0-.748-.008-1.495 0-2.243.007-.575.038-.597.631-.608.293-.004.59-.008.883 0 .496.018.53.045.537.56.011.972 0 1.945 0 2.919 0 .157-.007.319 0 .477.034.54.203.672.729.548.177-.041.346-.105.515-.161.372-.124.518-.372.511-.774-.023-.906-.008-1.811-.008-2.717 0-.157 0-.315.004-.477 0-.248.124-.375.376-.38.364 0 .725.008 1.089-.007.365-.015.47.177.466.504-.008.905 0 1.81 0 2.716v.011Z"></path>
            <path fill="#ffffff" d="M210.344 49.613c-.41 0-.819-.003-1.229 0-.199 0-.432-.033-.473.26-.041.278.068.495.323.608.12.053.267.064.398.064.613-.008 1.221.045 1.826-.12.462-.128.477-.09.575.383.225 1.093.229 1.12-.883 1.322-.796.147-1.612.27-2.419.053-.887-.24-1.582-.691-1.77-1.672-.203-1.055-.222-2.115 0-3.167.203-.962.812-1.51 1.792-1.717a3.918 3.918 0 0 1 2.01.083c.789.24 1.244.755 1.416 1.574.128.609.121 1.214.113 1.826-.007.45-.052.488-.526.503-.387.012-.774 0-1.157 0h.004Zm-.966-1.514c.068 0 .136.004.203 0 .192-.018.443.057.5-.214.052-.259-.068-.488-.282-.642-.214-.154-.748-.08-.95.116-.154.147-.245.335-.188.545.064.23.278.184.451.195.09.008.18 0 .27 0h-.004Z"></path>
            <path fill="#ffffff" d="M242.293 49.771c0 .752.011 1.296 0 1.837-.015.474-.098.586-.56.568-.443-.02-.958.221-1.304-.297-.063-.098-.21 0-.311.041a4.32 4.32 0 0 1-1.041.297c-1.086.18-1.818-.274-2.051-1.341-.098-.444-.072-.89.037-1.341.147-.617.556-.928 1.135-1.015.488-.071.977-.192 1.484-.154.237.019.522.056.56-.32.033-.345-.076-.623-.38-.713-.278-.083-.563-.233-.86-.135-.421.139-.86.033-1.281.142-.248.064-.335-.07-.376-.266a31.15 31.15 0 0 1-.188-.996c-.026-.165.072-.252.222-.282 1.18-.244 2.363-.413 3.561-.116a1.575 1.575 0 0 1 1.225 1.454c.072.947.214 1.89.132 2.633l-.004.004Zm-2.668.117c-.112.003-.221 0-.334.007-.229.019-.376.135-.379.38 0 .281.165.387.424.405.229.015.44-.033.654-.112.207-.08.259-.222.237-.421-.023-.2-.162-.248-.331-.256h-.267l-.004-.003Z"></path>
            <path fill="#ffffff" d="M221.855 30.945c0 .44.008.823 0 1.206-.007.32.143.436.455.443.308.012.68-.127.909.136.206.24-.049.56 0 .849.022.131 0 .27 0 .405-.008.252-.143.369-.387.369h-.068c-.601.052-.903.39-.905 1.01 0 .545-.008 1.086 0 1.63.011.56.113.636.646.564.333-.045.527.103.582.444.008.045.008.09.015.135.162.894.121.962-.759 1.1a3.33 3.33 0 0 1-1.544-.13c-.826-.264-.961-.959-.995-1.68-.034-.79-.008-1.586-.011-2.378 0-.53-.008-.53-.538-.71-.022-.008-.049-.004-.064-.015-.405-.312-.157-.752-.21-1.127-.034-.237.019-.485.334-.474.47.015.5-.278.481-.623-.003-.09 0-.18 0-.271.008-.661.012-.642.699-.763.425-.075.842-.15 1.36-.12Z"></path>
            <path fill="#ffffff" d="M245.483 42.862c.135.293.09.522.09.748v7.758c0 .157 0 .315-.008.477-.007.218-.12.338-.338.342-.409.004-.819.004-1.225 0-.214 0-.338-.117-.345-.335a18.687 18.687 0 0 1-.008-.477v-7.483c0-.113.008-.226 0-.342-.015-.293.09-.444.41-.504.469-.086.935-.127 1.424-.184Z"></path>
            <path fill="#ffffff" d="M221.581 48.937c0 .906.007 1.815 0 2.72-.008.473-.049.511-.504.53-.341.015-.683.015-1.021 0-.417-.023-.496-.113-.523-.545-.011-.203-.003-.41-.003-.612v-4.696c0-.67.011-.673.695-.68.296 0 .589.01.886 0 .357-.015.477.161.477.495-.007.928 0 1.86 0 2.792l-.007-.004Z"></path>
            <path fill="#ffffff" d="M188.617 44.707h-1.296c-.248 0-.376-.128-.379-.376v-.068c.019-1.972-.252-1.562 1.469-1.604.499-.011.999.004 1.499 0 .315-.003.458.136.45.447a31.88 31.88 0 0 0 0 1.157c.008.316-.135.455-.45.451-.432-.007-.864 0-1.296 0l.003-.007Z"></path>
            <path fill="#ffffff" d="M188.647 40.894h-1.292c-.282 0-.417-.132-.413-.414.003-.338 0-.68.007-1.018 0-.218.124-.334.342-.338h2.724c.218 0 .33.12.342.338 0 .023 0 .045.003.068.147 1.318.102 1.364-1.232 1.364h-.481Z"></path>
            <path fill="#ffffff" d="M220.57 42.922c1.067 0 1.015-.09 1.011.98-.004 1.2.109 1.079-1.112 1.083-.951 0-.951.083-.943-.91v-.544c.015-.575.037-.594.635-.605h.409v-.004Z"></path>
            <path fill="#303030" d="M169.404 46.465c.192-1.078.549-1.961.816-2.87.548-1.89 1.149-3.765 1.735-5.643.184-.594.199-.59.797-.594.477-.003.954-.003 1.427 0 .59.008.609.004.778.545.496 1.552.977 3.107 1.461 4.662.323 1.037.647 2.074.947 3.115.225.777.21.792-.609.785-.379-.004-.819.139-1.127-.087-.289-.21-.236-.657-.345-.999-.207-.654-.226-.676-.891-.68-.612-.003-1.224 0-1.837 0-.653 0-.657 0-.841.601a7.98 7.98 0 0 0-.199.718c-.072.312-.245.462-.575.454-.492-.01-.988 0-1.54 0l.003-.007Zm4.103-7.236c-.06.038-.12.053-.132.087-.323 1.123-.642 2.25-.961 3.373-.079.282.067.376.311.38.451.007.906.015 1.357 0 .439-.015.503-.113.383-.556-.196-.718-.395-1.432-.601-2.145-.109-.38-.128-.79-.353-1.139h-.004Z"></path>
            <path fill="#303030" d="M178.357 41.919c0-1.315-.004-2.63 0-3.945 0-.59.023-.608.62-.612a443.49 443.49 0 0 1 4.497 0c.563 0 .597.03.597.563 0 1.38.124 1.176-1.127 1.191-.702.008-1.409-.007-2.111.004-.519.008-.552.041-.571.53-.011.316-.011.635 0 .95.015.53.041.56.601.564.748.007 1.499 0 2.25 0 .68.004.688.007.688.68 0 1.195.109 1.067-1.041 1.074-.657 0-1.319-.007-1.976.004-.466.008-.511.053-.518.511-.012.793 0 1.586-.008 2.382-.004.627-.019.646-.657.642-1.439-.007-1.233.162-1.244-1.213-.011-1.112 0-2.22 0-3.333v.008Z"></path>
            <path fill="#303030" d="M181.498 51.402c.24-.414.267-.89.387-1.334.199-.74.368-1.491.533-2.243.064-.285.128-.526.492-.53.357 0 .444.215.511.508.248 1.078.519 2.152.778 3.23.03.128.03.271.222.391.214-.777.42-1.525.62-2.273.124-.458.236-.92.356-1.379.031-.108.049-.221.094-.326.053-.117.166-.15.286-.124.146.03.154.139.128.259-.03.131-.053.267-.087.398-.308 1.18-.62 2.363-.928 3.543-.052.199-.09.402-.312.492-.3.12-.567-.008-.653-.35-.271-1.074-.526-2.152-.789-3.227-.049-.195-.105-.386-.188-.683-.301.582-.353 1.138-.488 1.664-.181.699-.305 1.413-.466 2.115-.06.263-.132.526-.511.515-.353-.011-.459-.214-.53-.504-.308-1.205-.627-2.408-.939-3.61-.03-.109-.049-.222-.071-.33-.027-.117-.046-.233.105-.275.15-.041.27.008.323.162.056.173.101.35.146.522.271 1.03.538 2.055.812 3.084.026.102 0 .23.173.305h-.004Z"></path>
            <path fill="#303030" d="M189.868 51.796c.019.124-.018.195-.124.222-.12.026-.244 0-.293-.11a3.605 3.605 0 0 1-.233-.634c-.086-.346-.293-.481-.642-.45a2.41 2.41 0 0 1-.545 0c-.732-.102-1.288.067-1.454.893a.547.547 0 0 1-.124.237c-.082.098-.206.098-.311.045-.094-.045-.091-.147-.064-.237a4.89 4.89 0 0 1 .101-.323c.421-1.22.849-2.438 1.266-3.659.083-.244.162-.466.485-.48.345-.016.458.19.567.469.5 1.266.875 2.573 1.323 3.854.022.064.037.132.052.177l-.004-.004Zm-1.904-4.091c-.365.823-.564 1.581-.819 2.322-.091.263.03.379.289.39.113.004.225.004.338.008 1.315.011 1.15.011.804-1.052-.083-.256-.177-.511-.248-.77-.075-.275-.109-.568-.368-.894l.004-.004Z"></path>
            <path fill="#303030" d="M200.591 46.435c.011-1.349-.169-1.176 1.194-1.183 1.225-.008 1.248.018 1.24 1.262 0 .158 0 .316-.011.473-.019.278-.165.459-.432.545-.549.177-1.116.162-1.683.139-.233-.008-.312-.15-.316-.357v-.883l.008.004Z"></path>
            <path fill="#303030" d="M216.254 48.1c0 .683-.226.882-.898.807-.391-.041-.549-.199-.59-.601a2.544 2.544 0 0 1-.004-.338c.011-.579.256-.815.819-.804.485.011.654.21.669.8v.135h.004Z"></path>
            <path fill="#303030" d="M224.853 48.922c0-.293-.019-.59.004-.883.034-.44.304-.699.733-.744.544-.056.916.117 1.033.545.206.759.173 1.525-.049 2.273-.098.327-.492.473-.981.425-.398-.038-.676-.286-.74-.67-.007-.044-.007-.09-.007-.134v-.816l.007.004Z"></path>
            <path fill="#303030" d="M209.153 35.893c0 .293.019.586-.004.88-.038.45-.237.645-.672.705-.613.087-.928-.026-1.067-.458a3.548 3.548 0 0 1 0-2.19c.15-.477.526-.665 1.006-.582.451.075.695.341.733.837.023.27.004.541 0 .812l.004-.004Z"></path>
            <path fill="#303030" d="M209.378 48.096c-.09 0-.18.003-.27 0-.173-.012-.387.033-.451-.196-.056-.21.034-.398.188-.544.203-.196.736-.271.95-.117.214.154.335.383.282.642-.056.275-.308.2-.5.215-.067.007-.135 0-.203 0h.004Z"></path>
            <path fill="#303030" d="M239.626 49.888h.266c.169.007.308.056.331.255.022.2-.03.342-.237.421-.21.079-.424.128-.653.113-.256-.02-.429-.124-.425-.406 0-.244.15-.36.379-.38.109-.01.222 0 .335 0l.004-.003Z"></path>
            <path fill="#ffffff" d="M173.511 39.23c.225.349.24.758.353 1.138.206.713.405 1.427.601 2.145.12.443.06.537-.383.556-.451.015-.902.007-1.357 0-.244 0-.39-.098-.311-.38.319-1.123.638-2.25.961-3.373.008-.03.068-.045.132-.087h.004Z"></path>
            <path fill="#ffffff" d="M187.964 47.705c.259.327.293.62.368.894.071.26.165.515.248.77.345 1.067.511 1.063-.804 1.052-.113 0-.226 0-.338-.007-.26-.012-.38-.128-.29-.391.256-.74.455-1.5.819-2.322l-.003.004Z"></path>
        </g>
        <defs fill="none">
            <clipPath id="d4e24f12-240c-4505-a4c1-4cdae574bac1_comp-mi3wcuxs">
                <path fill="#ffffff" d="M406.58 0v84.58H0V0h406.58z"></path>
            </clipPath>
            <filter color-interpolation-filters="sRGB" filterUnits="userSpaceOnUse" height="92.58" width="414.58" y="0" x="-4" id="d06a2e84-1db5-4263-b703-735dd379ba53_comp-mi3wcuxs">
                <feFlood result="BackgroundImageFix" flood-opacity="0"></feFlood>
                <feColorMatrix result="hardAlpha" values="0 0 0 0 0 0 0 0 0 0 0 0 0 0 0 0 0 0 127 0" in="SourceAlpha"></feColorMatrix>
                <feOffset dy="4"></feOffset>
                <feGaussianBlur stdDeviation="2"></feGaussianBlur>
                <feComposite operator="out" in2="hardAlpha"></feComposite>
                <feColorMatrix values="0 0 0 0 0 0 0 0 0 0 0 0 0 0 0 0 0 0 0.25 0"></feColorMatrix>
                <feBlend result="effect1_dropShadow_7_233" in2="BackgroundImageFix"></feBlend>
                <feBlend result="shape" in2="effect1_dropShadow_7_233" in="SourceGraphic"></feBlend>
            </filter>
        </defs>
    </g>
</svg>