<svg preserveAspectRatio="xMidYMid meet" data-bbox="161 18.421 85.272 48.428" xmlns="http://www.w3.org/2000/svg" viewBox="161 18.421 85.272 48.428" height="86" width="408" data-type="color" role="presentation" aria-hidden="true" aria-label="">
    <g>
        <g clip-path="url(#8b33a167-0cd3-4788-aea7-1c3dc9336805_comp-mi3wcuyc)">
            <path fill="#ffffff" d="M161 39.438c.501-.417.919-.752 1.379-1.17.292.293.042.71.292 1.045.711.209 1.505 0 2.382.167.167.794.042 1.588.084 2.382v5.098c.71.167 1.379.167 2.172 0v-7.354c.418-.251.794-.126 1.17-.126.377 0 .753.042 1.129-.041.209-.586.209-1.003.041-1.923-1.963-.083-3.969 0-6.184-.083 3.886-3.301 7.647-6.435 11.408-9.569l11.323-9.443c1.421 1.044 2.842 2.13 4.22 3.175v15.795c-.877.125-1.796.042-2.674.042h-2.799c-.126 1.63 0 3.217-.042 4.763v4.806c.961.167 1.88.083 2.758.083h2.716v10.363c-5.976 3.092-12.034 6.226-18.135 9.401-3.719-9.15-7.479-18.26-11.24-27.41Zm11.073-2.005c-.961 3.175-1.88 6.31-2.883 9.569.835.083 1.546.125 2.256 0 .293-.586.293-1.212.627-1.797.961 0 1.964-.042 2.883 0 .334.627.334 1.253.669 1.838.71.042 1.42.126 2.172-.083a1347.42 1347.42 0 0 0-2.883-9.485h-2.883l.042-.042Zm12.201.083c-1.003-.209-5.39-.167-5.933.042-.167 1.17-.084 8.775.083 9.402.669.125 1.337.167 2.048 0 .209-1.212 0-2.382.167-3.594 1.128-.125 2.256.042 3.343-.125.083-.669.125-1.254 0-1.88-1.129-.126-2.257.041-3.343-.126-.042-.627-.126-1.212 0-1.797 1.212-.125 2.423 0 3.635-.083a6.73 6.73 0 0 0 0-1.839ZM179.97 47.67c-.042.585.878 4.22 1.254 4.93.25.042.501.084.877-.083.293-1.254.627-2.549.961-4.011.418 1.504.585 2.841 1.003 4.095.376.083.627.125.961-.084.502-1.546.836-3.176 1.254-4.805-.251-.167-.46-.167-.711.042-.417 1.128-.543 2.423-1.086 3.76-.46-1.379-.543-2.716-1.003-3.886a1.02 1.02 0 0 0-.919.042c-.293 1.254-.585 2.507-.961 3.928-.502-1.42-.669-2.758-1.128-4.011-.209-.084-.376-.084-.502 0v.083Zm10.279 4.805c-.543-1.63-1.086-3.217-1.588-4.805-.376-.167-.668-.167-1.002.042-.502 1.546-1.129 3.092-1.546 4.721.25.21.417.21.585.084.292-.292.208-.752.585-1.045.585 0 1.253-.125 1.838 0 .251.335.209.71.46 1.003.167.084.376.126.668-.083v.083Z" data-color="1"></path>
            <path fill="#ffffff" d="M198.94 43.826c.794-.125 1.546-.042 2.299-.042h2.047c1.379.126 2.131.878 2.173 2.298v.961c.041 1.045-.168 1.964-1.17 2.549.543 1.086 1.378 1.922 1.922 3.008-.794.126-1.505 0-2.257.042-.668-.92-1.295-1.797-1.922-2.674a1.922 1.922 0 0 0-1.086 0c-.167.877 0 1.755-.125 2.674-.627.084-1.212.042-1.797 0-.167-.585-.251-7.354-.084-8.774v-.042Zm1.964 4.22c.794 0 1.504.084 2.173-.042a1.883 1.883 0 0 0 0-2.34c-.669-.083-1.379-.125-2.131 0v2.382h-.042Z" data-color="1"></path>
            <path fill="#ffffff" d="M215.571 51.096c-.042.46.209.502.459.502.46.041.919 0 1.379.125.961.209 1.337.501 1.379 1.295.083 1.003-.293 1.713-1.086 2.09-.376.166-.753.208-1.129.25-1.086.125-2.172-.042-3.3-.334.041-.46.041-.92.292-1.38 1.086 0 2.215.46 3.301 0 0-.083.083-.166.083-.25 0-.083 0-.167-.083-.292-.501-.084-1.003-.126-1.504-.21-.251 0-.502 0-.711-.083-1.086-.209-1.42-.96-.919-1.922.042-.125.167-.209.251-.376-.878-.877-.836-1.964-.627-3.092.126-.668.543-1.086 1.212-1.337.459-.167.961-.292 1.462-.209.878.126 1.797.126 2.674.126.084 0 .167.041.209.083.167.25.084.502.084.71-.084.251-.376.251-.46.46v.209c0 .46.042.92 0 1.379 0 1.003-.543 1.63-1.504 1.88-.46.125-.961.167-1.462.25v.126Zm1.044-1.838c.167-.544.209-1.003 0-1.505-.418-.25-.794-.208-1.253-.083-.376.543-.376 1.086 0 1.63.459.167.835.167 1.295 0l-.042-.042Z" data-color="1"></path>
            <path fill="#ffffff" d="M204.038 37.474c.292.543.167 1.087.418 1.672-1.421.334-2.758.46-4.095.083-1.086-.334-1.671-1.086-1.671-2.256V32.71c0-1.17.794-2.047 1.922-2.298 1.253-.293 2.465-.125 3.76.167-.083.585-.083 1.17-.292 1.713-.585 0-1.087-.083-1.63-.125h-.877c-.585.042-.836.292-.878.877v3.594c0 .584.335.877.961.877.544 0 1.087 0 1.63-.084.251-.041.46-.083.794-.041l-.042.083Z" data-color="1"></path>
            <path fill="#ffffff" d="M233.998 47.962c-.585-.083-1.045.168-1.588.418v4.178c-.669.21-1.254.126-1.922.042v-6.392c.418-.167.836-.084 1.044-.084.418 0 .418.334.669.418.627-.25 1.295-.46 2.006-.543 1.002-.126 1.546.25 1.796 1.211 0 .042 0 .084.042.167.125 1.714 0 3.468.042 5.223-.669.042-1.254.084-1.839 0-.209-.209-.125-.46-.125-.668V48.84c0-.293.084-.585-.209-.878h.084Z" data-color="1"></path>
            <path fill="#ffffff" d="M229.151 49.425v1.128c-.084 1.086-.711 1.797-1.797 2.09a4.772 4.772 0 0 1-2.173 0c-1.086-.293-1.755-1.004-1.796-2.132V48.13c.041-.961.584-1.63 1.504-1.964.919-.293 1.838-.334 2.716 0 .961.334 1.42 1.044 1.546 2.005v1.254Zm-3.719 1.42c.209.084.334.168.459.21.794.208 1.254-.126 1.296-.962v-1.63c0-.542-.418-.877-1.003-.835-.251 0-.501.084-.752.334-.293.878-.251 1.88 0 2.883Z" data-color="1"></path>
            <path fill="#ffffff" d="M212.103 32.878c.668 0 1.253-.209 1.713.293l1.504-.376c.167-.042.376-.084.543-.084 1.212-.084 1.839.376 1.839 1.588.041 1.588 0 3.133 0 4.721a.591.591 0 0 1-.084.25c-.543.168-1.128.084-1.797.043-.083-1.546 0-3.05-.041-4.513-.669-.25-.794-.25-1.755.25v4.137c-.669.21-1.254.126-1.964.084v-6.435l.042.042Z" data-color="1"></path>
            <path fill="#ffffff" d="M210.64 36.806h-3.217s-.084.334-.084.46c0 .125.042.25.251.417.835.418 1.796 0 2.757 0 .209.418.209.878.293 1.295-.376.335-.878.335-1.295.418a6.477 6.477 0 0 1-1.797 0c-1.295-.125-2.089-.96-2.131-2.256v-2.298c.042-1.086.627-1.755 1.671-2.047a3.783 3.783 0 0 1 2.257.041c.585.21 1.002.585 1.211 1.212.209.627.293 1.797.084 2.716v.042Zm-3.176-2.298c-.083.25-.292.501 0 .752.46 0 .92.083 1.337-.042.126-.293.084-.543-.083-.794-.418-.292-.794-.292-1.254.084Z" data-color="1"></path>
            <path fill="#ffffff" d="M212.311 50.051h-3.342c-.209.377 0 .585.125.878.877.501 1.838.084 2.799 0 .293.376.168.877.376 1.379-1.42.501-2.799.752-4.22.083a1.882 1.882 0 0 1-1.044-1.546c-.125-.96-.167-1.963 0-2.924.125-.92.71-1.546 1.588-1.755.626-.167 1.295-.21 1.922-.042 1.002.25 1.587.836 1.713 1.838.041.335 0 .669.041.961v1.17l.042-.042Zm-3.384-1.504c.501 0 1.003.126 1.504-.083.084-.293.084-.543-.167-.752a1.806 1.806 0 0 0-1.086 0s-.335.417-.251.835Z" data-color="1"></path>
            <path fill="#ffffff" d="M240.809 48.798c.083-.292.041-.627-.126-.96-.835-.544-1.796-.084-2.716-.126-.083-.46-.25-.836-.167-1.379 1.295-.376 2.632-.543 3.97-.084.543.21.835.627.919 1.17.25 1.713.125 3.427.125 5.181-.668.084-1.253.251-1.838-.209-.418.126-.836.335-1.296.418-1.128.21-1.963-.418-2.047-1.546v-.835c.042-.794.418-1.212 1.254-1.38.334-.083.71-.083 1.044-.083.293 0 .585.084.919-.125l-.041-.042Zm-1.212 2.34c.418.125.794.084 1.212-.084.083-.209.167-.417-.084-.668-.376 0-.794-.126-1.17.125-.084.21-.125.376.084.627h-.042Z" data-color="1"></path>
            <path fill="#ffffff" d="M231.407 34.424c-.836-.167-1.629-.042-2.465.042-.209-.418-.251-.877-.293-1.254.084-.208.209-.25.335-.292.919-.209 1.838-.293 2.757-.209 1.17.084 1.672.585 1.881 1.755.125.794.041 1.63.083 2.465 0 .752.042 1.504 0 2.256-.209.251-.459.21-.71.21h-.669c-.209 0-.25-.293-.459-.335-.585.25-1.17.46-1.797.418-.752-.042-1.212-.376-1.462-1.086a3.238 3.238 0 0 1-.084-1.546c.125-.71.669-1.087 1.462-1.17h1.672c.125-.46.167-.836-.251-1.212v-.042Zm-.919 3.468c.418.125.794.084 1.17-.167.042-.25.125-.46-.084-.669-.418 0-.877-.167-1.253.21-.084.25-.042.459.167.626Z" data-color="1"></path>
            <path fill="#ffffff" d="M218.746 34.257c-.125-.418-.041-.877 0-1.253.251-.251.544-.084.794-.293.209-.418 0-.92.167-1.42.544-.126 1.087-.293 1.672-.21.209.251.125.544.167.794 0 .251 0 .544.083.836.376.25.836 0 1.296.209.125.46.083.92 0 1.379-.418.209-.836 0-1.296.25 0 1.045-.083 2.131.042 3.176.418.292.752 0 1.087.167.167.376.125.836.25 1.212-.71.46-2.089.501-2.716.083a1.374 1.374 0 0 1-.585-1.211v-3.343c-.25-.376-.626-.167-.835-.376h-.126Z" data-color="1"></path>
            <path fill="#ffffff" d="M235.21 39.27v-9.024c.585-.25 1.211-.25 1.88-.293v9.36c-.627.167-1.212.125-1.88 0v-.042Z" data-color="1"></path>
            <path fill="#ffffff" d="M244.402 43.533c.585-.209 1.128-.25 1.713-.25.209.627.209 8.44 0 9.317-.543.126-1.086.084-1.671 0-.167-.585-.251-7.604-.084-9.067h.042Z" data-color="1"></path>
            <path fill="#ffffff" d="M227.688 34.508c-.585.334-1.17.501-1.671.919v3.802c-.669.21-1.254.126-1.922.042v-6.393c.501-.167.961-.083 1.379-.083.25.083.25.334.459.46.46-.168.919-.46 1.504-.586.335.544.168 1.128.251 1.755v.084Z" data-color="1"></path>
            <path fill="#ffffff" d="M220.167 46.166c.543-.126 1.086-.084 1.755 0v6.393c-.627.208-1.17.125-1.713.083-.209-.585-.251-5.515-.042-6.434v-.042Z" data-color="1"></path>
            <path fill="#ffffff" d="M190.458 44.912h-3.259c-.084-.627 0-1.17-.042-1.713.585-.167 2.215-.209 3.301-.084.125.585.084 1.17 0 1.797Z" data-color="1"></path>
            <path fill="#ffffff" d="M187.199 40.984a4.036 4.036 0 0 1 0-1.42c.585-.167 2.298-.21 3.259-.042.084.46.084.92 0 1.462h-3.259Z" data-color="1"></path>
            <path fill="#ffffff" d="M221.922 45.288a6.18 6.18 0 0 1-1.755 0c-.167-.627-.084-1.253 0-1.922.585-.125 1.128-.042 1.713-.042.167.669.084 1.254.042 1.964Z" data-color="1"></path>
            <path fill="#ffffff" d="M172.533 43.282c.334-1.211.626-2.298.919-3.384h.125c.293 1.086.585 2.214.919 3.343-.668.167-1.253.083-1.963.041Z" data-color="1"></path>
            <path fill="#ffffff" d="M188.16 48.38c.293.878.501 1.546.752 2.298-.501.251-1.003.084-1.504.168.167-.836.46-1.588.752-2.466Z" data-color="1"></path>
        </g>
        <defs fill="none">
            <clipPath id="8b33a167-0cd3-4788-aea7-1c3dc9336805_comp-mi3wcuyc">
                <path fill="#ffffff" d="M407.27 0v85.27H0V0h407.27z"></path>
            </clipPath>
        </defs>
    </g>
</svg>