<svg width="842" height="371" viewBox="0 0 842 371" fill="none" xmlns="http://www.w3.org/2000/svg">
<path d="M263.28 136.79C268.85 125.99 276.41 117.68 285.97 111.85C295.53 106.03 306.21 103.12 318.01 103.12C328.32 103.12 337.33 105.2 345.06 109.35C352.79 113.51 358.98 118.74 363.64 125.06V105.36H398.8V243.5H363.64V223.3C359.15 229.78 352.96 235.14 345.06 239.38C337.16 243.62 328.06 245.74 317.76 245.74C306.12 245.74 295.53 242.75 285.97 236.76C276.41 230.78 268.85 222.34 263.28 211.45C257.71 200.56 254.93 188.05 254.93 173.92C254.93 159.98 257.71 147.6 263.28 136.79ZM358.66 152.63C355.33 146.56 350.84 141.91 345.19 138.67C339.54 135.43 333.47 133.81 326.99 133.81C320.51 133.81 314.52 135.39 309.04 138.55C303.55 141.71 299.1 146.32 295.7 152.39C292.29 158.46 290.59 165.65 290.59 173.96C290.59 182.27 292.29 189.54 295.7 195.78C299.1 202.01 303.59 206.79 309.16 210.12C314.73 213.45 320.67 215.11 326.99 215.11C333.47 215.11 339.54 213.49 345.19 210.25C350.84 207.01 355.33 202.36 358.66 196.29C361.98 190.22 363.65 182.95 363.65 174.47C363.65 165.97 361.98 158.7 358.66 152.63Z" fill="white"/>
<path d="M467.87 105.38V243.52H432.96V105.38H467.87Z" fill="white"/>
<path d="M537.19 59V243.52H502.28V59H537.19Z" fill="white"/>
<path d="M606.51 105.38V243.52H571.6V105.38H606.51Z" fill="white"/>
<path d="M467.87 59.5V93.28H432.96V59.5H467.87Z" fill="white"/>
<path d="M606.51 59.5V93.28H571.6V59.5H606.51Z" fill="white"/>
<path d="M757.37 118.97C767.51 129.36 772.58 143.87 772.58 162.48V243.52H737.67V167.22C737.67 156.25 734.93 147.81 729.44 141.91C723.96 136.01 716.47 133.06 707 133.06C697.36 133.06 689.75 136.01 684.18 141.91C678.61 147.81 675.83 156.25 675.83 167.22V243.52H640.92V105.38H675.83V122.59C680.48 116.61 686.43 111.91 693.66 108.5C700.89 105.1 708.83 103.39 717.47 103.39C733.93 103.38 747.23 108.58 757.37 118.97Z" fill="white"/>
<path d="M353.88 272.32V317.85H347.89V283.9L332.76 317.85H328.55L313.35 283.83V317.85H307.36V272.32H313.81L330.65 309.95L347.49 272.32H353.88Z" fill="#F58220"/>
<path d="M370 271.99V317.85H364.01V271.99H370Z" fill="#F58220"/>
<path d="M416.25 317.85H410.26L386.18 281.33V317.85H380.19V271.93H386.18L410.26 308.38V271.93H416.25V317.85Z" fill="#F58220"/>
<path d="M432.43 271.99V317.85H426.44V271.99H432.43Z" fill="#F58220"/>
<path d="M478.69 317.85H472.7L448.62 281.33V317.85H442.63V271.93H448.62L472.7 308.38V271.93H478.69V317.85Z" fill="#F58220"/>
<path d="M523.62 285.28C522.35 282.6 520.51 280.53 518.09 279.06C515.68 277.59 512.87 276.86 509.67 276.86C506.47 276.86 503.58 277.59 501.02 279.06C498.45 280.53 496.44 282.64 494.97 285.38C493.5 288.12 492.77 291.29 492.77 294.89C492.77 298.49 493.5 301.65 494.97 304.36C496.44 307.08 498.46 309.17 501.02 310.64C503.59 312.11 506.47 312.84 509.67 312.84C514.14 312.84 517.83 311.5 520.72 308.83C523.61 306.16 525.3 302.54 525.79 297.97H507.5V293.1H532.17V297.71C531.82 301.48 530.63 304.94 528.62 308.07C526.6 311.21 523.95 313.69 520.66 315.5C517.37 317.32 513.71 318.23 509.67 318.23C505.42 318.23 501.53 317.23 498.02 315.24C494.51 313.24 491.74 310.47 489.7 306.92C487.66 303.37 486.64 299.35 486.64 294.88C486.64 290.41 487.66 286.38 489.7 282.81C491.74 279.24 494.51 276.45 498.02 274.45C501.53 272.45 505.41 271.46 509.67 271.46C514.54 271.46 518.85 272.67 522.6 275.08C526.35 277.49 529.08 280.89 530.79 285.28H523.62Z" fill="#F58220"/>
<path d="M592.84 317.85L586.85 311.8C584.61 314.13 582.22 315.85 579.68 316.96C577.14 318.08 574.26 318.64 571.06 318.64C567.9 318.64 565.11 318.07 562.67 316.93C560.24 315.79 558.35 314.17 557.01 312.06C555.67 309.95 555 307.5 555 304.69C555 301.49 555.91 298.67 557.73 296.24C559.55 293.81 562.24 291.89 565.79 290.48C564.39 288.81 563.38 287.28 562.76 285.87C562.14 284.47 561.84 282.93 561.84 281.26C561.84 279.33 562.33 277.59 563.32 276.03C564.31 274.47 565.72 273.26 567.56 272.38C569.4 271.5 571.53 271.06 573.94 271.06C576.31 271.06 578.37 271.52 580.12 272.44C581.87 273.36 583.19 274.64 584.07 276.29C584.95 277.94 585.34 279.77 585.25 281.78H579.26C579.3 279.98 578.8 278.57 577.75 277.54C576.7 276.51 575.34 275.99 573.67 275.99C571.92 275.99 570.5 276.48 569.43 277.47C568.36 278.46 567.82 279.72 567.82 281.25C567.82 282.57 568.18 283.84 568.9 285.07C569.62 286.3 570.84 287.81 572.55 289.61L586.24 303.36L587.42 301.52L591.89 294.02H598.34L592.95 303.36C592.2 304.68 591.33 306.06 590.32 307.5L600.65 317.83H592.84V317.85ZM577.48 312.12C579.39 311.2 581.2 309.77 582.91 307.84L569.42 294.29C563.8 296.44 561 299.84 561 304.49C561 307.08 561.93 309.23 563.8 310.94C565.66 312.65 568.09 313.51 571.07 313.51C573.43 313.5 575.57 313.04 577.48 312.12Z" fill="#F58220"/>
<path d="M624.62 282.81C626.64 279.24 629.39 276.44 632.88 274.42C636.37 272.4 640.24 271.39 644.49 271.39C649.49 271.39 653.86 272.6 657.58 275.01C661.31 277.42 664.03 280.84 665.74 285.27H658.57C657.3 282.51 655.47 280.38 653.08 278.89C650.69 277.4 647.83 276.65 644.49 276.65C641.29 276.65 638.41 277.4 635.87 278.89C633.33 280.38 631.33 282.5 629.88 285.24C628.43 287.98 627.71 291.19 627.71 294.88C627.71 298.52 628.43 301.71 629.88 304.45C631.33 307.19 633.32 309.31 635.87 310.8C638.41 312.29 641.29 313.04 644.49 313.04C647.82 313.04 650.69 312.31 653.08 310.84C655.47 309.37 657.3 307.25 658.57 304.49H665.74C664.03 308.88 661.31 312.27 657.58 314.66C653.85 317.05 649.49 318.25 644.49 318.25C640.24 318.25 636.37 317.25 632.88 315.26C629.39 313.27 626.64 310.49 624.62 306.94C622.6 303.39 621.59 299.37 621.59 294.9C621.59 290.41 622.6 286.39 624.62 282.81Z" fill="#F58220"/>
<path d="M680.61 271.99V317.85H674.62V271.99H680.61Z" fill="#F58220"/>
<path d="M728.71 271.99L711.41 317.85H704.5L687.2 271.99H693.58L707.99 311.53L722.4 271.99H728.71Z" fill="#F58220"/>
<path d="M741.27 271.99V317.85H735.28V271.99H741.27Z" fill="#F58220"/>
<path d="M757.46 312.98H773.51V317.85H751.47V271.99H757.46V312.98Z" fill="#F58220"/>
<path d="M181.61 39.98C202.49 39.85 222.87 42.72 242.26 50.89C251.93 54.96 260.99 60.12 269.4 66.39C273.8 69.67 274.72 72.92 272.14 77.68C262.88 94.75 251.48 110.12 234.99 120.9C205.39 140.24 166.09 141.42 135.34 116.29C122.41 105.72 112.63 92.82 104.73 78.33C102.04 73.39 102.96 69.35 107.78 65.75C113.9 61.19 120.52 57.39 127.32 53.92C141.08 46.89 155.44 41.66 170.9 40.04C174.44 39.66 178.04 39.98 181.61 39.98Z" fill="white"/>
<path d="M195.2 309.56C174.32 309.69 153.94 306.82 134.55 298.65C124.88 294.58 115.82 289.42 107.41 283.15C103.01 279.87 102.09 276.62 104.67 271.86C113.93 254.79 125.33 239.42 141.82 228.64C171.42 209.3 210.72 208.12 241.47 233.25C254.4 243.82 264.18 256.72 272.08 271.21C274.77 276.15 273.85 280.19 269.03 283.79C262.91 288.35 256.29 292.15 249.49 295.62C235.73 302.65 221.37 307.88 205.91 309.5C202.38 309.88 198.77 309.56 195.2 309.56Z" fill="#F58220"/>
<path d="M147.75 175.98C147.89 197.49 139.83 214.76 127.29 230.26C117.44 242.44 105.19 251.72 91.4099 259.03C85.0799 262.39 82.4499 261.72 78.2899 255.89C64.7499 236.91 56.1499 215.9 53.2299 192.78C49.4599 162.97 55.2899 134.93 69.8699 108.69C72.7999 103.42 75.8999 98.2499 79.6999 93.5499C82.5699 90.0099 85.4799 89.1799 89.3999 91.2699C109.78 102.16 127.36 116.11 138.17 137.14C144.6 149.64 147.84 162.99 147.75 175.98Z" fill="white"/>
<path d="M188.1 201.39C174.26 201.38 162.27 189.51 162.16 175.73C162.05 161.89 174.57 149.46 188.65 149.44C202 149.42 214.16 161.95 214.14 175.7C214.11 189.8 202.34 201.41 188.1 201.39Z" fill="#F58220"/>
</svg>
